<?xml version="1.0" encoding="UTF-8" standalone="no"?>
<svg width="110px" height="110px" viewBox="0 0 110 110" version="1.1" xmlns="http://www.w3.org/2000/svg" xmlns:xlink="http://www.w3.org/1999/xlink" xmlns:sketch="http://www.bohemiancoding.com/sketch/ns">
    <!-- Generator: Sketch 3.4.1 (15681) - http://www.bohemiancoding.com/sketch -->
    <title>FeatureFuelHVO100@2x</title>
    <desc>Created with Sketch.</desc>
    <defs></defs>
    <g id="Fuel" stroke="none" stroke-width="1" fill="none" fill-rule="evenodd" sketch:type="MSPage">
        <g sketch:type="MSArtboardGroup" transform="translate(-340.000000, -1060.000000)" id="FeatureFuelHVO100">
            <g sketch:type="MSLayerGroup" transform="translate(340.000000, 1060.000000)">
                <path d="M54.847,109.78 C24.795,109.78 0.347,85.332 0.347,55.28 C0.347,25.228 24.795,0.78 54.847,0.78 C84.899,0.78 109.347,25.228 109.347,55.28 C109.347,85.332 84.899,109.78 54.847,109.78" id="Fill-1" fill="#82C341" sketch:type="MSShapeGroup"></path>
                <path d="M54.847,103.468 C28.276,103.468 6.66,81.852 6.66,55.28 C6.66,28.709 28.276,7.093 54.847,7.093 C81.417,7.093 103.034,28.709 103.034,55.28 C103.034,81.852 81.417,103.468 54.847,103.468 L54.847,103.468 Z M54.847,11.338 C30.617,11.338 10.904,31.05 10.904,55.28 C10.904,79.511 30.617,99.223 54.847,99.223 C79.076,99.223 98.789,79.511 98.789,55.28 C98.789,31.05 79.076,11.338 54.847,11.338 L54.847,11.338 Z" id="Fill-5" fill="#F9FFFF" sketch:type="MSShapeGroup"></path>
                <text id="HVO" sketch:type="MSTextLayer" font-family="Helvetica Neue" font-size="24" font-weight="420" sketch:alignment="middle" line-spacing="24" fill="#F8FFFF">
                    <tspan x="30" y="52">HVO</tspan>
                    <tspan x="35.1" y="77">100</tspan>
                </text>
            </g>
        </g>
    </g>
</svg>