<?xml version="1.0" encoding="UTF-8" standalone="no"?>
<svg width="110px" height="110px" viewBox="0 0 110 110" version="1.1" xmlns="http://www.w3.org/2000/svg" xmlns:xlink="http://www.w3.org/1999/xlink" xmlns:sketch="http://www.bohemiancoding.com/sketch/ns">
    <!-- Generator: Sketch 3.4.1 (15681) - http://www.bohemiancoding.com/sketch -->
    <title>FeatureFuelLPG@2x</title>
    <desc>Created with Sketch.</desc>
    <defs></defs>
    <g id="Fuel" stroke="none" stroke-width="1" fill="none" fill-rule="evenodd" sketch:type="MSPage">
        <g sketch:type="MSArtboardGroup" transform="translate(-190.000000, -760.000000)" id="FeatureFuelLPG">
            <g sketch:type="MSLayerGroup" transform="translate(190.000000, 760.000000)">
                <path d="M55.051,109.892 C24.999,109.892 0.551,85.444 0.551,55.392 C0.551,25.341 24.999,0.892 55.051,0.892 C85.103,0.892 109.551,25.341 109.551,55.392 C109.551,85.444 85.103,109.892 55.051,109.892" id="Fill-1" fill="#EE343F" sketch:type="MSShapeGroup"></path>
                <path d="M33.225,45.531 L33.225,61.63 L42.853,61.63 L42.853,65.282 L28.883,65.282 L28.883,45.531 L33.225,45.531" id="Fill-2" fill="#FFFFFF" sketch:type="MSShapeGroup"></path>
                <path d="M54.193,45.531 C55.429,45.531 56.48,45.71 57.347,46.07 C58.213,46.429 58.918,46.904 59.463,47.495 C60.006,48.085 60.404,48.758 60.653,49.515 C60.901,50.271 61.025,51.054 61.025,51.866 C61.025,52.658 60.901,53.438 60.653,54.203 C60.404,54.968 60.006,55.646 59.463,56.237 C58.918,56.826 58.213,57.301 57.347,57.66 C56.48,58.021 55.429,58.201 54.193,58.201 L49.629,58.201 L49.629,65.282 L45.286,65.282 L45.286,45.531 L54.193,45.531 L54.193,45.531 Z M53.003,54.825 C53.502,54.825 53.981,54.789 54.442,54.715 C54.903,54.642 55.308,54.499 55.659,54.286 C56.01,54.074 56.291,53.774 56.503,53.387 C56.714,52.999 56.821,52.493 56.821,51.866 C56.821,51.239 56.714,50.731 56.503,50.344 C56.291,49.957 56.01,49.658 55.659,49.445 C55.308,49.233 54.903,49.09 54.442,49.016 C53.981,48.943 53.502,48.906 53.003,48.906 L49.629,48.906 L49.629,54.825 L53.003,54.825 L53.003,54.825 Z" id="Fill-3" fill="#FFFFFF" sketch:type="MSShapeGroup"></path>
                <path d="M75.437,65.13 C74.497,65.526 73.547,65.724 72.588,65.724 C71.075,65.724 69.716,65.462 68.508,64.936 C67.3,64.411 66.282,63.687 65.451,62.765 C64.621,61.843 63.985,60.759 63.543,59.514 C63.099,58.269 62.879,56.928 62.879,55.489 C62.879,54.015 63.099,52.645 63.543,51.382 C63.985,50.119 64.621,49.016 65.451,48.076 C66.282,47.135 67.3,46.398 68.508,45.863 C69.716,45.329 71.075,45.061 72.588,45.061 C73.602,45.061 74.584,45.213 75.534,45.517 C76.484,45.822 77.342,46.268 78.107,46.858 C78.872,47.449 79.504,48.177 80.001,49.044 C80.5,49.911 80.804,50.907 80.914,52.031 L76.765,52.031 C76.506,50.925 76.009,50.095 75.272,49.542 C74.533,48.989 73.64,48.712 72.588,48.712 C71.61,48.712 70.78,48.901 70.098,49.279 C69.416,49.658 68.862,50.164 68.439,50.8 C68.015,51.437 67.705,52.161 67.512,52.972 C67.318,53.784 67.221,54.622 67.221,55.489 C67.221,56.319 67.318,57.126 67.512,57.909 C67.705,58.694 68.015,59.399 68.439,60.026 C68.862,60.653 69.416,61.155 70.098,61.534 C70.78,61.912 71.61,62.101 72.588,62.101 C74.027,62.101 75.138,61.736 75.921,61.008 C76.706,60.28 77.161,59.224 77.291,57.841 L72.92,57.841 L72.92,54.604 L81.219,54.604 L81.219,65.282 L78.453,65.282 L78.01,63.041 C77.236,64.037 76.378,64.734 75.437,65.13" id="Fill-4" fill="#FFFFFF" sketch:type="MSShapeGroup"></path>
                <path d="M55.051,103.58 C28.48,103.58 6.864,81.964 6.864,55.392 C6.864,28.821 28.48,7.205 55.051,7.205 C81.621,7.205 103.238,28.821 103.238,55.392 C103.238,81.964 81.621,103.58 55.051,103.58 L55.051,103.58 Z M55.051,11.45 C30.821,11.45 11.109,31.162 11.109,55.392 C11.109,79.623 30.821,99.335 55.051,99.335 C79.28,99.335 98.993,79.623 98.993,55.392 C98.993,31.162 79.28,11.45 55.051,11.45 L55.051,11.45 Z" id="Fill-5" fill="#F9FFFF" sketch:type="MSShapeGroup"></path>
            </g>
        </g>
    </g>
</svg>