<?xml version="1.0" encoding="UTF-8" standalone="no"?>
<svg width="110px" height="110px" viewBox="0 0 110 110" version="1.1" xmlns="http://www.w3.org/2000/svg" xmlns:xlink="http://www.w3.org/1999/xlink" xmlns:sketch="http://www.bohemiancoding.com/sketch/ns">
    <!-- Generator: Sketch 3.4.1 (15681) - http://www.bohemiancoding.com/sketch -->
    <title>FeatureFuelParafin@2x</title>
    <desc>Created with Sketch.</desc>
    <defs></defs>
    <g id="Fuel" stroke="none" stroke-width="1" fill="none" fill-rule="evenodd" sketch:type="MSPage">
        <g sketch:type="MSArtboardGroup" transform="translate(-40.000000, -760.000000)" id="FeatureFuelParafin">
            <g sketch:type="MSLayerGroup" transform="translate(40.000000, 760.000000)">
                <path d="M55.102,109.061 C25.05,109.061 0.602,84.613 0.602,54.561 C0.602,24.509 25.05,0.061 55.102,0.061 C85.154,0.061 109.602,24.509 109.602,54.561 C109.602,84.613 85.154,109.061 55.102,109.061" id="Fill-1" fill="#FABB0C" sketch:type="MSShapeGroup"></path>
                <path d="M55.102,102.748 C28.531,102.748 6.915,81.132 6.915,54.561 C6.915,27.99 28.531,6.373 55.102,6.373 C81.672,6.373 103.289,27.99 103.289,54.561 C103.289,81.132 81.672,102.748 55.102,102.748 L55.102,102.748 Z M55.102,10.618 C30.872,10.618 11.16,30.33 11.16,54.561 C11.16,78.791 30.872,98.503 55.102,98.503 C79.332,98.503 99.044,78.791 99.044,54.561 C99.044,30.33 79.332,10.618 55.102,10.618 L55.102,10.618 Z" id="Fill-2" fill="#F9FFFF" sketch:type="MSShapeGroup"></path>
                <path d="M58.1,36.989 C60.299,36.989 62.17,37.307 63.712,37.948 C65.254,38.587 66.508,39.432 67.477,40.484 C68.445,41.533 69.152,42.731 69.594,44.077 C70.037,45.423 70.257,46.817 70.257,48.261 C70.257,49.671 70.037,51.059 69.594,52.419 C69.152,53.781 68.445,54.986 67.477,56.038 C66.508,57.087 65.254,57.932 63.712,58.571 C62.17,59.212 60.299,59.533 58.1,59.533 L49.979,59.533 L49.979,72.133 L42.252,72.133 L42.252,36.989 L58.1,36.989 L58.1,36.989 Z M55.983,53.526 C56.871,53.526 57.724,53.462 58.543,53.33 C59.364,53.2 60.085,52.946 60.71,52.567 C61.333,52.19 61.834,51.656 62.21,50.967 C62.587,50.278 62.777,49.377 62.777,48.261 C62.777,47.145 62.587,46.242 62.21,45.553 C61.834,44.864 61.333,44.331 60.71,43.953 C60.085,43.576 59.364,43.322 58.543,43.19 C57.724,43.06 56.871,42.994 55.983,42.994 L49.979,42.994 L49.979,53.526 L55.983,53.526 L55.983,53.526 Z" id="Fill-3" fill="#FFFFFF" sketch:type="MSShapeGroup"></path>
            </g>
        </g>
    </g>
</svg>