<?xml version="1.0" encoding="UTF-8" standalone="no"?>
<svg width="110px" height="110px" viewBox="0 0 110 110" version="1.1" xmlns="http://www.w3.org/2000/svg" xmlns:xlink="http://www.w3.org/1999/xlink" xmlns:sketch="http://www.bohemiancoding.com/sketch/ns">
    <!-- Generator: Sketch 3.4.1 (15681) - http://www.bohemiancoding.com/sketch -->
    <title>FeatureFuelLNG@2x</title>
    <desc>Created with Sketch.</desc>
    <defs></defs>
    <g id="Fuel" stroke="none" stroke-width="1" fill="none" fill-rule="evenodd" sketch:type="MSPage">
        <g sketch:type="MSArtboardGroup" transform="translate(-40.000000, -1060.000000)" id="FeatureFuelLNG">
            <g sketch:type="MSLayerGroup" transform="translate(40.000000, 1060.000000)">
                <path d="M54.847,109.78 C24.795,109.78 0.347,85.332 0.347,55.28 C0.347,25.228 24.795,0.78 54.847,0.78 C84.899,0.78 109.347,25.228 109.347,55.28 C109.347,85.332 84.899,109.78 54.847,109.78" id="Fill-1" fill="#82C341" sketch:type="MSShapeGroup"></path>
                <path d="M31.998,45.419 L31.998,61.518 L41.625,61.518 L41.625,65.17 L27.655,65.17 L27.655,45.419 L31.998,45.419" id="Fill-2" fill="#FFFFFF" sketch:type="MSShapeGroup"></path>
                <path d="M48.374,45.419 L56.616,58.669 L56.671,58.669 L56.671,45.419 L60.738,45.419 L60.738,65.17 L56.396,65.17 L48.18,51.947 L48.124,51.947 L48.124,65.17 L44.058,65.17 L44.058,45.419 L48.374,45.419" id="Fill-3" fill="#FFFFFF" sketch:type="MSShapeGroup"></path>
                <path d="M76.257,65.018 C75.317,65.414 74.367,65.612 73.408,65.612 C71.895,65.612 70.535,65.35 69.328,64.824 C68.12,64.298 67.101,63.575 66.27,62.653 C65.441,61.731 64.805,60.647 64.362,59.402 C63.919,58.157 63.698,56.815 63.698,55.377 C63.698,53.903 63.919,52.533 64.362,51.27 C64.805,50.007 65.441,48.904 66.27,47.964 C67.101,47.023 68.12,46.286 69.328,45.751 C70.535,45.216 71.895,44.948 73.408,44.948 C74.422,44.948 75.403,45.101 76.353,45.404 C77.303,45.709 78.161,46.156 78.927,46.746 C79.692,47.337 80.323,48.065 80.821,48.932 C81.32,49.799 81.623,50.795 81.734,51.919 L77.585,51.919 C77.326,50.813 76.828,49.983 76.091,49.429 C75.353,48.877 74.459,48.6 73.408,48.6 C72.43,48.6 71.6,48.789 70.918,49.167 C70.236,49.545 69.682,50.052 69.259,50.688 C68.834,51.325 68.525,52.049 68.331,52.86 C68.138,53.672 68.041,54.51 68.041,55.377 C68.041,56.207 68.138,57.014 68.331,57.797 C68.525,58.582 68.834,59.287 69.259,59.914 C69.682,60.541 70.236,61.043 70.918,61.421 C71.6,61.8 72.43,61.989 73.408,61.989 C74.846,61.989 75.957,61.624 76.741,60.896 C77.525,60.167 77.981,59.112 78.11,57.728 L73.74,57.728 L73.74,54.492 L82.039,54.492 L82.039,65.17 L79.272,65.17 L78.83,62.929 C78.055,63.925 77.198,64.621 76.257,65.018" id="Fill-4" fill="#FFFFFF" sketch:type="MSShapeGroup"></path>
                <path d="M54.847,103.468 C28.276,103.468 6.66,81.852 6.66,55.28 C6.66,28.709 28.276,7.093 54.847,7.093 C81.417,7.093 103.034,28.709 103.034,55.28 C103.034,81.852 81.417,103.468 54.847,103.468 L54.847,103.468 Z M54.847,11.338 C30.617,11.338 10.904,31.05 10.904,55.28 C10.904,79.511 30.617,99.223 54.847,99.223 C79.076,99.223 98.789,79.511 98.789,55.28 C98.789,31.05 79.076,11.338 54.847,11.338 L54.847,11.338 Z" id="Fill-5" fill="#F9FFFF" sketch:type="MSShapeGroup"></path>
            </g>
        </g>
    </g>
</svg>