<?xml version="1.0" encoding="UTF-8" standalone="no"?>
<svg width="110px" height="110px" viewBox="0 0 110 110" version="1.1" xmlns="http://www.w3.org/2000/svg" xmlns:xlink="http://www.w3.org/1999/xlink" xmlns:sketch="http://www.bohemiancoding.com/sketch/ns">
    <!-- Generator: Sketch 3.4.1 (15681) - http://www.bohemiancoding.com/sketch -->
    <title>FeatureFuelMiles98@2x</title>
    <desc>Created with Sketch.</desc>
    <defs></defs>
    <g id="Fuel" stroke="none" stroke-width="1" fill="none" fill-rule="evenodd" sketch:type="MSPage">
        <g sketch:type="MSArtboardGroup" transform="translate(-490.000000, -40.000000)" id="FeatureFuelMiles98">
            <g sketch:type="MSLayerGroup" transform="translate(490.000000, 40.000000)">
                <path d="M55.43,109.09 C25.378,109.09 0.93,84.642 0.93,54.59 C0.93,24.538 25.378,0.09 55.43,0.09 C85.482,0.09 109.93,24.538 109.93,54.59 C109.93,84.642 85.482,109.09 55.43,109.09" id="Fill-1" fill="#01994E" sketch:type="MSShapeGroup"></path>
                <path d="M55.429,102.777 C28.859,102.777 7.243,81.161 7.243,54.591 C7.243,28.02 28.859,6.403 55.429,6.403 C82,6.403 103.617,28.02 103.617,54.591 C103.617,81.161 82,102.777 55.429,102.777 L55.429,102.777 Z M55.429,10.648 C31.2,10.648 11.488,30.36 11.488,54.591 C11.488,78.82 31.2,98.532 55.429,98.532 C79.66,98.532 99.372,78.82 99.372,54.591 C99.372,30.36 79.66,10.648 55.429,10.648 L55.429,10.648 Z" id="Fill-4" fill="#F9FFFF" sketch:type="MSShapeGroup"></path>
                <path d="M38.7675,66.287 C39.5775,67.13 40.5835,67.55 41.7825,67.55 C43.0455,67.55 44.0825,67.186 44.8935,66.457 C45.7025,65.727 46.3505,64.837 46.8375,63.783 C47.3235,62.73 47.6705,61.604 47.8815,60.405 C48.0935,59.207 48.2305,58.137 48.2955,57.198 L48.1985,57.099 C47.2575,58.46 46.1565,59.433 44.8935,60.016 C43.6285,60.599 42.1715,60.891 40.5185,60.891 C39.0605,60.891 37.6335,60.576 36.2405,59.943 C34.8475,59.312 33.6655,58.46 32.6925,57.391 C31.7845,56.355 31.1215,55.172 30.6995,53.843 C30.2785,52.515 30.0685,51.17 30.0685,49.809 C30.0685,48.058 30.3515,46.431 30.9185,44.923 C31.4845,43.417 32.2955,42.105 33.3485,40.987 C34.4015,39.869 35.6575,38.986 37.1155,38.338 C38.5745,37.69 40.1935,37.365 41.9765,37.365 C44.5685,37.365 46.6995,37.876 48.3685,38.896 C50.0375,39.917 51.3735,41.263 52.3785,42.931 C53.3825,44.6 54.0795,46.488 54.4685,48.593 C54.8565,50.7 55.0515,52.823 55.0515,54.962 C55.0515,57.068 54.8085,59.173 54.3225,61.281 C53.8375,63.386 53.0595,65.29 51.9895,66.991 C50.9205,68.692 49.5425,70.07 47.8585,71.123 C46.1725,72.176 44.1155,72.702 41.6845,72.702 C40.2265,72.702 38.8655,72.5 37.6015,72.096 C36.3385,71.691 35.2205,71.083 34.2485,70.272 C33.2755,69.463 32.4825,68.474 31.8655,67.308 C31.2515,66.14 30.8465,64.812 30.6515,63.321 L37.2135,63.321 C37.4395,64.456 37.9585,65.444 38.7675,66.287 L38.7675,66.287 Z M44.6015,55.18 C45.2815,54.84 45.8485,54.377 46.3025,53.794 C46.7555,53.211 47.0955,52.54 47.3235,51.777 C47.5505,51.017 47.6635,50.214 47.6635,49.371 C47.6635,48.593 47.5425,47.824 47.2985,47.062 C47.0555,46.301 46.6995,45.621 46.2295,45.021 C45.7595,44.422 45.1845,43.944 44.5035,43.587 C43.8235,43.231 43.0455,43.052 42.1715,43.052 C41.3605,43.052 40.6315,43.231 39.9835,43.587 C39.3355,43.944 38.7845,44.413 38.3315,44.997 C37.8765,45.58 37.5365,46.244 37.3105,46.989 C37.0835,47.735 36.9705,48.497 36.9705,49.275 C36.9705,50.084 37.0755,50.87 37.2865,51.632 C37.4965,52.393 37.8115,53.074 38.2345,53.673 C38.6545,54.274 39.1975,54.759 39.8625,55.132 C40.5255,55.505 41.2965,55.69 42.1715,55.69 C43.1105,55.69 43.9205,55.52 44.6015,55.18 L44.6015,55.18 Z" id="Fill-10" fill="#FFFFFF" sketch:type="MSShapeGroup"></path>
                <path d="M59.1835,42.614 C59.8645,41.448 60.7475,40.477 61.8335,39.699 C62.9185,38.921 64.1415,38.338 65.5025,37.948 C66.8635,37.56 68.2405,37.365 69.6345,37.365 C71.7405,37.365 73.5235,37.69 74.9815,38.338 C76.4385,38.986 77.6135,39.772 78.5045,40.695 C79.3955,41.618 80.0365,42.608 80.4255,43.66 C80.8135,44.713 81.0085,45.661 81.0085,46.504 C81.0085,48.188 80.5955,49.663 79.7685,50.927 C78.9425,52.19 77.7025,53.098 76.0505,53.649 L76.0505,53.746 C78.0915,54.2 79.6635,55.164 80.7645,56.638 C81.8665,58.114 82.4175,59.92 82.4175,62.057 C82.4175,63.873 82.0525,65.444 81.3245,66.773 C80.5955,68.102 79.6305,69.204 78.4325,70.078 C77.2335,70.953 75.8725,71.609 74.3495,72.046 C72.8255,72.484 71.2695,72.702 69.6835,72.702 C68.0305,72.702 66.4335,72.5 64.8955,72.096 C63.3565,71.691 61.9785,71.05 60.7645,70.175 C59.5485,69.3 58.5765,68.199 57.8475,66.87 C57.1175,65.542 56.7525,63.953 56.7525,62.107 C56.7525,59.936 57.3125,58.121 58.4305,56.663 C59.5485,55.204 61.1275,54.232 63.1695,53.746 L63.1695,53.649 C61.5175,53.196 60.2695,52.336 59.4265,51.072 C58.5835,49.809 58.1635,48.335 58.1635,46.649 C58.1635,45.126 58.5035,43.782 59.1835,42.614 L59.1835,42.614 Z M64.1415,64.148 C64.4655,64.861 64.8955,65.469 65.4305,65.97 C65.9655,66.473 66.6035,66.863 67.3495,67.137 C68.0945,67.413 68.8725,67.55 69.6835,67.55 C70.5245,67.55 71.2945,67.413 71.9925,67.137 C72.6885,66.863 73.3035,66.473 73.8385,65.97 C74.3735,65.469 74.7865,64.861 75.0775,64.148 C75.3695,63.435 75.5155,62.658 75.5155,61.815 C75.5155,61.006 75.3605,60.268 75.0545,59.603 C74.7465,58.94 74.3245,58.364 73.7895,57.877 C73.2555,57.391 72.6385,57.019 71.9425,56.76 C71.2465,56.501 70.4935,56.371 69.6835,56.371 C67.9975,56.371 66.5715,56.833 65.4055,57.756 C64.2395,58.68 63.6565,60.016 63.6565,61.766 C63.6565,62.642 63.8175,63.435 64.1415,64.148 L64.1415,64.148 Z M65.9885,50.611 C67.0245,51.372 68.2405,51.753 69.6345,51.753 C71.0925,51.753 72.3075,51.372 73.2805,50.611 C74.2515,49.849 74.7375,48.74 74.7375,47.281 C74.7375,46.827 74.6725,46.334 74.5435,45.799 C74.4135,45.265 74.1625,44.753 73.7895,44.267 C73.4165,43.782 72.8985,43.377 72.2355,43.052 C71.5705,42.729 70.7025,42.566 69.6345,42.566 C68.9535,42.566 68.2975,42.672 67.6655,42.882 C67.0345,43.094 66.4745,43.392 65.9885,43.782 C65.5025,44.17 65.1225,44.657 64.8475,45.24 C64.5705,45.823 64.4345,46.504 64.4345,47.281 C64.4345,48.74 64.9505,49.849 65.9885,50.611 L65.9885,50.611 Z" id="Fill-9" fill="#FFFFFF" sketch:type="MSShapeGroup"></path>
            </g>
        </g>
    </g>
</svg>