<?xml version="1.0" encoding="UTF-8" standalone="no"?>
<svg width="110px" height="110px" viewBox="0 0 110 110" version="1.1" xmlns="http://www.w3.org/2000/svg" xmlns:xlink="http://www.w3.org/1999/xlink" xmlns:sketch="http://www.bohemiancoding.com/sketch/ns">
    <!-- Generator: Sketch 3.4.1 (15681) - http://www.bohemiancoding.com/sketch -->
    <title>FeatureFuelMiles92@2x</title>
    <desc>Created with Sketch.</desc>
    <defs></defs>
    <g id="Fuel" stroke="none" stroke-width="1" fill="none" fill-rule="evenodd" sketch:type="MSPage">
        <g sketch:type="MSArtboardGroup" transform="translate(-40.000000, -40.000000)" id="FeatureFuelMiles92">
            <g sketch:type="MSLayerGroup" transform="translate(40.000000, 40.000000)">
                <path d="M54.86,109.18 C24.808,109.18 0.36,84.732 0.36,54.68 C0.36,24.628 24.808,0.18 54.86,0.18 C84.912,0.18 109.36,24.628 109.36,54.68 C109.36,84.732 84.912,109.18 54.86,109.18" id="Fill-1" fill="#01994E" sketch:type="MSShapeGroup"></path>
                <path d="M55.025,102.763 C28.455,102.763 6.838,81.147 6.838,54.576 C6.838,28.004 28.455,6.388 55.025,6.388 C81.596,6.388 103.213,28.004 103.213,54.576 C103.213,81.147 81.596,102.763 55.025,102.763 L55.025,102.763 Z M55.025,10.633 C30.795,10.633 11.083,30.345 11.083,54.576 C11.083,78.806 30.795,98.518 55.025,98.518 C79.255,98.518 98.968,78.806 98.968,54.576 C98.968,30.345 79.255,10.633 55.025,10.633 L55.025,10.633 Z" id="Fill-2" fill="#F9FFFF" sketch:type="MSShapeGroup"></path>
                <path d="M37.367,65.945 C38.176,66.787 39.18,67.206 40.376,67.206 C41.637,67.206 42.671,66.843 43.481,66.115 C44.289,65.387 44.936,64.499 45.421,63.447 C45.906,62.396 46.253,61.272 46.463,60.075 C46.675,58.879 46.811,57.812 46.876,56.874 L46.779,56.776 C45.84,58.135 44.741,59.106 43.481,59.687 C42.219,60.269 40.764,60.56 39.115,60.56 C37.66,60.56 36.235,60.246 34.845,59.614 C33.455,58.984 32.275,58.135 31.304,57.067 C30.398,56.033 29.736,54.853 29.315,53.526 C28.895,52.201 28.685,50.859 28.685,49.501 C28.685,47.753 28.968,46.129 29.533,44.624 C30.099,43.121 30.908,41.811 31.959,40.696 C33.01,39.58 34.263,38.699 35.718,38.052 C37.174,37.405 38.791,37.081 40.57,37.081 C43.157,37.081 45.283,37.591 46.949,38.609 C48.615,39.628 49.948,40.971 50.951,42.636 C51.953,44.302 52.648,46.185 53.037,48.287 C53.425,50.39 53.619,52.508 53.619,54.643 C53.619,56.745 53.377,58.846 52.891,60.949 C52.407,63.051 51.631,64.951 50.563,66.649 C49.496,68.346 48.121,69.721 46.44,70.772 C44.758,71.823 42.704,72.348 40.279,72.348 C38.824,72.348 37.465,72.147 36.204,71.743 C34.943,71.339 33.828,70.732 32.857,69.923 C31.886,69.116 31.094,68.128 30.479,66.965 C29.866,65.799 29.462,64.474 29.267,62.986 L35.816,62.986 C36.042,64.118 36.559,65.104 37.367,65.945 L37.367,65.945 Z M43.19,54.861 C43.868,54.522 44.434,54.06 44.887,53.478 C45.34,52.896 45.679,52.226 45.906,51.464 C46.133,50.706 46.246,49.905 46.246,49.063 C46.246,48.287 46.124,47.519 45.882,46.759 C45.639,45.999 45.283,45.321 44.814,44.722 C44.345,44.124 43.772,43.647 43.092,43.291 C42.413,42.935 41.637,42.757 40.764,42.757 C39.954,42.757 39.228,42.935 38.581,43.291 C37.934,43.647 37.384,44.116 36.932,44.697 C36.478,45.279 36.139,45.943 35.913,46.686 C35.686,47.431 35.573,48.191 35.573,48.967 C35.573,49.775 35.678,50.56 35.889,51.32 C36.099,52.079 36.413,52.759 36.835,53.356 C37.254,53.956 37.796,54.44 38.46,54.813 C39.122,55.185 39.891,55.37 40.764,55.37 C41.702,55.37 42.51,55.2 43.19,54.861 L43.19,54.861 Z" id="Fill-3" fill="#FFFFFF" sketch:type="MSShapeGroup"></path>
                <path d="M57.112,45.401 C57.63,43.736 58.406,42.28 59.441,41.035 C60.476,39.791 61.778,38.82 63.345,38.125 C64.915,37.43 66.717,37.081 68.755,37.081 C70.307,37.081 71.786,37.324 73.193,37.809 C74.601,38.295 75.838,38.99 76.904,39.896 C77.971,40.8 78.821,41.916 79.451,43.243 C80.083,44.569 80.397,46.056 80.397,47.705 C80.397,49.419 80.123,50.891 79.572,52.119 C79.022,53.349 78.295,54.44 77.389,55.395 C76.483,56.349 75.457,57.213 74.309,57.99 C73.161,58.766 72.006,59.534 70.841,60.294 C69.677,61.054 68.544,61.87 67.445,62.743 C66.345,63.616 65.375,64.635 64.534,65.799 L80.591,65.799 L80.591,71.718 L55.658,71.718 C55.658,69.746 55.94,68.032 56.506,66.576 C57.071,65.121 57.84,63.819 58.81,62.67 C59.781,61.523 60.92,60.464 62.23,59.493 C63.54,58.524 64.923,57.538 66.378,56.534 C67.121,56.018 67.914,55.491 68.755,54.957 C69.595,54.424 70.363,53.835 71.06,53.187 C71.755,52.54 72.337,51.813 72.806,51.004 C73.275,50.196 73.509,49.274 73.509,48.239 C73.509,46.59 73.032,45.304 72.078,44.382 C71.123,43.461 69.903,43 68.415,43 C67.412,43 66.564,43.234 65.869,43.703 C65.173,44.172 64.614,44.787 64.195,45.547 C63.774,46.307 63.475,47.148 63.297,48.069 C63.119,48.99 63.031,49.905 63.031,50.809 L56.434,50.809 C56.368,48.869 56.595,47.067 57.112,45.401" id="Fill-4" fill="#FFFFFF" sketch:type="MSShapeGroup"></path>
            </g>
        </g>
    </g>
</svg>