<?xml version="1.0" encoding="UTF-8" standalone="no"?>
<svg width="110px" height="110px" viewBox="0 0 110 110" version="1.1" xmlns="http://www.w3.org/2000/svg" xmlns:xlink="http://www.w3.org/1999/xlink" xmlns:sketch="http://www.bohemiancoding.com/sketch/ns">
    <!-- Generator: Sketch 3.4.1 (15681) - http://www.bohemiancoding.com/sketch -->
    <title>FeatureFuelED95@2x</title>
    <desc>Created with Sketch.</desc>
    <defs></defs>
    <g id="Fuel" stroke="none" stroke-width="1" fill="none" fill-rule="evenodd" sketch:type="MSPage">
        <g sketch:type="MSArtboardGroup" transform="translate(-340.000000, -910.000000)" id="FeatureFuelED95">
            <g sketch:type="MSLayerGroup" transform="translate(340.000000, 910.000000)">
                <path d="M54.898,109.982 C24.846,109.982 0.398,85.534 0.398,55.482 C0.398,25.431 24.846,0.982 54.898,0.982 C84.95,0.982 109.398,25.431 109.398,55.482 C109.398,85.534 84.95,109.982 54.898,109.982" id="Fill-1" fill="#FEE800" sketch:type="MSShapeGroup"></path>
                <path d="M54.898,103.67 C28.327,103.67 6.71,82.053 6.71,55.482 C6.71,28.911 28.327,7.295 54.898,7.295 C81.469,7.295 103.085,28.911 103.085,55.482 C103.085,82.053 81.469,103.67 54.898,103.67 L54.898,103.67 Z M54.898,11.54 C30.667,11.54 10.955,31.252 10.955,55.482 C10.955,79.713 30.667,99.425 54.898,99.425 C79.128,99.425 98.841,79.713 98.841,55.482 C98.841,31.252 79.128,11.54 54.898,11.54 L54.898,11.54 Z" id="Fill-2" fill="#444444" sketch:type="MSShapeGroup"></path>
                <text id="ED95" sketch:type="MSTextLayer" font-family="Helvetica Neue" font-size="27" font-weight="420" fill="#444444">
                    <tspan x="21" y="66">ED95</tspan>
                </text>
            </g>
        </g>
    </g>
</svg>