<?xml version="1.0" encoding="iso-8859-1"?>
<!-- Generator: Adobe Illustrator 18.1.1, SVG Export Plug-In . SVG Version: 6.00 Build 0)  -->
<svg version="1.1" id="Layer_1" xmlns="http://www.w3.org/2000/svg" xmlns:xlink="http://www.w3.org/1999/xlink" x="0px" y="0px"
	 viewBox="0 0 16.487 16.487" style="enable-background:new 0 0 16.487 16.487;" xml:space="preserve">
<path style="fill:#939598;" d="M8.265,0.256c-4.419,0-8,3.581-8,8c0,4.419,3.581,8,8,8c4.417,0,8-3.581,8-8
	C16.264,3.837,12.682,0.256,8.265,0.256z M9.011,3.144c0.78,0,1.009,0.452,1.009,0.97c0,0.646-0.517,1.243-1.399,1.243
	c-0.738,0-1.09-0.371-1.068-0.985C7.553,3.855,7.986,3.144,9.011,3.144z M7.013,13.047c-0.533,0-0.922-0.324-0.55-1.745l0.611-2.521
	c0.106-0.403,0.123-0.565,0-0.565c-0.159,0-0.852,0.278-1.26,0.553L5.548,8.333c1.296-1.082,2.786-1.717,3.423-1.717
	c0.533,0,0.622,0.63,0.356,1.6l-0.7,2.65c-0.124,0.468-0.071,0.63,0.053,0.63c0.16,0,0.683-0.193,1.198-0.599l0.302,0.405
	C8.92,12.562,7.546,13.047,7.013,13.047z"/>
</svg>
