<?xml version="1.0" encoding="utf-8"?>
<!-- Generator: Adobe Illustrator 19.1.0, SVG Export Plug-In . SVG Version: 6.00 Build 0)  -->
<!DOCTYPE svg PUBLIC "-//W3C//DTD SVG 1.1//EN" "http://www.w3.org/Graphics/SVG/1.1/DTD/svg11.dtd">
<svg version="1.1" id="Layer_1" xmlns="http://www.w3.org/2000/svg" xmlns:xlink="http://www.w3.org/1999/xlink" x="0px" y="0px"
	 viewBox="-311 365.5 569 111.4" style="enable-background:new -311 365.5 569 111.4;" xml:space="preserve">
<style type="text/css">
	.st0{clip-path:url(#SVGID_2_);}
	.st1{clip-path:url(#SVGID_4_);}
	.st2{fill:#535355;}
</style>
<g>
	<defs>
		<path id="SVGID_1_" d="M-260.2,394.1c0,8.8,6.9,16.7,11.5,21.3c0.5,0.5,1.3,1.4,2.3,2.6c0.1,0.1,0.2,0.3,0.3,0.4
			c2.2,3.3,3.6,7.2,3.6,11.4c0,11.2-9.3,20.2-20.7,20.2c-11.4,0-20.7-9.1-20.7-20.2c0-4.2,1.3-8.1,3.6-11.4c0.1-0.2,0.2-0.3,0.3-0.4
			c0.9-1.3,1.8-2.1,2.3-2.6c4.6-4.6,11.5-12.5,11.5-21.3v-28.6c-2.3,0-2.3,1-2.9,4.4c-0.8,4.3-3,11.5-16.4,18.5
			c-15.1,7.9-25.3,23.5-25.3,41.5c0,25.9,21.3,47,47.7,47c26.3,0,47.7-21,47.7-47c0-18-10.3-33.6-25.3-41.5
			c-13.4-7-15.6-14.2-16.4-18.5c-0.6-3.4-0.6-4.4-2.9-4.4V394.1z"/>
	</defs>
	<clipPath id="SVGID_2_">
		<use xlink:href="#SVGID_1_"  style="overflow:visible;"/>
	</clipPath>
	<g class="st0">
		<g>
			<defs>
				<rect id="SVGID_3_" x="-323.9" y="360.5" width="121.3" height="121.3"/>
			</defs>
			<clipPath id="SVGID_4_">
				<use xlink:href="#SVGID_3_"  style="overflow:visible;"/>
			</clipPath>
			<g class="st1">
				
					<image style="overflow:visible;enable-background:new    ;" width="595" height="600" xlink:href="4B60F68B8E1FAF94.jpeg"  transform="matrix(0.2039 0 0 0.2022 -323.9492 360.5422)">
				</image>
			</g>
		</g>
	</g>
</g>
<path class="st2" d="M-184.7,441.7c5.2,2.9,12.6,5.2,21.1,5.2c6.4,0,12.6-1.3,12.6-7.7c0-14.8-36.2-5.5-36.2-34.3
	c0-19.1,18-24.3,33.3-24.3c7.3,0,14.6,1.1,19.8,2.9l-1.3,16.4c-5.3-2.5-11.1-3.6-17-3.6c-5.1,0-13.7,0.5-13.7,7.4
	c0,12.9,36.2,4.2,36.2,32.8c0,20.6-16.7,26.1-33.6,26.1c-7.1,0-16-1.1-22.8-3.4L-184.7,441.7z"/>
<polygon class="st2" points="-104.7,397.5 -123.6,397.5 -123.6,381.9 -65.6,381.9 -65.6,397.5 -84.4,397.5 -84.4,461.2 
	-104.7,461.2 "/>
<polygon class="st2" points="26.6,397.5 7.7,397.5 7.7,381.9 65.9,381.9 65.9,397.5 47,397.5 47,461.2 26.6,461.2 "/>
<path class="st2" d="M-42.4,381.9h25l29.5,79.3h-22.4l-5.7-17h-28.6l-6.1,17h-20.7L-42.4,381.9z M-30,398.2h-0.2l-9.9,31h19.2
	L-30,398.2z"/>
<rect x="160.7" y="381.9" class="st2" width="20.4" height="79.3"/>
<path class="st2" d="M107.7,380.6c25.2,0,38.4,15.5,38.4,40.9c0,25.2-13.3,41-38.4,41c-25,0-38.4-15.8-38.4-41
	C69.3,396.1,82.5,380.6,107.7,380.6 M107.7,446.8c12.4,0,17.3-12.2,17.3-25.3c0-13.7-4.9-25.3-17.3-25.3
	c-12.4,0-17.3,11.6-17.3,25.3C90.4,434.6,95.4,446.8,107.7,446.8"/>
<polygon class="st2" points="199.5,381.9 219.9,381.9 219.9,445.5 251.5,445.5 251.5,461.2 199.5,461.2 "/>
</svg>
