<?xml version="1.0" encoding="utf-8"?>
<!-- Generator: Adobe Illustrator 19.1.0, SVG Export Plug-In . SVG Version: 6.00 Build 0)  -->
<svg version="1.1" id="Layer_1" xmlns="http://www.w3.org/2000/svg" xmlns:xlink="http://www.w3.org/1999/xlink" x="0px" y="0px"
	 viewBox="-124.75 -124.75 148.75 148.75" enable-background="new -124.75 -124.75 148.75 148.75" xml:space="preserve">
<g id="Filled_Version">
	<g>
		<path fill="#015293" d="M18.568-55.071l-49.576-49.583c-3.228-3.232-8.576-3.032-11.804,0.2c-3.232,3.232-4.403,9.218-1.171,12.45
			l35.476,34.477l-88,0.035c-4.572,0-8.264,4.701-8.264,9.264c0,4.568,3.692,9.264,8.264,9.264l88.586,0.037L-43.518-4.058
			c-3.107,3.38-3.024,9.104,0.345,12.421c3.061,3.013,9.288,2.712,12.165-0.165l49.576-49.575
			C21.804-44.617,21.764-51.871,18.568-55.071z"/>
	</g>
</g>
<g id="Outline_Version" display="none">
	<g display="inline">
		
			<line fill="none" stroke="#000000" stroke-linecap="round" stroke-linejoin="round" stroke-miterlimit="10" x1="0.513" y1="12.5" x2="19.514" y2="12.5"/>
		<polyline fill="none" stroke="#000000" stroke-linecap="round" stroke-linejoin="round" stroke-miterlimit="10" points="
			13.514,18.5 19.514,12.5 13.514,6.5 		"/>
		
			<line fill="none" stroke="#000000" stroke-linecap="round" stroke-linejoin="round" stroke-miterlimit="10" x1="23.514" y1="6.5" x2="23.514" y2="18.5"/>
	</g>
</g>
</svg>
