<?xml version="1.0" encoding="UTF-8" standalone="no"?>
<svg width="110px" height="110px" viewBox="0 0 110 110" version="1.1" xmlns="http://www.w3.org/2000/svg" xmlns:xlink="http://www.w3.org/1999/xlink" xmlns:sketch="http://www.bohemiancoding.com/sketch/ns">
    <!-- Generator: Sketch 3.4.1 (15681) - http://www.bohemiancoding.com/sketch -->
    <title>FeatureFuelB100@2x</title>
    <desc>Created with Sketch.</desc>
    <defs></defs>
    <g id="Fuel" stroke="none" stroke-width="1" fill="none" fill-rule="evenodd" sketch:type="MSPage">
        <g sketch:type="MSArtboardGroup" transform="translate(-190.000000, -910.000000)" id="FeatureFuelB100">
            <g sketch:type="MSLayerGroup" transform="translate(190.000000, 910.000000)">
                <path d="M54.898,109.982 C24.846,109.982 0.398,85.534 0.398,55.482 C0.398,25.431 24.846,0.982 54.898,0.982 C84.95,0.982 109.398,25.431 109.398,55.482 C109.398,85.534 84.95,109.982 54.898,109.982" id="Fill-1" fill="#FEE800" sketch:type="MSShapeGroup"></path>
                <path d="M54.898,103.67 C28.327,103.67 6.71,82.053 6.71,55.482 C6.71,28.911 28.327,7.295 54.898,7.295 C81.469,7.295 103.085,28.911 103.085,55.482 C103.085,82.053 81.469,103.67 54.898,103.67 L54.898,103.67 Z M54.898,11.54 C30.667,11.54 10.955,31.252 10.955,55.482 C10.955,79.713 30.667,99.425 54.898,99.425 C79.128,99.425 98.841,79.713 98.841,55.482 C98.841,31.252 79.128,11.54 54.898,11.54 L54.898,11.54 Z" id="Fill-2" fill="#444444" sketch:type="MSShapeGroup"></path>
                <path d="M33.63,47.294 C34.529,47.294 35.349,47.373 36.088,47.531 C36.828,47.689 37.462,47.951 37.99,48.31 C38.518,48.672 38.927,49.151 39.219,49.75 C39.508,50.35 39.654,51.089 39.654,51.97 C39.654,52.921 39.438,53.713 39.006,54.348 C38.574,54.982 37.937,55.501 37.091,55.907 C38.253,56.24 39.122,56.826 39.694,57.663 C40.266,58.499 40.552,59.508 40.552,60.687 C40.552,61.639 40.368,62.462 39.998,63.159 C39.628,63.854 39.129,64.422 38.504,64.861 C37.88,65.302 37.167,65.628 36.365,65.839 C35.563,66.051 34.74,66.156 33.895,66.156 L24.755,66.156 L24.755,47.294 L33.63,47.294 L33.63,47.294 Z M33.102,54.929 C33.843,54.929 34.45,54.753 34.926,54.401 C35.401,54.048 35.638,53.476 35.638,52.682 C35.638,52.244 35.559,51.882 35.401,51.6 C35.242,51.319 35.031,51.098 34.766,50.94 C34.503,50.78 34.199,50.671 33.855,50.61 C33.513,50.548 33.155,50.517 32.786,50.517 L28.902,50.517 L28.902,54.929 L33.102,54.929 L33.102,54.929 Z M33.341,62.934 C33.744,62.934 34.132,62.894 34.503,62.815 C34.873,62.736 35.198,62.602 35.48,62.418 C35.761,62.234 35.986,61.983 36.154,61.665 C36.321,61.347 36.405,60.944 36.405,60.451 C36.405,59.482 36.131,58.79 35.586,58.376 C35.04,57.962 34.318,57.755 33.42,57.755 L28.902,57.755 L28.902,62.934 L33.341,62.934 L33.341,62.934 Z" id="Fill-3" fill="#444444" sketch:type="MSShapeGroup"></path>
                <path d="M48.135,66.156 L48.135,54.162 L43.485,54.162 L43.485,51.336 C44.136,51.354 44.766,51.305 45.374,51.191 C45.981,51.076 46.527,50.873 47.011,50.583 C47.496,50.292 47.906,49.909 48.24,49.434 C48.575,48.958 48.794,48.368 48.902,47.663 L51.887,47.663 L51.887,66.156 L48.135,66.156" id="Fill-4" fill="#444444" sketch:type="MSShapeGroup"></path>
                <path d="M57.316,61.467 C56.954,60.226 56.773,58.68 56.773,56.83 C56.773,55.034 56.954,53.525 57.316,52.3 C57.675,51.076 58.165,50.094 58.781,49.355 C59.397,48.614 60.115,48.086 60.935,47.77 C61.752,47.452 62.621,47.294 63.537,47.294 C64.469,47.294 65.347,47.452 66.165,47.77 C66.984,48.086 67.706,48.614 68.332,49.355 C68.957,50.094 69.45,51.076 69.81,52.3 C70.172,53.525 70.352,55.034 70.352,56.83 C70.352,58.68 70.172,60.226 69.81,61.467 C69.45,62.709 68.957,63.699 68.332,64.44 C67.706,65.179 66.984,65.707 66.165,66.025 C65.347,66.341 64.469,66.5 63.537,66.5 C62.621,66.5 61.752,66.341 60.935,66.025 C60.115,65.707 59.397,65.179 58.781,64.44 C58.165,63.699 57.675,62.709 57.316,61.467 M60.578,58.746 C60.613,59.494 60.722,60.217 60.908,60.912 C61.093,61.609 61.387,62.202 61.793,62.695 C62.198,63.188 62.779,63.436 63.537,63.436 C64.311,63.436 64.906,63.188 65.321,62.695 C65.733,62.202 66.033,61.609 66.217,60.912 C66.403,60.217 66.512,59.494 66.549,58.746 C66.582,57.997 66.602,57.36 66.602,56.83 C66.602,56.514 66.597,56.131 66.588,55.682 C66.579,55.233 66.544,54.769 66.482,54.294 C66.421,53.82 66.331,53.348 66.217,52.881 C66.103,52.414 65.931,51.996 65.703,51.626 C65.473,51.256 65.184,50.957 64.831,50.727 C64.478,50.499 64.046,50.385 63.537,50.385 C63.025,50.385 62.598,50.499 62.254,50.727 C61.912,50.957 61.63,51.256 61.41,51.626 C61.189,51.996 61.017,52.414 60.894,52.881 C60.771,53.348 60.684,53.82 60.631,54.294 C60.578,54.769 60.547,55.233 60.538,55.682 C60.529,56.131 60.526,56.514 60.526,56.83 C60.526,57.36 60.541,57.997 60.578,58.746" id="Fill-5" fill="#444444" sketch:type="MSShapeGroup"></path>
                <path d="M72.004,52.3 C72.364,51.076 72.853,50.094 73.47,49.355 C74.086,48.614 74.803,48.086 75.623,47.77 C76.441,47.452 77.31,47.294 78.226,47.294 C79.158,47.294 80.035,47.452 80.853,47.77 C81.673,48.086 82.394,48.614 83.021,49.355 C83.646,50.094 84.139,51.076 84.499,52.3 C84.86,53.525 85.041,55.034 85.041,56.83 C85.041,58.68 84.86,60.226 84.499,61.467 C84.139,62.709 83.646,63.699 83.021,64.44 C82.394,65.179 81.673,65.707 80.853,66.025 C80.035,66.341 79.158,66.5 78.226,66.5 C77.31,66.5 76.441,66.341 75.623,66.025 C74.803,65.707 74.086,65.179 73.47,64.44 C72.853,63.699 72.364,62.709 72.004,61.467 C71.643,60.226 71.462,58.68 71.462,56.83 C71.462,55.034 71.643,53.525 72.004,52.3 L72.004,52.3 Z M75.267,58.746 C75.302,59.494 75.411,60.217 75.597,60.912 C75.781,61.609 76.076,62.202 76.481,62.695 C76.887,63.188 77.468,63.436 78.226,63.436 C79,63.436 79.595,63.188 80.009,62.695 C80.422,62.202 80.722,61.609 80.906,60.912 C81.092,60.217 81.201,59.494 81.238,58.746 C81.271,57.997 81.29,57.36 81.29,56.83 C81.29,56.514 81.285,56.131 81.276,55.682 C81.267,55.233 81.232,54.769 81.171,54.294 C81.11,53.82 81.02,53.348 80.906,52.881 C80.792,52.414 80.62,51.996 80.392,51.626 C80.162,51.256 79.872,50.957 79.519,50.727 C79.167,50.499 78.735,50.385 78.226,50.385 C77.713,50.385 77.287,50.499 76.943,50.727 C76.601,50.957 76.318,51.256 76.099,51.626 C75.878,51.996 75.706,52.414 75.583,52.881 C75.46,53.348 75.372,53.82 75.319,54.294 C75.267,54.769 75.235,55.233 75.226,55.682 C75.218,56.131 75.214,56.514 75.214,56.83 C75.214,57.36 75.23,57.997 75.267,58.746 L75.267,58.746 Z" id="Fill-6" fill="#444444" sketch:type="MSShapeGroup"></path>
            </g>
        </g>
    </g>
</svg>