<?xml version="1.0" encoding="UTF-8" standalone="no"?>
<svg width="110px" height="110px" viewBox="0 0 110 110" version="1.1" xmlns="http://www.w3.org/2000/svg" xmlns:xlink="http://www.w3.org/1999/xlink" xmlns:sketch="http://www.bohemiancoding.com/sketch/ns">
    <!-- Generator: Sketch 3.4.1 (15681) - http://www.bohemiancoding.com/sketch -->
    <title>FeatureFuelE85@2x</title>
    <desc>Created with Sketch.</desc>
    <defs></defs>
    <g id="Fuel" stroke="none" stroke-width="1" fill="none" fill-rule="evenodd" sketch:type="MSPage">
        <g sketch:type="MSArtboardGroup" transform="translate(-40.000000, -910.000000)" id="FeatureFuelE85">
            <g sketch:type="MSLayerGroup" transform="translate(40.000000, 910.000000)">
                <path d="M54.949,109.982 C24.897,109.982 0.449,85.534 0.449,55.482 C0.449,25.431 24.897,0.982 54.949,0.982 C85.001,0.982 109.449,25.431 109.449,55.482 C109.449,85.534 85.001,109.982 54.949,109.982" id="Fill-1" fill="#00BCE9" sketch:type="MSShapeGroup"></path>
                <path d="M54.949,103.67 C28.379,103.67 6.762,82.053 6.762,55.482 C6.762,28.911 28.379,7.295 54.949,7.295 C81.52,7.295 103.137,28.911 103.137,55.482 C103.137,82.053 81.52,103.67 54.949,103.67 L54.949,103.67 Z M54.949,11.54 C30.719,11.54 11.006,31.252 11.006,55.482 C11.006,79.713 30.719,99.425 54.949,99.425 C79.18,99.425 98.892,79.713 98.892,55.482 C98.892,31.252 79.18,11.54 54.949,11.54 L54.949,11.54 Z" id="Fill-2" fill="#F9FFFF" sketch:type="MSShapeGroup"></path>
                <path d="M44.142,42.495 L44.142,47.211 L30.673,47.211 L30.673,52.677 L43.035,52.677 L43.035,57.035 L30.673,57.035 L30.673,63.288 L44.428,63.288 L44.428,68.004 L25.064,68.004 L25.064,42.495 L44.142,42.495" id="Fill-3" fill="#FFFFFF" sketch:type="MSShapeGroup"></path>
                <path d="M48.036,46.353 C48.536,45.496 49.184,44.782 49.983,44.21 C50.78,43.638 51.68,43.209 52.68,42.923 C53.68,42.637 54.692,42.495 55.717,42.495 C57.265,42.495 58.575,42.733 59.647,43.209 C60.719,43.686 61.581,44.264 62.236,44.942 C62.891,45.621 63.362,46.347 63.648,47.121 C63.935,47.896 64.077,48.593 64.077,49.212 C64.077,50.45 63.773,51.533 63.166,52.463 C62.558,53.392 61.648,54.059 60.433,54.464 L60.433,54.534 C61.934,54.869 63.089,55.578 63.899,56.661 C64.708,57.744 65.113,59.072 65.113,60.644 C65.113,61.978 64.845,63.133 64.309,64.11 C63.773,65.087 63.064,65.896 62.184,66.539 C61.302,67.182 60.302,67.664 59.183,67.986 C58.062,68.308 56.919,68.468 55.753,68.468 C54.539,68.468 53.364,68.319 52.234,68.022 C51.102,67.725 50.089,67.253 49.197,66.611 C48.304,65.967 47.59,65.157 47.054,64.18 C46.518,63.205 46.249,62.037 46.249,60.68 C46.249,59.084 46.66,57.75 47.482,56.679 C48.304,55.607 49.465,54.892 50.965,54.534 L50.965,54.464 C49.751,54.13 48.833,53.499 48.214,52.57 C47.595,51.641 47.286,50.558 47.286,49.318 C47.286,48.199 47.536,47.211 48.036,46.353 L48.036,46.353 Z M51.68,62.18 C51.917,62.705 52.234,63.151 52.626,63.52 C53.02,63.89 53.49,64.175 54.038,64.378 C54.585,64.58 55.158,64.681 55.753,64.681 C56.372,64.681 56.937,64.58 57.45,64.378 C57.961,64.175 58.414,63.89 58.807,63.52 C59.201,63.151 59.505,62.705 59.719,62.18 C59.933,61.657 60.039,61.085 60.039,60.465 C60.039,59.871 59.926,59.328 59.701,58.84 C59.474,58.352 59.165,57.929 58.771,57.571 C58.378,57.215 57.925,56.941 57.414,56.749 C56.901,56.56 56.347,56.465 55.753,56.465 C54.514,56.465 53.466,56.803 52.608,57.482 C51.752,58.161 51.323,59.144 51.323,60.43 C51.323,61.073 51.442,61.657 51.68,62.18 L51.68,62.18 Z M53.038,52.231 C53.799,52.791 54.692,53.07 55.717,53.07 C56.788,53.07 57.682,52.791 58.396,52.231 C59.111,51.671 59.469,50.855 59.469,49.784 C59.469,49.45 59.42,49.086 59.325,48.694 C59.23,48.3 59.044,47.925 58.771,47.567 C58.497,47.211 58.116,46.914 57.628,46.675 C57.14,46.437 56.503,46.317 55.717,46.317 C55.217,46.317 54.735,46.396 54.27,46.55 C53.805,46.705 53.394,46.925 53.038,47.211 C52.68,47.497 52.4,47.853 52.198,48.283 C51.995,48.712 51.894,49.212 51.894,49.784 C51.894,50.855 52.275,51.671 53.038,52.231 L53.038,52.231 Z" id="Fill-4" fill="#FFFFFF" sketch:type="MSShapeGroup"></path>
                <path d="M73.152,47.175 L72.152,52.856 L72.222,52.927 C72.913,52.236 73.652,51.743 74.437,51.445 C75.223,51.146 76.117,50.998 77.118,50.998 C78.356,50.998 79.452,51.225 80.404,51.677 C81.357,52.13 82.16,52.737 82.816,53.499 C83.47,54.261 83.97,55.16 84.317,56.197 C84.661,57.231 84.834,58.334 84.834,59.5 C84.834,60.787 84.583,61.983 84.083,63.092 C83.584,64.198 82.91,65.157 82.066,65.967 C81.22,66.777 80.238,67.403 79.119,67.843 C77.998,68.283 76.807,68.491 75.545,68.468 C74.331,68.468 73.17,68.308 72.062,67.986 C70.954,67.664 69.971,67.17 69.115,66.503 C68.257,65.837 67.573,65.009 67.06,64.02 C66.547,63.032 66.279,61.882 66.256,60.573 L71.33,60.573 C71.448,61.715 71.877,62.627 72.616,63.306 C73.354,63.984 74.295,64.324 75.438,64.324 C76.105,64.324 76.706,64.187 77.242,63.914 C77.778,63.64 78.23,63.282 78.601,62.841 C78.969,62.401 79.254,61.889 79.457,61.305 C79.659,60.722 79.761,60.121 79.761,59.5 C79.761,58.858 79.666,58.25 79.475,57.679 C79.284,57.107 78.998,56.607 78.619,56.179 C78.237,55.749 77.784,55.416 77.26,55.178 C76.736,54.941 76.128,54.82 75.438,54.82 C74.533,54.82 73.795,54.982 73.223,55.303 C72.652,55.624 72.116,56.13 71.616,56.821 L67.042,56.821 L69.507,42.995 L83.477,42.995 L83.477,47.175 L73.152,47.175" id="Fill-5" fill="#FFFFFF" sketch:type="MSShapeGroup"></path>
            </g>
        </g>
    </g>
</svg>