<?xml version="1.0" encoding="UTF-8" standalone="no"?>
<svg width="110px" height="110px" viewBox="0 0 110 110" version="1.1" xmlns="http://www.w3.org/2000/svg" xmlns:xlink="http://www.w3.org/1999/xlink" xmlns:sketch="http://www.bohemiancoding.com/sketch/ns">
    <!-- Generator: Sketch 3.4.1 (15681) - http://www.bohemiancoding.com/sketch -->
    <title>FeatureFuelAdBlue@2x</title>
    <desc>Created with Sketch.</desc>
    <defs></defs>
    <g id="Fuel" stroke="none" stroke-width="1" fill="none" fill-rule="evenodd" sketch:type="MSPage">
        <g sketch:type="MSArtboardGroup" transform="translate(-340.000000, -760.000000)" id="FeatureFuelAdBlue">
            <g sketch:type="MSLayerGroup" transform="translate(340.000000, 760.000000)">
                <path d="M55,109.976 C24.948,109.976 0.5,85.528 0.5,55.476 C0.5,25.424 24.948,0.976 55,0.976 C85.052,0.976 109.5,25.424 109.5,55.476 C109.5,85.528 85.052,109.976 55,109.976" id="Fill-1" fill="#0D2C6C" sketch:type="MSShapeGroup"></path>
                <path d="M49.078,33.016 L55.585,50.418 L51.613,50.418 L50.297,46.542 L43.789,46.542 L42.425,50.418 L38.574,50.418 L45.154,33.016 L49.078,33.016 L49.078,33.016 Z M49.298,43.691 L47.104,37.306 L47.055,37.306 L44.789,43.691 L49.298,43.691 L49.298,43.691 Z" id="Fill-2" fill="#FFFFFF" sketch:type="MSShapeGroup"></path>
                <path d="M65.674,48.809 C65.269,49.492 64.736,49.983 64.078,50.284 C63.421,50.584 62.677,50.734 61.848,50.734 C60.906,50.734 60.077,50.551 59.363,50.186 C58.647,49.82 58.058,49.325 57.596,48.699 C57.133,48.075 56.782,47.356 56.548,46.542 C56.312,45.73 56.194,44.886 56.194,44.008 C56.194,43.164 56.312,42.347 56.548,41.558 C56.782,40.771 57.133,40.076 57.596,39.475 C58.058,38.874 58.639,38.39 59.338,38.024 C60.037,37.659 60.849,37.476 61.775,37.476 C62.522,37.476 63.234,37.635 63.907,37.951 C64.583,38.268 65.114,38.736 65.505,39.353 L65.553,39.353 L65.553,33.016 L69.014,33.016 L69.014,50.418 L65.724,50.418 L65.724,48.809 L65.674,48.809 L65.674,48.809 Z M65.528,42.582 C65.432,42.103 65.264,41.681 65.03,41.315 C64.794,40.95 64.488,40.653 64.115,40.425 C63.741,40.198 63.271,40.083 62.701,40.083 C62.133,40.083 61.653,40.198 61.263,40.425 C60.873,40.653 60.56,40.953 60.325,41.327 C60.089,41.701 59.919,42.128 59.813,42.606 C59.708,43.086 59.655,43.586 59.655,44.105 C59.655,44.592 59.712,45.08 59.825,45.567 C59.939,46.055 60.122,46.49 60.374,46.872 C60.625,47.253 60.943,47.562 61.325,47.798 C61.706,48.033 62.165,48.151 62.701,48.151 C63.271,48.151 63.746,48.037 64.128,47.809 C64.508,47.583 64.814,47.278 65.041,46.896 C65.269,46.514 65.432,46.08 65.528,45.592 C65.626,45.105 65.674,44.601 65.674,44.081 C65.674,43.561 65.626,43.061 65.528,42.582 L65.528,42.582 Z" id="Fill-3" fill="#FFFFFF" sketch:type="MSShapeGroup"></path>
                <path d="M38.44,57.388 C39.269,57.388 40.025,57.461 40.707,57.608 C41.39,57.754 41.974,57.993 42.462,58.327 C42.949,58.659 43.328,59.103 43.595,59.654 C43.864,60.207 43.997,60.89 43.997,61.702 C43.997,62.579 43.798,63.311 43.401,63.895 C43.002,64.48 42.413,64.96 41.634,65.334 C42.705,65.642 43.506,66.183 44.034,66.954 C44.562,67.726 44.826,68.656 44.826,69.745 C44.826,70.622 44.656,71.382 44.314,72.023 C43.974,72.666 43.514,73.189 42.937,73.596 C42.361,74.002 41.702,74.302 40.963,74.498 C40.224,74.692 39.465,74.79 38.684,74.79 L30.252,74.79 L30.252,57.388 L38.44,57.388 L38.44,57.388 Z M37.953,64.432 C38.636,64.432 39.196,64.269 39.634,63.944 C40.074,63.62 40.293,63.091 40.293,62.359 C40.293,61.954 40.22,61.62 40.074,61.361 C39.928,61.101 39.732,60.898 39.488,60.751 C39.245,60.605 38.965,60.504 38.648,60.446 C38.331,60.39 38.002,60.361 37.661,60.361 L34.079,60.361 L34.079,64.432 L37.953,64.432 L37.953,64.432 Z M38.173,71.816 C38.546,71.816 38.904,71.779 39.245,71.706 C39.586,71.633 39.887,71.512 40.147,71.341 C40.406,71.17 40.614,70.939 40.768,70.646 C40.923,70.354 41,69.981 41,69.525 C41,68.632 40.747,67.994 40.244,67.612 C39.74,67.23 39.074,67.039 38.246,67.039 L34.079,67.039 L34.079,71.816 L38.173,71.816 L38.173,71.816 Z" id="Fill-4" fill="#FFFFFF" sketch:type="MSShapeGroup"></path>
                <path d="M47.141,57.388 L50.602,57.388 L50.602,74.79 L47.141,74.79 L47.141,57.388 Z" id="Fill-5" fill="#FFFFFF" sketch:type="MSShapeGroup"></path>
                <path d="M61.862,74.79 L61.862,73.035 L61.789,73.035 C61.35,73.766 60.781,74.294 60.083,74.619 C59.384,74.943 58.668,75.106 57.937,75.106 C57.012,75.106 56.252,74.985 55.659,74.741 C55.066,74.498 54.599,74.152 54.257,73.705 C53.916,73.259 53.677,72.714 53.538,72.072 C53.4,71.431 53.332,70.72 53.332,69.939 L53.332,62.19 L56.793,62.19 L56.793,69.306 C56.793,70.346 56.954,71.122 57.28,71.633 C57.605,72.145 58.181,72.401 59.01,72.401 C59.952,72.401 60.634,72.121 61.058,71.56 C61.48,71 61.691,70.077 61.691,68.795 L61.691,62.19 L65.152,62.19 L65.152,74.79 L61.862,74.79" id="Fill-6" fill="#FFFFFF" sketch:type="MSShapeGroup"></path>
                <path d="M71.49,71.768 C72.008,72.271 72.757,72.523 73.732,72.523 C74.43,72.523 75.031,72.349 75.534,71.999 C76.039,71.65 76.347,71.28 76.461,70.89 L79.508,70.89 C79.02,72.401 78.273,73.482 77.266,74.131 C76.258,74.782 75.039,75.106 73.609,75.106 C72.619,75.106 71.724,74.948 70.929,74.631 C70.133,74.314 69.458,73.864 68.906,73.279 C68.353,72.694 67.927,71.995 67.627,71.183 C67.326,70.371 67.175,69.477 67.175,68.502 C67.175,67.559 67.33,66.682 67.638,65.87 C67.947,65.057 68.386,64.354 68.954,63.761 C69.523,63.168 70.201,62.701 70.99,62.359 C71.777,62.019 72.651,61.848 73.609,61.848 C74.682,61.848 75.617,62.055 76.412,62.469 C77.208,62.884 77.862,63.441 78.374,64.139 C78.886,64.837 79.256,65.634 79.483,66.528 C79.711,67.421 79.792,68.355 79.727,69.33 L70.636,69.33 C70.685,70.451 70.97,71.264 71.49,71.768 L71.49,71.768 Z M75.401,65.138 C74.986,64.683 74.356,64.455 73.511,64.455 C72.96,64.455 72.501,64.55 72.136,64.736 C71.769,64.923 71.477,65.155 71.257,65.43 C71.038,65.707 70.884,66 70.794,66.308 C70.706,66.617 70.652,66.893 70.636,67.137 L76.266,67.137 C76.103,66.259 75.815,65.593 75.401,65.138 L75.401,65.138 Z" id="Fill-7" fill="#FFFFFF" sketch:type="MSShapeGroup"></path>
                <path d="M55,103.664 C28.429,103.664 6.813,82.048 6.813,55.476 C6.813,28.905 28.429,7.289 55,7.289 C81.57,7.289 103.187,28.905 103.187,55.476 C103.187,82.048 81.57,103.664 55,103.664 L55,103.664 Z M55,11.534 C30.77,11.534 11.058,31.246 11.058,55.476 C11.058,79.707 30.77,99.419 55,99.419 C79.23,99.419 98.942,79.707 98.942,55.476 C98.942,31.246 79.23,11.534 55,11.534 L55,11.534 Z" id="Fill-8" fill="#F9FFFF" sketch:type="MSShapeGroup"></path>
            </g>
        </g>
    </g>
</svg>