<?xml version="1.0" encoding="UTF-8" standalone="no"?>
<svg width="110px" height="110px" viewBox="0 0 110 110" version="1.1" xmlns="http://www.w3.org/2000/svg" xmlns:xlink="http://www.w3.org/1999/xlink" xmlns:sketch="http://www.bohemiancoding.com/sketch/ns">
    <!-- Generator: Sketch 3.4.1 (15681) - http://www.bohemiancoding.com/sketch -->
    <title>FeatureFuelMilesPlus95@2x</title>
    <desc>Created with Sketch.</desc>
    <defs>
        <linearGradient x1="49.3611283%" y1="31.6588468%" x2="50%" y2="69.23081%" id="linearGradient-1">
            <stop stop-color="#1691C1" offset="0%"></stop>
            <stop stop-color="#01994E" offset="100%"></stop>
        </linearGradient>
        <path d="M55.46,0.114 C25.409,0.114 0.96,24.562 0.96,54.614 C0.96,84.666 25.409,109.114 55.46,109.114 C85.512,109.114 109.96,84.666 109.96,54.614 C109.96,24.562 85.512,0.114 55.46,0.114 L55.46,0.114 Z M55.46,102.801 C28.889,102.801 7.272,81.184 7.272,54.614 C7.272,28.043 28.889,6.427 55.46,6.427 C82.031,6.427 103.647,28.043 103.647,54.614 C103.647,81.184 82.031,102.801 55.46,102.801 L55.46,102.801 Z" id="path-2"></path>
        <linearGradient x1="50%" y1="27.6318813%" x2="50%" y2="73.7297386%" id="linearGradient-4">
            <stop stop-color="#1691C1" offset="0%"></stop>
            <stop stop-color="#01994E" offset="100%"></stop>
        </linearGradient>
        <path id="path-5" d="M44.46,0.672 C20.229,0.672 0.517,20.384 0.517,44.614 C0.517,68.844 20.229,88.556 44.46,88.556 C68.69,88.556 88.403,68.844 88.403,44.614 C88.403,20.384 68.69,0.672 44.46,0.672"></path>
    </defs>
    <g id="Fuel" stroke="none" stroke-width="1" fill="none" fill-rule="evenodd" sketch:type="MSPage">
        <g sketch:type="MSArtboardGroup" transform="translate(-190.000000, -400.000000)" id="FeatureFuelMilesPlus95">
            <g sketch:type="MSLayerGroup" transform="translate(190.000000, 400.000000)">
                <g id="Group-3">
                    <mask id="mask-3" sketch:name="Clip 2" fill="white">
                        <use xlink:href="#path-2"></use>
                    </mask>
                    <use id="Clip-2" fill="url(#linearGradient-1)" sketch:type="MSShapeGroup" xlink:href="#path-2"></use>
                    <path d="M55.46,0.114 C25.409,0.114 0.96,24.562 0.96,54.614 C0.96,84.666 25.409,109.114 55.46,109.114 C85.512,109.114 109.96,84.666 109.96,54.614 C109.96,24.562 85.512,0.114 55.46,0.114 L55.46,0.114 Z M55.46,102.801 C28.889,102.801 7.272,81.184 7.272,54.614 C7.272,28.043 28.889,6.427 55.46,6.427 C82.031,6.427 103.647,28.043 103.647,54.614 C103.647,81.184 82.031,102.801 55.46,102.801 L55.46,102.801 Z" id="Fill-1" sketch:type="MSShapeGroup" mask="url(#mask-3)"></path>
                </g>
                <g id="Group-6" transform="translate(11.000000, 10.000000)">
                    <mask id="mask-6" sketch:name="Clip 5" fill="white">
                        <use xlink:href="#path-5"></use>
                    </mask>
                    <use id="Clip-5" fill="url(#linearGradient-4)" sketch:type="MSShapeGroup" xlink:href="#path-5"></use>
                    <path d="M0.517,44.614 C0.517,68.844 20.229,88.556 44.46,88.556 C68.69,88.556 88.403,68.844 88.403,44.614 C88.403,20.384 68.69,0.672 44.46,0.672 C20.229,0.672 0.517,20.384 0.517,44.614 Z" id="Fill-4" sketch:type="MSShapeGroup" mask="url(#mask-6)"></path>
                </g>
                <g id="Imported-Layers" transform="translate(28.000000, 36.000000)" fill="#FFFFFF" sketch:type="MSShapeGroup">
                    <path d="M9.643,29.994 C10.463,30.849 11.483,31.276 12.698,31.276 C13.98,31.276 15.031,30.906 15.853,30.166 C16.673,29.427 17.331,28.524 17.823,27.456 C18.317,26.388 18.669,25.247 18.883,24.031 C19.097,22.816 19.236,21.731 19.302,20.778 L19.204,20.68 C18.25,22.059 17.133,23.045 15.853,23.636 C14.572,24.228 13.093,24.524 11.417,24.524 C9.938,24.524 8.492,24.203 7.08,23.563 C5.667,22.922 4.468,22.059 3.483,20.975 C2.563,19.924 1.889,18.725 1.462,17.378 C1.035,16.031 0.821,14.667 0.821,13.287 C0.821,11.513 1.109,9.862 1.683,8.334 C2.259,6.806 3.08,5.476 4.148,4.343 C5.215,3.209 6.488,2.314 7.967,1.656 C9.446,1 11.088,0.671 12.896,0.671 C15.523,0.671 17.684,1.188 19.377,2.223 C21.068,3.258 22.423,4.622 23.442,6.314 C24.46,8.006 25.167,9.92 25.561,12.055 C25.955,14.191 26.153,16.343 26.153,18.511 C26.153,20.647 25.906,22.782 25.414,24.918 C24.92,27.054 24.132,28.984 23.048,30.709 C21.964,32.434 20.567,33.831 18.858,34.897 C17.15,35.965 15.064,36.5 12.6,36.5 C11.122,36.5 9.741,36.294 8.461,35.884 C7.179,35.473 6.045,34.857 5.06,34.035 C4.074,33.214 3.268,32.212 2.645,31.03 C2.02,29.846 1.61,28.5 1.413,26.988 L8.066,26.988 C8.295,28.138 8.822,29.14 9.643,29.994 L9.643,29.994 Z M15.557,18.733 C16.246,18.388 16.822,17.92 17.282,17.328 C17.741,16.737 18.086,16.055 18.317,15.283 C18.547,14.512 18.661,13.698 18.661,12.844 C18.661,12.055 18.539,11.275 18.292,10.503 C18.046,9.731 17.684,9.041 17.208,8.432 C16.731,7.825 16.148,7.341 15.459,6.979 C14.768,6.618 13.98,6.437 13.093,6.437 C12.271,6.437 11.532,6.618 10.875,6.979 C10.217,7.341 9.659,7.817 9.199,8.409 C8.738,8.999 8.394,9.673 8.164,10.429 C7.934,11.185 7.82,11.957 7.82,12.745 C7.82,13.567 7.926,14.364 8.14,15.135 C8.353,15.908 8.674,16.598 9.1,17.205 C9.527,17.813 10.078,18.306 10.752,18.684 C11.425,19.062 12.206,19.25 13.093,19.25 C14.046,19.25 14.867,19.077 15.557,18.733 L15.557,18.733 Z" id="Fill-1"></path>
                    <path d="M37.586,7.127 L36.206,14.963 L36.305,15.061 C37.257,14.109 38.276,13.427 39.361,13.017 C40.444,12.605 41.676,12.4 43.057,12.4 C44.764,12.4 46.276,12.713 47.59,13.336 C48.904,13.961 50.013,14.799 50.917,15.85 C51.82,16.902 52.51,18.141 52.987,19.571 C53.463,21 53.702,22.52 53.702,24.13 C53.702,25.904 53.356,27.554 52.667,29.082 C51.976,30.61 51.048,31.933 49.882,33.05 C48.715,34.167 47.36,35.03 45.816,35.637 C44.272,36.245 42.629,36.531 40.888,36.5 C39.212,36.5 37.611,36.278 36.082,35.833 C34.556,35.391 33.2,34.709 32.017,33.789 C30.834,32.869 29.889,31.727 29.184,30.363 C28.476,29 28.106,27.415 28.075,25.608 L35.073,25.608 C35.237,27.185 35.828,28.442 36.847,29.378 C37.864,30.314 39.163,30.782 40.74,30.782 C41.66,30.782 42.49,30.594 43.228,30.216 C43.968,29.838 44.592,29.346 45.102,28.737 C45.611,28.13 46.004,27.423 46.284,26.618 C46.563,25.813 46.703,24.984 46.703,24.13 C46.703,23.243 46.572,22.405 46.308,21.616 C46.046,20.828 45.651,20.137 45.126,19.546 C44.6,18.955 43.975,18.496 43.253,18.166 C42.53,17.838 41.693,17.673 40.74,17.673 C39.491,17.673 38.474,17.895 37.685,18.339 C36.896,18.782 36.157,19.481 35.467,20.433 L29.159,20.433 L32.559,1.361 L51.829,1.361 L51.829,7.127 L37.586,7.127" id="Fill-2"></path>
                </g>
            </g>
        </g>
    </g>
</svg>