<?xml version="1.0" encoding="UTF-8" standalone="no"?>
<svg width="110px" height="110px" viewBox="0 0 110 110" version="1.1" xmlns="http://www.w3.org/2000/svg" xmlns:xlink="http://www.w3.org/1999/xlink" xmlns:sketch="http://www.bohemiancoding.com/sketch/ns">
    <!-- Generator: Sketch 3.4.1 (15681) - http://www.bohemiancoding.com/sketch -->
    <title>FeatureFuelMiles95@2x</title>
    <desc>Created with Sketch.</desc>
    <defs></defs>
    <g id="Fuel" stroke="none" stroke-width="1" fill="none" fill-rule="evenodd" sketch:type="MSPage">
        <g sketch:type="MSArtboardGroup" transform="translate(-190.000000, -40.000000)" id="FeatureFuelMiles95">
            <g sketch:type="MSLayerGroup" transform="translate(190.000000, 40.000000)">
                <path d="M55.43,109.09 C25.378,109.09 0.93,84.642 0.93,54.59 C0.93,24.538 25.378,0.09 55.43,0.09 C85.482,0.09 109.93,24.538 109.93,54.59 C109.93,84.642 85.482,109.09 55.43,109.09" id="Fill-1" fill="#01994E" sketch:type="MSShapeGroup"></path>
                <path d="M37.811,65.997 C38.632,66.853 39.651,67.279 40.866,67.279 C42.148,67.279 43.2,66.909 44.021,66.17 C44.841,65.431 45.5,64.527 45.992,63.46 C46.485,62.392 46.838,61.25 47.052,60.035 C47.265,58.82 47.404,57.735 47.471,56.782 L47.372,56.683 C46.419,58.063 45.302,59.048 44.021,59.64 C42.74,60.232 41.261,60.527 39.586,60.527 C38.107,60.527 36.661,60.207 35.249,59.567 C33.836,58.926 32.637,58.063 31.651,56.979 C30.731,55.928 30.058,54.729 29.631,53.381 C29.203,52.035 28.99,50.671 28.99,49.29 C28.99,47.516 29.278,45.866 29.852,44.338 C30.427,42.81 31.249,41.48 32.316,40.346 C33.384,39.212 34.657,38.317 36.136,37.66 C37.615,37.004 39.256,36.675 41.064,36.675 C43.692,36.675 45.852,37.192 47.545,38.227 C49.236,39.261 50.591,40.625 51.611,42.317 C52.628,44.01 53.336,45.924 53.73,48.059 C54.123,50.195 54.321,52.347 54.321,54.514 C54.321,56.651 54.074,58.786 53.582,60.922 C53.089,63.057 52.3,64.988 51.216,66.713 C50.132,68.438 48.735,69.834 47.027,70.901 C45.318,71.968 43.232,72.503 40.768,72.503 C39.29,72.503 37.91,72.298 36.629,71.887 C35.347,71.476 34.214,70.86 33.228,70.039 C32.243,69.217 31.437,68.215 30.813,67.033 C30.189,65.85 29.779,64.503 29.582,62.991 L36.234,62.991 C36.464,64.142 36.99,65.144 37.811,65.997 L37.811,65.997 Z M43.726,54.737 C44.415,54.392 44.99,53.924 45.451,53.332 C45.91,52.74 46.254,52.059 46.485,51.287 C46.715,50.516 46.83,49.702 46.83,48.847 C46.83,48.059 46.707,47.279 46.46,46.507 C46.214,45.734 45.852,45.044 45.376,44.436 C44.899,43.829 44.316,43.345 43.627,42.982 C42.937,42.622 42.148,42.441 41.261,42.441 C40.44,42.441 39.701,42.622 39.043,42.982 C38.386,43.345 37.828,43.82 37.367,44.412 C36.907,45.003 36.562,45.677 36.333,46.432 C36.103,47.188 35.988,47.96 35.988,48.749 C35.988,49.57 36.094,50.368 36.309,51.139 C36.522,51.911 36.842,52.602 37.269,53.209 C37.695,53.817 38.247,54.31 38.921,54.687 C39.593,55.066 40.374,55.254 41.261,55.254 C42.214,55.254 43.035,55.081 43.726,54.737 L43.726,54.737 Z" id="Fill-2" fill="#FFFFFF" sketch:type="MSShapeGroup"></path>
                <path d="M65.755,43.13 L64.375,50.966 L64.473,51.065 C65.426,50.113 66.444,49.43 67.529,49.02 C68.613,48.609 69.845,48.403 71.225,48.403 C72.932,48.403 74.444,48.716 75.759,49.34 C77.073,49.964 78.182,50.802 79.085,51.853 C79.989,52.906 80.679,54.145 81.156,55.574 C81.632,57.004 81.87,58.523 81.87,60.133 C81.87,61.908 81.524,63.558 80.835,65.086 C80.145,66.614 79.216,67.937 78.05,69.053 C76.883,70.17 75.528,71.033 73.985,71.64 C72.44,72.248 70.797,72.535 69.056,72.503 C67.38,72.503 65.779,72.281 64.251,71.837 C62.724,71.394 61.369,70.713 60.185,69.793 C59.003,68.873 58.058,67.731 57.352,66.367 C56.645,65.004 56.275,63.419 56.243,61.611 L63.241,61.611 C63.405,63.188 63.996,64.445 65.016,65.381 C66.033,66.318 67.331,66.786 68.908,66.786 C69.828,66.786 70.658,66.598 71.397,66.219 C72.136,65.842 72.761,65.35 73.27,64.74 C73.779,64.133 74.173,63.427 74.453,62.622 C74.732,61.817 74.872,60.988 74.872,60.133 C74.872,59.246 74.741,58.408 74.477,57.62 C74.214,56.831 73.819,56.141 73.295,55.549 C72.768,54.959 72.144,54.499 71.422,54.17 C70.699,53.842 69.861,53.677 68.908,53.677 C67.659,53.677 66.642,53.899 65.853,54.343 C65.065,54.786 64.325,55.485 63.635,56.436 L57.327,56.436 L60.728,37.365 L79.997,37.365 L79.997,43.13 L65.755,43.13" id="Fill-3" fill="#FFFFFF" sketch:type="MSShapeGroup"></path>
                <path d="M55.429,102.777 C28.859,102.777 7.243,81.161 7.243,54.591 C7.243,28.02 28.859,6.403 55.429,6.403 C82,6.403 103.617,28.02 103.617,54.591 C103.617,81.161 82,102.777 55.429,102.777 L55.429,102.777 Z M55.429,10.648 C31.2,10.648 11.488,30.36 11.488,54.591 C11.488,78.82 31.2,98.532 55.429,98.532 C79.66,98.532 99.372,78.82 99.372,54.591 C99.372,30.36 79.66,10.648 55.429,10.648 L55.429,10.648 Z" id="Fill-4" fill="#F9FFFF" sketch:type="MSShapeGroup"></path>
            </g>
        </g>
    </g>
</svg>