<?xml version="1.0" encoding="utf-8"?>
<!-- Generator: Adobe Illustrator 19.1.0, SVG Export Plug-In . SVG Version: 6.00 Build 0)  -->
<!DOCTYPE svg PUBLIC "-//W3C//DTD SVG 1.1//EN" "http://www.w3.org/Graphics/SVG/1.1/DTD/svg11.dtd">
<svg version="1.1" id="Layer_1" xmlns="http://www.w3.org/2000/svg" xmlns:xlink="http://www.w3.org/1999/xlink" x="0px" y="0px"
	 viewBox="-334 330.5 521.9 181.4" style="enable-background:new -334 330.5 521.9 181.4;" xml:space="preserve">
<style type="text/css">
	.st0{fill:#EAEAEA;enable-background:new    ;}
</style>
<path class="st0" d="M-258.1,469.2c22.1,0,40-17.6,40-39.3c0-15.1-8.6-28.1-21.2-34.8c-11.2-5.9-13.1-11.9-13.7-15.5
	c-0.5-2.8-0.5-3.7-2.4-3.7v23.9c0,7.4,5.8,14,9.6,17.8c0.4,0.4,1.1,1.2,1.9,2.2c0.1,0.1,0.2,0.2,0.3,0.4c1.9,2.7,3,6,3,9.5
	c0,9.4-7.8,16.9-17.4,16.9c-9.6,0-17.4-7.6-17.4-16.9c0-3.5,1.1-6.8,3-9.5c0.1-0.1,0.2-0.2,0.3-0.4c0.8-1.1,1.5-1.8,1.9-2.2
	c3.8-3.8,9.6-10.4,9.6-17.8v-23.9c-1.9,0-1.9,0.8-2.4,3.7c-0.7,3.6-2.5,9.6-13.7,15.5c-12.6,6.6-21.2,19.7-21.2,34.8
	C-298,451.6-280.1,469.2-258.1,469.2L-258.1,469.2z"/>
<path class="st0" d="M30.3,425.4c0-10.9,4-20.1,13.9-20.1c9.9,0,13.9,9.2,13.9,20.1c0,10.3-4,20.1-13.9,20.1
	C34.3,445.5,30.3,435.8,30.3,425.4L30.3,425.4z M13.4,425.4c0,20,10.7,32.5,30.8,32.5c20.1,0,30.8-12.5,30.8-32.5
	c0-20.2-10.6-32.5-30.8-32.5C24,393,13.4,405.3,13.4,425.4L13.4,425.4z"/>
<path class="st0" d="M-48.8,456.7h18.2l-23.7-62.2h-20l-23.3,62.2h17l4.5-13.2h23L-48.8,456.7L-48.8,456.7z M-72,431.7l7.7-23.8
	l7.5,23.8H-72L-72,431.7z"/>
<polygon class="st0" points="-35.4,394.6 11.1,394.6 11.1,407.1 -3.8,407.1 -3.8,456.8 -20.6,456.8 -20.6,407.1 -35.4,407.1 "/>
<polygon class="st0" points="-139,394.6 -92.5,394.6 -92.5,407.1 -107.4,407.1 -107.4,456.8 -124.1,456.8 -124.1,407.1 -139,407.1 
	"/>
<polygon class="st0" points="102.2,394.6 102.2,456.7 85.5,456.7 85.5,394.6 "/>
<polygon class="st0" points="115.7,456.7 115.7,394.5 132.5,394.6 132.5,443.8 152,443.8 152,456.7 "/>
<path class="st0" d="M-186.1,441c4.2,2.3,11.3,4.1,18,4.1c5.2,0,10.1-1.1,10.1-6c0-11.6-29-4.3-29-26.8c0-14.9,14.4-19,26.7-19
	c5.9,0,11.4,0.9,15.6,2.3v13.3c-4.2-2-9.8-3.4-14.4-3.4c-4.1,0-11,0.4-11,5.8c0,10,29,3.3,29,25.7c0,16.1-13.4,20.4-27,20.4
	c-5.7,0-12.6-0.9-18.1-2.7L-186.1,441L-186.1,441z"/>
</svg>
