<?xml version="1.0" encoding="utf-8"?>
<!-- Generator: Adobe Illustrator 19.0.0, SVG Export Plug-In . SVG Version: 6.00 Build 0)  -->
<svg version="1.1" id="Layer_1" xmlns="http://www.w3.org/2000/svg" xmlns:xlink="http://www.w3.org/1999/xlink" x="0px" y="0px"
	 viewBox="0 0 13.8 13.8" style="enable-background:new 0 0 13.8 13.8;" xml:space="preserve">
<style type="text/css">
	.st0{fill:#939598;}
</style>
<g>
	<path class="st0" d="M9.2,1.6c-2.1-2.1-5.5-2.1-7.7,0c-2.1,2.1-2.1,5.5,0,7.7c1.9,1.9,4.8,2.1,6.9,0.6c0,0.2,0.1,0.4,0.3,0.6
		l3.1,3.1c0.4,0.4,1.2,0.4,1.6,0c0.4-0.4,0.4-1.2,0-1.6l-3.1-3.1c-0.2-0.2-0.4-0.3-0.6-0.3C11.3,6.4,11.1,3.5,9.2,1.6z M8.3,8.3
		c-1.6,1.6-4.1,1.6-5.7,0C1,6.7,1,4.1,2.6,2.6C4.1,1,6.7,1,8.3,2.6C9.8,4.1,9.8,6.7,8.3,8.3z"/>
</g>
</svg>
