<?xml version="1.0" encoding="UTF-8" standalone="no"?>
<svg width="58px" height="40px" viewBox="0 0 58 40" version="1.1" xmlns="http://www.w3.org/2000/svg" xmlns:xlink="http://www.w3.org/1999/xlink" xmlns:sketch="http://www.bohemiancoding.com/sketch/ns">
    <!-- Generator: Sketch 3.4.1 (15681) - http://www.bohemiancoding.com/sketch -->
    <title>FeatureWifi</title>
    <desc>Created with Sketch.</desc>
    <defs></defs>
    <g id="Map" stroke="none" stroke-width="1" fill="none" fill-rule="evenodd" sketch:type="MSPage">
        <g id="FeatureWifi" sketch:type="MSArtboardGroup" transform="translate(-8.000000, -17.000000)" fill="#000000">
            <g sketch:type="MSLayerGroup" transform="translate(8.000000, 17.000000)">
                <path d="M22.179,39.5 C21.749,39.5 21.322,39.316 21.025,38.96 C20.495,38.324 20.581,37.378 21.218,36.848 C23.263,35.143 26.026,34.204 28.999,34.204 C31.972,34.204 34.735,35.143 36.782,36.848 C37.419,37.378 37.505,38.323 36.975,38.96 C36.445,39.597 35.498,39.682 34.862,39.152 C33.376,37.914 31.238,37.204 28.999,37.204 C26.76,37.204 24.624,37.914 23.138,39.152 C22.857,39.386 22.518,39.5 22.179,39.5" id="Fill-15" sketch:type="MSShapeGroup"></path>
                <path d="M42.411,30.289 C42.088,30.289 41.763,30.185 41.489,29.972 C38.269,27.457 33.716,26.015 28.999,26.015 C24.281,26.015 19.73,27.457 16.512,29.971 C15.858,30.481 14.914,30.364 14.406,29.713 C13.896,29.06 14.012,28.117 14.664,27.607 C18.455,24.646 23.546,23.015 28.999,23.015 C34.451,23.015 39.543,24.646 43.335,27.606 C43.988,28.116 44.105,29.06 43.595,29.712 C43.299,30.091 42.857,30.289 42.411,30.289" id="Fill-16" sketch:type="MSShapeGroup"></path>
                <path d="M49.037,21.071 C48.722,21.071 48.403,20.973 48.133,20.767 C43.079,16.94 36.284,14.831 28.999,14.831 C21.715,14.831 14.92,16.94 9.868,20.767 C9.206,21.266 8.266,21.137 7.767,20.478 C7.266,19.816 7.396,18.876 8.056,18.376 C13.627,14.155 21.065,11.831 28.999,11.831 C36.934,11.831 44.372,14.155 49.943,18.376 C50.605,18.876 50.734,19.816 50.233,20.477 C49.939,20.866 49.49,21.071 49.037,21.071" id="Fill-17" sketch:type="MSShapeGroup"></path>
                <path d="M56.499,12.002 C56.186,12.002 55.87,11.904 55.6,11.702 C48.55,6.413 39.103,3.5 29,3.5 C18.897,3.5 9.449,6.413 2.4,11.702 C1.737,12.199 0.798,12.065 0.3,11.402 C-0.197,10.739 -0.062,9.799 0.6,9.302 C8.165,3.626 18.251,0.5 29,0.5 C39.748,0.5 49.834,3.626 57.4,9.302 C58.063,9.799 58.197,10.739 57.7,11.402 C57.405,11.795 56.955,12.002 56.499,12.002" id="Fill-18" sketch:type="MSShapeGroup"></path>
                <path id="Fill-19" sketch:type="MSShapeGroup"></path>
            </g>
        </g>
    </g>
</svg>