<?xml version="1.0" encoding="UTF-8" standalone="no"?>
<svg width="54px" height="52px" viewBox="0 0 54 52" version="1.1" xmlns="http://www.w3.org/2000/svg" xmlns:xlink="http://www.w3.org/1999/xlink" xmlns:sketch="http://www.bohemiancoding.com/sketch/ns">
    <!-- Generator: Sketch 3.4.1 (15681) - http://www.bohemiancoding.com/sketch -->
    <title>FeatureShower</title>
    <desc>Created with Sketch.</desc>
    <defs></defs>
    <g id="Map" stroke="none" stroke-width="1" fill="none" fill-rule="evenodd" sketch:type="MSPage">
        <g id="FeatureShower" sketch:type="MSArtboardGroup" transform="translate(-10.000000, -11.000000)" fill="#000000">
            <g sketch:type="MSLayerGroup" transform="translate(10.000000, 11.000000)">
                <path d="M53.391,17.354 C51.995,13.898 49.885,8.675 44.247,8.675 L28.5,8.675 L28.5,1.5 C28.5,0.672 27.828,0 27,0 C26.172,0 25.5,0.672 25.5,1.5 L25.5,8.675 L9.753,8.675 C4.115,8.675 2.005,13.898 0.609,17.354 C0.299,18.122 0.67,18.997 1.438,19.307 C2.204,19.616 3.081,19.244 3.391,18.477 C5.213,13.966 6.697,11.675 9.753,11.675 L44.247,11.675 C47.303,11.675 48.787,13.966 50.609,18.477 C50.845,19.061 51.407,19.416 52.001,19.416 C52.188,19.416 52.378,19.381 52.562,19.307 C53.33,18.997 53.701,18.122 53.391,17.354" id="Fill-1" sketch:type="MSShapeGroup"></path>
                <path d="M27,16.355 C26.172,16.355 25.5,17.027 25.5,17.855 L25.5,23.855 C25.5,24.684 26.172,25.355 27,25.355 C27.828,25.355 28.5,24.684 28.5,23.855 L28.5,17.855 C28.5,17.027 27.828,16.355 27,16.355" id="Fill-2" sketch:type="MSShapeGroup"></path>
                <path d="M27,28.355 C26.172,28.355 25.5,29.027 25.5,29.855 L25.5,35.855 C25.5,36.684 26.172,37.355 27,37.355 C27.828,37.355 28.5,36.684 28.5,35.855 L28.5,29.855 C28.5,29.027 27.828,28.355 27,28.355" id="Fill-3" sketch:type="MSShapeGroup"></path>
                <path d="M27,40.355 C26.172,40.355 25.5,41.027 25.5,41.855 L25.5,47.855 C25.5,48.684 26.172,49.355 27,49.355 C27.828,49.355 28.5,48.684 28.5,47.855 L28.5,41.855 C28.5,41.027 27.828,40.355 27,40.355" id="Fill-4" sketch:type="MSShapeGroup"></path>
                <path d="M6.777,43.059 C5.964,42.959 5.205,43.538 5.103,44.36 L4.358,50.313 C4.255,51.136 4.837,51.886 5.659,51.988 C5.723,51.996 5.785,52 5.848,52 C6.593,52 7.239,51.445 7.334,50.686 L8.079,44.733 C8.182,43.911 7.6,43.161 6.777,43.059" id="Fill-5" sketch:type="MSShapeGroup"></path>
                <path d="M8.269,31.151 C7.452,31.053 6.696,31.631 6.594,32.453 L5.849,38.406 C5.746,39.228 6.328,39.978 7.15,40.081 C7.214,40.089 7.276,40.093 7.339,40.093 C8.084,40.093 8.73,39.538 8.825,38.779 L9.57,32.826 C9.673,32.004 9.091,31.254 8.269,31.151" id="Fill-6" sketch:type="MSShapeGroup"></path>
                <path d="M9.759,19.244 C8.941,19.147 8.187,19.724 8.084,20.546 L7.339,26.499 C7.236,27.321 7.818,28.071 8.641,28.174 C8.704,28.182 8.767,28.185 8.829,28.185 C9.574,28.185 10.221,27.631 10.315,26.872 L11.061,20.919 C11.163,20.097 10.581,19.347 9.759,19.244" id="Fill-7" sketch:type="MSShapeGroup"></path>
                <path d="M45.359,28.174 C46.182,28.071 46.764,27.321 46.661,26.499 L45.916,20.546 C45.814,19.724 45.058,19.147 44.241,19.244 C43.419,19.347 42.837,20.097 42.939,20.919 L43.685,26.872 C43.779,27.631 44.426,28.185 45.171,28.185 C45.233,28.185 45.296,28.182 45.359,28.174" id="Fill-8" sketch:type="MSShapeGroup"></path>
                <path d="M46.85,40.081 C47.672,39.978 48.254,39.228 48.151,38.406 L47.406,32.453 C47.304,31.631 46.559,31.053 45.731,31.151 C44.909,31.254 44.327,32.004 44.43,32.826 L45.175,38.779 C45.27,39.538 45.916,40.093 46.661,40.093 C46.724,40.093 46.786,40.089 46.85,40.081" id="Fill-9" sketch:type="MSShapeGroup"></path>
                <path d="M48.898,44.36 C48.795,43.538 48.048,42.959 47.223,43.059 C46.4,43.161 45.818,43.911 45.921,44.733 L46.666,50.686 C46.761,51.445 47.407,52 48.152,52 C48.215,52 48.277,51.996 48.341,51.988 C49.163,51.886 49.745,51.136 49.643,50.313 L48.898,44.36" id="Fill-10" sketch:type="MSShapeGroup"></path>
            </g>
        </g>
    </g>
</svg>