<?xml version="1.0" encoding="UTF-8" standalone="no"?>
<svg width="58px" height="32px" viewBox="0 0 58 32" version="1.1" xmlns="http://www.w3.org/2000/svg" xmlns:xlink="http://www.w3.org/1999/xlink" xmlns:sketch="http://www.bohemiancoding.com/sketch/ns">
    <!-- Generator: Sketch 3.4.1 (15681) - http://www.bohemiancoding.com/sketch -->
    <title>FeatureCashPayment</title>
    <desc>Created with Sketch.</desc>
    <defs></defs>
    <g id="Map" stroke="none" stroke-width="1" fill="none" fill-rule="evenodd" sketch:type="MSPage">
        <g id="FeatureCashPayment" sketch:type="MSArtboardGroup" transform="translate(-8.000000, -21.000000)" fill="#000000">
            <g sketch:type="MSLayerGroup" transform="translate(8.000000, 21.000000)">
                <path d="M53.875,0 L4.125,0 C1.851,0 0,1.848 0,4.12 L0,27.88 C0,30.152 1.851,32 4.125,32 L53.875,32 C56.149,32 58,30.152 58,27.88 L58,4.12 C58,1.848 56.149,0 53.875,0 L53.875,0 Z M55,27.88 C55,28.498 54.495,29 53.875,29 L4.125,29 C3.505,29 3,28.498 3,27.88 L3,4.12 C3,3.502 3.505,3 4.125,3 L53.875,3 C54.495,3 55,3.502 55,4.12 L55,27.88 L55,27.88 Z" id="Fill-1" sketch:type="MSShapeGroup"></path>
                <path d="M48.317,7 L40.214,7 C39.65,7 39.193,7.438 39.193,7.979 C39.193,8.52 39.65,8.958 40.214,8.958 L48.317,8.958 C48.739,8.958 49.083,9.286 49.083,9.689 L49.083,22.311 C49.083,22.714 48.739,23.042 48.317,23.042 L40.147,23.042 C39.583,23.042 39.126,23.48 39.126,24.021 C39.126,24.562 39.583,25 40.147,25 L48.317,25 C49.866,25 51.126,23.794 51.126,22.311 L51.126,9.689 C51.126,8.206 49.866,7 48.317,7" id="Fill-2" sketch:type="MSShapeGroup"></path>
                <path d="M17.712,23.042 L9.622,23.042 C9.191,23.042 8.84,22.714 8.84,22.311 L8.84,9.689 C8.84,9.286 9.191,8.958 9.622,8.958 L17.593,8.958 C18.169,8.958 18.635,8.52 18.635,7.979 C18.635,7.438 18.169,7 17.593,7 L9.622,7 C8.041,7 6.754,8.206 6.754,9.689 L6.754,22.311 C6.754,23.794 8.041,25 9.622,25 L17.712,25 C18.288,25 18.754,24.562 18.754,24.021 C18.754,23.48 18.288,23.042 17.712,23.042" id="Fill-3" sketch:type="MSShapeGroup"></path>
                <path d="M21.5,14.14 L21.5,22.259 L24.033,22.259 L24.033,9.741 L21.5,9.741 L21.5,14.14" id="Fill-4" sketch:type="MSShapeGroup"></path>
                <path d="M35.136,10.895 C34.713,10.393 34.226,10.036 33.673,9.822 C33.121,9.607 32.528,9.5 31.899,9.5 C31.28,9.5 30.694,9.607 30.142,9.822 C29.588,10.036 29.104,10.393 28.688,10.895 C28.272,11.395 27.941,12.06 27.698,12.888 C27.454,13.717 27.332,14.739 27.332,15.954 C27.332,17.206 27.454,18.253 27.698,19.093 C27.941,19.934 28.272,20.604 28.688,21.105 C29.104,21.605 29.588,21.963 30.142,22.178 C30.694,22.392 31.28,22.5 31.899,22.5 C32.528,22.5 33.121,22.392 33.673,22.178 C34.226,21.963 34.713,21.605 35.136,21.105 C35.558,20.604 35.891,19.934 36.134,19.093 C36.378,18.253 36.5,17.206 36.5,15.954 C36.5,14.739 36.378,13.717 36.134,12.888 C35.891,12.06 35.558,11.395 35.136,10.895 L35.136,10.895 Z M33.932,17.251 C33.907,17.758 33.834,18.247 33.708,18.718 C33.584,19.189 33.381,19.591 33.103,19.924 C32.823,20.258 32.422,20.426 31.899,20.426 C31.387,20.426 30.995,20.258 30.721,19.924 C30.447,19.591 30.248,19.189 30.124,18.718 C29.998,18.247 29.925,17.758 29.901,17.251 C29.876,16.744 29.866,16.313 29.866,15.954 C29.866,15.74 29.868,15.481 29.874,15.177 C29.88,14.873 29.901,14.56 29.937,14.238 C29.972,13.917 30.031,13.597 30.114,13.281 C30.197,12.965 30.314,12.683 30.463,12.432 C30.611,12.181 30.802,11.979 31.033,11.824 C31.265,11.669 31.553,11.592 31.899,11.592 C32.243,11.592 32.534,11.669 32.772,11.824 C33.01,11.979 33.206,12.181 33.361,12.432 C33.515,12.683 33.631,12.965 33.708,13.281 C33.785,13.597 33.846,13.917 33.887,14.238 C33.929,14.56 33.952,14.873 33.958,15.177 C33.964,15.481 33.968,15.74 33.968,15.954 C33.968,16.313 33.955,16.744 33.932,17.251 L33.932,17.251 Z" id="Fill-5" sketch:type="MSShapeGroup"></path>
            </g>
        </g>
    </g>
</svg>