<?xml version="1.0" encoding="UTF-8" standalone="no"?>
<svg width="70px" height="68px" viewBox="0 0 70 68" version="1.1" xmlns="http://www.w3.org/2000/svg" xmlns:xlink="http://www.w3.org/1999/xlink" xmlns:sketch="http://www.bohemiancoding.com/sketch/ns">
    <!-- Generator: Sketch 3.4.1 (15681) - http://www.bohemiancoding.com/sketch -->
    <title>Imported Layers</title>
    <desc>Created with Sketch.</desc>
    <defs></defs>
    <g id="Map" stroke="none" stroke-width="1" fill="none" fill-rule="evenodd" sketch:type="MSPage">
        <g id="FeatureCarWashJetWash" sketch:type="MSArtboardGroup" transform="translate(-2.000000, -3.000000)">
            <g id="Imported-Layers" sketch:type="MSLayerGroup" transform="translate(2.000000, 3.000000)">
                <path d="M41.255,23.279 C40.603,21.763 39.127,20.788 37.47,20.788 L13.227,20.788 C11.601,20.788 10.136,21.737 9.47,23.214 L0.949,38.535 C0.896,38.628 0.857,38.725 0.826,38.824 C0.47,39.447 0.251,40.158 0.251,40.926 L0.251,56.834 C0.251,59.121 2.06,60.979 4.319,61.088 L4.319,64.839 C4.319,66.465 5.642,67.788 7.268,67.788 L14.511,67.788 C16.137,67.788 17.459,66.465 17.459,64.839 L17.459,61.109 L33.042,61.109 L33.042,64.839 C33.042,66.465 34.364,67.788 35.99,67.788 L43.233,67.788 C44.859,67.788 46.182,66.465 46.182,64.839 L46.182,61.088 C48.441,60.979 50.251,59.121 50.251,56.834 L50.251,40.926 C50.251,39.983 49.933,39.118 49.413,38.41 L41.255,23.279 L41.255,23.279 Z M12.195,24.471 C12.372,24.057 12.777,23.789 13.227,23.789 L37.47,23.789 C37.929,23.789 38.338,24.063 38.509,24.489 C38.53,24.54 45.057,36.652 45.057,36.652 L5.429,36.652 C5.429,36.652 12.174,24.52 12.195,24.471 L12.195,24.471 Z M7.319,61.109 L14.46,61.109 L14.46,64.839 L7.319,64.839 L7.319,61.109 Z M36.042,61.109 L43.183,61.109 L43.183,64.839 L36.042,64.839 L36.042,61.109 Z M47.251,56.834 C47.251,57.536 46.679,58.108 45.978,58.108 L4.523,58.108 C3.822,58.108 3.251,57.536 3.251,56.834 L3.251,40.926 C3.251,40.225 3.822,39.653 4.523,39.653 L45.978,39.653 C46.328,39.653 46.646,39.796 46.877,40.026 L46.922,40.109 C46.962,40.184 47.017,40.244 47.067,40.308 C47.173,40.494 47.251,40.698 47.251,40.926 L47.251,56.834 L47.251,56.834 Z" id="Fill-1" fill="#000000" sketch:type="MSShapeGroup"></path>
                <path d="M39.612,43.92 C36.877,43.92 34.652,46.145 34.652,48.88 C34.652,51.616 36.877,53.841 39.612,53.841 C42.346,53.841 44.571,51.616 44.571,48.88 C44.571,46.145 42.346,43.92 39.612,43.92 L39.612,43.92 Z M39.612,50.84 C38.531,50.84 37.652,49.961 37.652,48.88 C37.652,47.8 38.531,46.921 39.612,46.921 C40.692,46.921 41.571,47.8 41.571,48.88 C41.571,49.961 40.692,50.84 39.612,50.84 L39.612,50.84 Z" id="Fill-2" fill="#333439" sketch:type="MSShapeGroup"></path>
                <path d="M10.889,43.92 C8.155,43.92 5.93,46.145 5.93,48.88 C5.93,51.616 8.155,53.841 10.889,53.841 C13.625,53.841 15.849,51.616 15.849,48.88 C15.849,46.145 13.625,43.92 10.889,43.92 L10.889,43.92 Z M10.889,50.84 C9.809,50.84 8.93,49.961 8.93,48.88 C8.93,47.8 9.809,46.921 10.889,46.921 C11.97,46.921 12.849,47.8 12.849,48.88 C12.849,49.961 11.97,50.84 10.889,50.84 L10.889,50.84 Z" id="Fill-3" fill="#333439" sketch:type="MSShapeGroup"></path>
                <path d="M30.334,49.446 L20.167,49.446 C19.339,49.446 18.667,50.118 18.667,50.947 C18.667,51.775 19.339,52.447 20.167,52.447 L30.334,52.447 C31.162,52.447 31.834,51.775 31.834,50.947 C31.834,50.118 31.162,49.446 30.334,49.446" id="Fill-4" fill="#333439" sketch:type="MSShapeGroup"></path>
                <path d="M30.334,44.823 L20.167,44.823 C19.339,44.823 18.667,45.495 18.667,46.324 C18.667,47.152 19.339,47.824 20.167,47.824 L30.334,47.824 C31.162,47.824 31.834,47.152 31.834,46.324 C31.834,45.495 31.162,44.823 30.334,44.823" id="Fill-5" fill="#333439" sketch:type="MSShapeGroup"></path>
                <path d="M67.912,64.787 L57.746,64.787 C56.918,64.787 56.246,65.459 56.246,66.287 C56.246,67.116 56.918,67.788 57.746,67.788 L67.912,67.788 C68.74,67.788 69.412,67.116 69.412,66.287 C69.412,65.459 68.74,64.787 67.912,64.787" id="Fill-6" fill="#000000" sketch:type="MSShapeGroup"></path>
                <path d="M67.912,59.785 L57.746,59.785 C56.918,59.785 56.246,60.457 56.246,61.285 C56.246,62.113 56.918,62.786 57.746,62.786 L67.912,62.786 C68.74,62.786 69.412,62.113 69.412,61.285 C69.412,60.457 68.74,59.785 67.912,59.785" id="Fill-7" fill="#000000" sketch:type="MSShapeGroup"></path>
                <path d="M67.912,54.782 L63.982,54.782 C61.689,45.096 67.51,35.539 67.567,35.446 C71.508,29.18 69.103,24.533 67.212,22.897 L60.026,17.36 C59.37,16.855 58.429,16.975 57.924,17.631 L56.825,19.052 L53.809,16.74 L54.9,15.328 C55.144,15.013 55.252,14.613 55.2,14.218 C55.149,13.822 54.943,13.464 54.626,13.221 L38.583,0.918 C38.128,0.57 37.516,0.513 37.004,0.765 L31.629,3.429 C30.887,3.796 30.583,4.696 30.951,5.439 C31.32,6.181 32.219,6.485 32.961,6.116 L37.499,3.867 L51.606,14.686 L50.515,16.098 C50.271,16.413 50.162,16.813 50.214,17.208 C50.266,17.604 50.472,17.963 50.789,18.205 L56.187,22.342 C56.84,22.845 57.78,22.723 58.285,22.068 L59.382,20.651 L65.328,25.231 C65.658,25.552 68.41,28.471 65.024,33.855 C64.751,34.293 58.732,44.136 60.91,54.782 L57.746,54.782 C56.918,54.782 56.246,55.454 56.246,56.283 C56.246,57.111 56.918,57.783 57.746,57.783 L67.912,57.783 C68.74,57.783 69.412,57.111 69.412,56.283 C69.412,55.454 68.74,54.782 67.912,54.782" id="Fill-8" fill="#000000" sketch:type="MSShapeGroup"></path>
                <path d="M21.915,10.096 C22.282,10.839 23.181,11.145 23.924,10.779 L28.558,8.495 C29.3,8.129 29.606,7.229 29.24,6.487 C28.873,5.743 27.974,5.438 27.231,5.804 L22.597,8.087 C21.855,8.454 21.549,9.353 21.915,10.096" id="Fill-9" fill="#000000" sketch:type="MSShapeGroup"></path>
                <path d="M25.239,13.93 C24.619,14.478 24.56,15.427 25.108,16.048 C25.657,16.669 26.605,16.728 27.226,16.18 L31.098,12.761 C31.719,12.213 31.778,11.264 31.229,10.643 C30.681,10.022 29.733,9.963 29.112,10.511 L25.239,13.93" id="Fill-10" fill="#000000" sketch:type="MSShapeGroup"></path>
                <path d="M20.9,5.125 L25.97,4.136 C26.783,3.978 27.313,3.19 27.155,2.376 C26.997,1.563 26.208,1.032 25.396,1.191 L20.325,2.179 C19.513,2.338 18.982,3.126 19.14,3.939 C19.299,4.752 20.087,5.284 20.9,5.125" id="Fill-11" fill="#000000" sketch:type="MSShapeGroup"></path>
            </g>
        </g>
    </g>
</svg>