<?xml version="1.0" encoding="UTF-8" standalone="no"?>
<svg width="58px" height="59px" viewBox="0 0 58 59" version="1.1" xmlns="http://www.w3.org/2000/svg" xmlns:xlink="http://www.w3.org/1999/xlink" xmlns:sketch="http://www.bohemiancoding.com/sketch/ns">
    <!-- Generator: Sketch 3.4.1 (15681) - http://www.bohemiancoding.com/sketch -->
    <title>FeatureTruckersLounge</title>
    <desc>Created with Sketch.</desc>
    <defs></defs>
    <g id="Map" stroke="none" stroke-width="1" fill="none" fill-rule="evenodd" sketch:type="MSPage">
        <g id="FeatureTruckersLounge" sketch:type="MSArtboardGroup" transform="translate(-8.000000, -8.000000)" fill="#000000">
            <g sketch:type="MSLayerGroup" transform="translate(8.000000, 8.000000)">
                <path d="M11.167,24.403 L9.244,24.403 L9.244,33.145 L15.428,33.145 L15.428,31.529 L11.167,31.529 L11.167,24.403" id="Fill-47" sketch:type="MSShapeGroup"></path>
                <path d="M21.171,27.556 C20.884,27.266 20.54,27.041 20.136,26.882 C19.732,26.723 19.281,26.644 18.783,26.644 C18.285,26.644 17.836,26.723 17.436,26.882 C17.036,27.041 16.693,27.266 16.408,27.556 C16.121,27.846 15.901,28.196 15.746,28.609 C15.591,29.021 15.513,29.48 15.513,29.986 C15.513,30.493 15.591,30.95 15.746,31.357 C15.901,31.766 16.121,32.115 16.408,32.404 C16.693,32.694 17.036,32.917 17.436,33.072 C17.836,33.227 18.285,33.305 18.783,33.305 C19.281,33.305 19.732,33.227 20.136,33.072 C20.54,32.917 20.884,32.694 21.171,32.404 C21.456,32.115 21.676,31.766 21.831,31.357 C21.987,30.95 22.064,30.493 22.064,29.986 C22.064,29.48 21.987,29.021 21.831,28.609 C21.676,28.196 21.456,27.846 21.171,27.556 L21.171,27.556 Z M20.252,30.727 C20.203,30.968 20.12,31.184 20.001,31.376 C19.883,31.568 19.723,31.721 19.524,31.835 C19.324,31.95 19.077,32.007 18.783,32.007 C18.489,32.007 18.244,31.95 18.048,31.835 C17.852,31.721 17.695,31.568 17.576,31.376 C17.458,31.184 17.375,30.968 17.326,30.727 C17.277,30.486 17.252,30.239 17.252,29.986 C17.252,29.733 17.277,29.484 17.326,29.239 C17.375,28.994 17.458,28.778 17.576,28.59 C17.695,28.403 17.852,28.25 18.048,28.131 C18.244,28.013 18.489,27.954 18.783,27.954 C19.077,27.954 19.324,28.013 19.524,28.131 C19.723,28.25 19.883,28.403 20.001,28.59 C20.12,28.778 20.203,28.994 20.252,29.239 C20.301,29.484 20.325,29.733 20.325,29.986 C20.325,30.239 20.301,30.486 20.252,30.727 L20.252,30.727 Z" id="Fill-48" sketch:type="MSShapeGroup"></path>
                <path d="M26.778,30.133 C26.778,30.778 26.672,31.241 26.46,31.523 C26.247,31.805 25.904,31.945 25.432,31.945 C25.015,31.945 24.725,31.817 24.562,31.56 C24.398,31.302 24.317,30.913 24.317,30.39 L24.317,26.815 L22.578,26.815 L22.578,30.709 C22.578,31.101 22.613,31.458 22.683,31.78 C22.751,32.102 22.872,32.376 23.044,32.6 C23.215,32.825 23.449,32.998 23.747,33.121 C24.046,33.243 24.427,33.305 24.892,33.305 C25.26,33.305 25.619,33.223 25.97,33.06 C26.321,32.896 26.607,32.631 26.827,32.264 L26.864,32.264 L26.864,33.145 L28.517,33.145 L28.517,26.815 L26.778,26.815 L26.778,30.133" id="Fill-49" sketch:type="MSShapeGroup"></path>
                <path d="M34.701,27.36 C34.529,27.135 34.294,26.96 33.996,26.833 C33.698,26.706 33.317,26.644 32.852,26.644 C32.484,26.644 32.125,26.727 31.774,26.894 C31.423,27.062 31.137,27.329 30.917,27.696 L30.88,27.696 L30.88,26.815 L29.227,26.815 L29.227,33.145 L30.966,33.145 L30.966,29.827 C30.966,29.182 31.072,28.719 31.284,28.437 C31.496,28.156 31.839,28.015 32.313,28.015 C32.729,28.015 33.019,28.143 33.182,28.401 C33.345,28.658 33.427,29.048 33.427,29.57 L33.427,33.145 L35.166,33.145 L35.166,29.252 C35.166,28.86 35.131,28.503 35.062,28.18 C34.992,27.858 34.872,27.584 34.701,27.36" id="Fill-50" sketch:type="MSShapeGroup"></path>
                <path d="M40.308,27.66 L40.284,27.66 C40.072,27.292 39.808,27.031 39.494,26.876 C39.18,26.721 38.815,26.644 38.398,26.644 C37.957,26.644 37.567,26.729 37.229,26.901 C36.89,27.072 36.606,27.303 36.378,27.592 C36.149,27.882 35.976,28.217 35.857,28.596 C35.739,28.976 35.68,29.37 35.68,29.778 C35.68,30.211 35.731,30.621 35.833,31.008 C35.935,31.396 36.096,31.735 36.317,32.025 C36.537,32.315 36.818,32.544 37.161,32.711 C37.504,32.878 37.913,32.962 38.386,32.962 C38.77,32.962 39.135,32.882 39.482,32.723 C39.829,32.564 40.096,32.317 40.284,31.982 L40.308,31.982 L40.308,32.815 C40.316,33.264 40.208,33.635 39.984,33.929 C39.759,34.223 39.402,34.37 38.912,34.37 C38.602,34.37 38.329,34.307 38.092,34.18 C37.855,34.053 37.696,33.827 37.615,33.5 L35.888,33.5 C35.913,33.859 36.012,34.168 36.188,34.425 C36.364,34.682 36.584,34.892 36.849,35.055 C37.114,35.219 37.408,35.339 37.731,35.417 C38.053,35.494 38.369,35.533 38.68,35.533 C39.407,35.533 39.986,35.435 40.418,35.239 C40.851,35.043 41.181,34.804 41.411,34.523 C41.639,34.241 41.788,33.937 41.858,33.611 C41.926,33.284 41.961,32.994 41.961,32.741 L41.961,26.815 L40.308,26.815 L40.308,27.66 L40.308,27.66 Z M40.216,30.556 C40.155,30.764 40.063,30.95 39.941,31.113 C39.819,31.276 39.663,31.407 39.476,31.505 C39.288,31.603 39.072,31.651 38.827,31.651 C38.557,31.651 38.333,31.594 38.153,31.48 C37.974,31.366 37.829,31.219 37.718,31.039 C37.608,30.86 37.531,30.658 37.486,30.433 C37.441,30.209 37.419,29.982 37.419,29.754 C37.419,29.517 37.445,29.291 37.498,29.074 C37.551,28.858 37.637,28.666 37.755,28.498 C37.873,28.331 38.021,28.198 38.196,28.101 C38.371,28.003 38.582,27.954 38.827,27.954 C39.113,27.954 39.349,28.007 39.537,28.113 C39.725,28.219 39.875,28.362 39.99,28.541 C40.105,28.721 40.186,28.927 40.235,29.16 C40.284,29.393 40.308,29.639 40.308,29.9 C40.308,30.129 40.278,30.347 40.216,30.556 L40.216,30.556 Z" id="Fill-51" sketch:type="MSShapeGroup"></path>
                <path d="M46.639,31.743 C46.386,31.919 46.084,32.007 45.733,32.007 C45.243,32.007 44.868,31.88 44.607,31.627 C44.345,31.374 44.203,30.966 44.178,30.403 L48.745,30.403 C48.778,29.913 48.737,29.443 48.623,28.994 C48.508,28.545 48.322,28.145 48.066,27.794 C47.808,27.443 47.48,27.164 47.08,26.956 C46.68,26.747 46.21,26.644 45.672,26.644 C45.19,26.644 44.751,26.729 44.356,26.901 C43.959,27.072 43.618,27.307 43.333,27.605 C43.047,27.903 42.826,28.256 42.672,28.664 C42.516,29.072 42.439,29.513 42.439,29.986 C42.439,30.476 42.514,30.925 42.666,31.333 C42.817,31.741 43.031,32.092 43.308,32.386 C43.586,32.68 43.925,32.907 44.325,33.066 C44.725,33.225 45.174,33.305 45.672,33.305 C46.39,33.305 47.002,33.141 47.509,32.815 C48.014,32.488 48.39,31.945 48.635,31.186 L47.105,31.186 C47.047,31.382 46.892,31.568 46.639,31.743 L46.639,31.743 Z M44.257,28.884 C44.302,28.729 44.38,28.582 44.49,28.443 C44.6,28.305 44.747,28.188 44.931,28.094 C45.115,28.001 45.345,27.954 45.623,27.954 C46.047,27.954 46.363,28.068 46.572,28.297 C46.78,28.525 46.924,28.86 47.006,29.3 L44.178,29.3 C44.186,29.178 44.213,29.039 44.257,28.884 L44.257,28.884 Z" id="Fill-52" sketch:type="MSShapeGroup"></path>
                <path d="M29,0.968 C13.01,0.968 0,13.977 0,29.968 C0,45.958 13.01,58.968 29,58.968 C44.99,58.968 58,45.958 58,29.968 C58,13.977 44.99,0.968 29,0.968 L29,0.968 Z M29,55.968 C14.663,55.968 3,44.305 3,29.968 C3,15.631 14.663,3.968 29,3.968 C43.337,3.968 55,15.631 55,29.968 C55,44.305 43.337,55.968 29,55.968 L29,55.968 Z" id="Fill-53" sketch:type="MSShapeGroup"></path>
            </g>
        </g>
    </g>
</svg>