<?xml version="1.0" encoding="UTF-8" standalone="no"?>
<svg width="50px" height="48px" viewBox="0 0 50 48" version="1.1" xmlns="http://www.w3.org/2000/svg" xmlns:xlink="http://www.w3.org/1999/xlink" xmlns:sketch="http://www.bohemiancoding.com/sketch/ns">
    <!-- Generator: Sketch 3.4.1 (15681) - http://www.bohemiancoding.com/sketch -->
    <title>FeatureCar</title>
    <desc>Created with Sketch.</desc>
    <defs></defs>
    <g id="Map" stroke="none" stroke-width="1" fill="none" fill-rule="evenodd" sketch:type="MSPage">
        <g id="FeatureCar" sketch:type="MSArtboardGroup" transform="translate(-12.000000, -13.000000)" fill="#000000">
            <g sketch:type="MSLayerGroup" transform="translate(12.000000, 13.000000)">
                <path d="M49.163,18.09 L41.005,2.959 C40.353,1.443 38.877,0.468 37.22,0.468 L12.977,0.468 C11.351,0.468 9.886,1.417 9.22,2.895 L0.698,18.215 C0.646,18.308 0.606,18.405 0.576,18.504 C0.22,19.127 0,19.838 0,20.606 L0,36.515 C0,38.801 1.809,40.659 4.068,40.768 L4.068,44.518 C4.068,46.145 5.392,47.468 7.018,47.468 L14.261,47.468 C15.887,47.468 17.209,46.145 17.209,44.518 L17.209,40.788 L32.791,40.788 L32.791,44.518 C32.791,46.145 34.113,47.468 35.739,47.468 L42.982,47.468 C44.608,47.468 45.932,46.145 45.932,44.518 L45.932,40.768 C48.191,40.659 50,38.801 50,36.515 L50,20.606 C50,19.663 49.683,18.797 49.163,18.09 L49.163,18.09 Z M11.944,4.151 C12.121,3.737 12.526,3.469 12.977,3.469 L37.22,3.469 C37.679,3.469 38.087,3.743 38.259,4.169 C38.279,4.22 44.807,16.332 44.807,16.332 L5.178,16.332 C5.178,16.332 11.924,4.2 11.944,4.151 L11.944,4.151 Z M7.068,40.788 L14.209,40.788 L14.209,44.518 L7.068,44.518 L7.068,40.788 Z M35.791,40.788 L42.932,40.788 L42.932,44.518 L35.791,44.518 L35.791,40.788 Z M47,36.515 C47,37.216 46.429,37.787 45.728,37.787 L4.273,37.787 C3.571,37.787 3,37.216 3,36.515 L3,20.606 C3,19.905 3.571,19.333 4.273,19.333 L45.728,19.333 C46.078,19.333 46.396,19.476 46.626,19.706 L46.671,19.79 C46.711,19.864 46.767,19.924 46.817,19.989 C46.923,20.174 47,20.378 47,20.606 L47,36.515 L47,36.515 Z" id="Fill-136" sketch:type="MSShapeGroup"></path>
                <path d="M39.361,23.6 C36.626,23.6 34.401,25.825 34.401,28.56 C34.401,31.296 36.626,33.521 39.361,33.521 C42.096,33.521 44.32,31.296 44.32,28.56 C44.32,25.825 42.096,23.6 39.361,23.6 L39.361,23.6 Z M39.361,30.52 C38.28,30.52 37.401,29.641 37.401,28.56 C37.401,27.48 38.28,26.601 39.361,26.601 C40.441,26.601 41.32,27.48 41.32,28.56 C41.32,29.641 40.441,30.52 39.361,30.52 L39.361,30.52 Z" id="Fill-137" sketch:type="MSShapeGroup"></path>
                <path d="M10.639,23.6 C7.904,23.6 5.68,25.825 5.68,28.56 C5.68,31.296 7.904,33.521 10.639,33.521 C13.374,33.521 15.599,31.296 15.599,28.56 C15.599,25.825 13.374,23.6 10.639,23.6 L10.639,23.6 Z M10.639,30.52 C9.559,30.52 8.68,29.641 8.68,28.56 C8.68,27.48 9.559,26.601 10.639,26.601 C11.72,26.601 12.599,27.48 12.599,28.56 C12.599,29.641 11.72,30.52 10.639,30.52 L10.639,30.52 Z" id="Fill-138" sketch:type="MSShapeGroup"></path>
                <path d="M30.083,29.126 L19.917,29.126 C19.089,29.126 18.417,29.798 18.417,30.626 C18.417,31.455 19.089,32.127 19.917,32.127 L30.083,32.127 C30.911,32.127 31.583,31.455 31.583,30.626 C31.583,29.798 30.911,29.126 30.083,29.126" id="Fill-139" sketch:type="MSShapeGroup"></path>
                <path d="M30.083,24.503 L19.917,24.503 C19.089,24.503 18.417,25.175 18.417,26.004 C18.417,26.832 19.089,27.504 19.917,27.504 L30.083,27.504 C30.911,27.504 31.583,26.832 31.583,26.004 C31.583,25.175 30.911,24.503 30.083,24.503" id="Fill-140" sketch:type="MSShapeGroup"></path>
            </g>
        </g>
    </g>
</svg>