<?xml version="1.0" encoding="UTF-8" standalone="no"?>
<svg width="51px" height="57px" viewBox="0 0 51 57" version="1.1" xmlns="http://www.w3.org/2000/svg" xmlns:xlink="http://www.w3.org/1999/xlink" xmlns:sketch="http://www.bohemiancoding.com/sketch/ns">
    <!-- Generator: Sketch 3.4.1 (15681) - http://www.bohemiancoding.com/sketch -->
    <title>Imported Layers</title>
    <desc>Created with Sketch.</desc>
    <defs></defs>
    <g id="Map" stroke="none" stroke-width="1" fill="none" fill-rule="evenodd" sketch:type="MSPage">
        <g id="FeatureHighSpeedCharger" sketch:type="MSArtboardGroup" transform="translate(-12.000000, -9.000000)" fill="#000000">
            <g id="Imported-Layers" sketch:type="MSLayerGroup" transform="translate(12.000000, 9.000000)">
                <path d="M32.064,8.98 L26.496,8.98 L29.123,1.386 C29.262,0.981 28.735,0.686 28.463,1.017 L19.314,12.151 C19.108,12.402 19.286,12.779 19.61,12.779 L25.179,12.779 L22.553,20.373 C22.413,20.778 22.94,21.073 23.212,20.742 L32.361,9.608 C32.567,9.357 32.389,8.98 32.064,8.98" id="Fill-1" sketch:type="MSShapeGroup"></path>
                <path d="M50,27.38 L41.842,12.25 C41.19,10.734 39.714,9.759 38.057,9.759 L35.757,9.759 C35.608,9.759 35.466,9.826 35.371,9.941 L33.727,11.942 C33.459,12.269 33.691,12.76 34.113,12.76 L38.057,12.76 C38.516,12.76 38.924,13.034 39.096,13.46 C39.117,13.511 45.644,25.623 45.644,25.623 L6.016,25.623 C6.016,25.623 12.761,13.491 12.782,13.442 C12.958,13.027 13.364,12.76 13.814,12.76 L15.207,12.76 C15.506,12.76 15.789,12.626 15.979,12.395 L17.473,10.576 C17.741,10.25 17.509,9.759 17.087,9.759 L13.814,9.759 C12.188,9.759 10.723,10.708 10.057,12.185 L1.536,27.505 C1.483,27.599 1.443,27.696 1.413,27.795 C1.057,28.418 0.837,29.129 0.837,29.897 L0.837,45.805 C0.837,48.092 2.647,49.95 4.906,50.059 L4.906,53.809 C4.906,55.438 6.226,56.759 7.855,56.759 L15.098,56.759 C16.727,56.759 18.046,55.439 18.046,53.81 L18.046,50.079 L33.628,50.079 L33.628,53.809 C33.628,55.438 34.949,56.759 36.578,56.759 L43.82,56.759 C45.449,56.759 46.769,55.438 46.769,53.809 L46.769,50.059 C49.028,49.95 50.837,48.092 50.837,45.805 L50.837,29.897 C50.837,28.953 50.52,28.088 50,27.38 L50,27.38 Z M7.906,50.079 L15.047,50.079 L15.047,53.809 L7.906,53.809 L7.906,50.079 Z M36.628,50.079 L43.769,50.079 L43.769,53.809 L36.628,53.809 L36.628,50.079 Z M47.837,45.805 C47.837,46.507 47.266,47.078 46.565,47.078 L5.11,47.078 C4.409,47.078 3.837,46.507 3.837,45.805 L3.837,29.897 C3.837,29.196 4.409,28.624 5.11,28.624 L46.565,28.624 C46.915,28.624 47.233,28.767 47.463,28.997 L47.508,29.08 C47.548,29.155 47.604,29.214 47.654,29.279 C47.76,29.465 47.837,29.668 47.837,29.897 L47.837,45.805 L47.837,45.805 Z" id="Fill-2" sketch:type="MSShapeGroup"></path>
                <path d="M40.199,32.89 C37.463,32.89 35.239,35.116 35.239,37.851 C35.239,40.587 37.463,42.812 40.199,42.812 C42.933,42.812 45.158,40.587 45.158,37.851 C45.158,35.116 42.933,32.89 40.199,32.89 L40.199,32.89 Z M40.199,39.811 C39.118,39.811 38.239,38.932 38.239,37.851 C38.239,36.771 39.118,35.891 40.199,35.891 C41.279,35.891 42.158,36.771 42.158,37.851 C42.158,38.932 41.279,39.811 40.199,39.811 L40.199,39.811 Z" id="Fill-3" sketch:type="MSShapeGroup"></path>
                <path d="M11.476,32.89 C8.742,32.89 6.517,35.116 6.517,37.851 C6.517,40.587 8.742,42.812 11.476,42.812 C14.211,42.812 16.436,40.587 16.436,37.851 C16.436,35.116 14.211,32.89 11.476,32.89 L11.476,32.89 Z M11.476,39.811 C10.396,39.811 9.517,38.932 9.517,37.851 C9.517,36.771 10.396,35.891 11.476,35.891 C12.557,35.891 13.436,36.771 13.436,37.851 C13.436,38.932 12.557,39.811 11.476,39.811 L11.476,39.811 Z" id="Fill-4" sketch:type="MSShapeGroup"></path>
                <path d="M30.92,38.417 L20.754,38.417 C19.926,38.417 19.254,39.089 19.254,39.917 C19.254,40.746 19.926,41.418 20.754,41.418 L30.92,41.418 C31.749,41.418 32.42,40.746 32.42,39.917 C32.42,39.089 31.749,38.417 30.92,38.417" id="Fill-5" sketch:type="MSShapeGroup"></path>
                <path d="M30.92,33.794 L20.754,33.794 C19.926,33.794 19.254,34.466 19.254,35.295 C19.254,36.123 19.926,36.795 20.754,36.795 L30.92,36.795 C31.749,36.795 32.42,36.123 32.42,35.295 C32.42,34.466 31.749,33.794 30.92,33.794" id="Fill-6" sketch:type="MSShapeGroup"></path>
            </g>
        </g>
    </g>
</svg>