<?xml version="1.0" encoding="UTF-8" standalone="no"?>
<svg width="58px" height="59px" viewBox="0 0 58 59" version="1.1" xmlns="http://www.w3.org/2000/svg" xmlns:xlink="http://www.w3.org/1999/xlink" xmlns:sketch="http://www.bohemiancoding.com/sketch/ns">
    <!-- Generator: Sketch 3.4.1 (15681) - http://www.bohemiancoding.com/sketch -->
    <title>FeatureStationName</title>
    <desc>Created with Sketch.</desc>
    <defs></defs>
    <g id="Map" stroke="none" stroke-width="1" fill="none" fill-rule="evenodd" sketch:type="MSPage">
        <g id="FeatureStationName" sketch:type="MSArtboardGroup" transform="translate(-8.000000, -8.000000)" fill="#000000">
            <g sketch:type="MSLayerGroup" transform="translate(8.000000, 8.000000)">
                <path d="M53.15,0.968 L35.723,0.968 C34.472,0.975 33.295,1.466 32.408,2.352 L1.488,33.271 C0.596,34.165 0.104,35.352 0.104,36.615 C0.104,37.878 0.595,39.065 1.488,39.958 L19.113,57.583 C20.006,58.476 21.193,58.968 22.456,58.968 C23.718,58.968 24.905,58.477 25.798,57.584 L56.691,26.709 C57.517,25.883 57.911,24.773 57.897,23.333 L57.897,5.546 C57.871,2.979 55.796,0.968 53.15,0.968 L53.15,0.968 Z M54.897,23.349 C54.904,24.157 54.714,24.443 54.569,24.588 L23.677,55.462 C23.024,56.114 21.887,56.114 21.234,55.462 L3.609,37.837 C3.283,37.511 3.104,37.076 3.104,36.615 C3.104,36.153 3.283,35.72 3.609,35.394 L34.528,4.474 C34.848,4.154 35.29,3.971 35.731,3.968 L53.172,3.968 C54.147,3.968 54.888,4.659 54.897,5.56 L54.897,23.349 L54.897,23.349 Z" sketch:type="MSShapeGroup"></path>
                <path d="M43.471,10.04 C41.985,10.04 40.589,10.618 39.539,11.669 C37.371,13.838 37.372,17.365 39.539,19.532 C40.59,20.582 41.986,21.16 43.471,21.16 C44.956,21.16 46.353,20.582 47.402,19.532 C48.453,18.482 49.031,17.087 49.031,15.601 C49.031,14.115 48.453,12.719 47.402,11.669 C46.353,10.618 44.957,10.04 43.471,10.04 L43.471,10.04 Z M45.281,17.411 C44.315,18.377 42.627,18.378 41.66,17.411 C40.662,16.413 40.662,14.789 41.66,13.79 C42.144,13.307 42.787,13.04 43.471,13.04 C44.155,13.04 44.798,13.307 45.281,13.79 C45.765,14.273 46.031,14.917 46.031,15.601 C46.031,16.285 45.765,16.928 45.281,17.411 L45.281,17.411 Z" id="Fill-56" sketch:type="MSShapeGroup"></path>
                <path d="M38.513,26.408 L19.211,45.711 C18.625,46.297 18.625,47.246 19.211,47.832 C19.504,48.125 19.888,48.271 20.272,48.271 C20.655,48.271 21.039,48.125 21.332,47.832 L40.634,28.529 C41.22,27.943 41.22,26.994 40.634,26.408 C40.048,25.822 39.099,25.822 38.513,26.408" id="Fill-57" sketch:type="MSShapeGroup"></path>
                <path d="M32.663,18.437 C32.077,17.851 31.128,17.851 30.542,18.437 L11.239,37.739 C10.653,38.325 10.653,39.274 11.239,39.86 C11.532,40.153 11.916,40.3 12.3,40.3 C12.684,40.3 13.068,40.153 13.36,39.86 L32.663,20.558 C33.249,19.972 33.249,19.022 32.663,18.437" id="Fill-58" sketch:type="MSShapeGroup"></path>
            </g>
        </g>
    </g>
</svg>