<?xml version="1.0" encoding="UTF-8" standalone="no"?>
<svg width="54px" height="58px" viewBox="0 0 54 58" version="1.1" xmlns="http://www.w3.org/2000/svg" xmlns:xlink="http://www.w3.org/1999/xlink" xmlns:sketch="http://www.bohemiancoding.com/sketch/ns">
    <!-- Generator: Sketch 3.4.1 (15681) - http://www.bohemiancoding.com/sketch -->
    <title>FeatureCampaigns</title>
    <desc>Created with Sketch.</desc>
    <defs></defs>
    <g id="Map" stroke="none" stroke-width="1" fill="none" fill-rule="evenodd" sketch:type="MSPage">
        <g id="FeatureCampaigns" sketch:type="MSArtboardGroup" transform="translate(-10.000000, -8.000000)" fill="#000000">
            <g sketch:type="MSLayerGroup" transform="translate(10.000000, 8.000000)" id="Imported-Layers">
                <path d="M53.5,22.1583186 C53.5,19.6163186 51.528,17.5543186 49.036,17.3783186 L49.036,1.49931856 C49.036,1.01331856 48.801,0.557318564 48.405,0.276318564 C48.01,-0.00368143616 47.501,-0.0756814362 47.044,0.0823185638 L1.008,16.0823186 C0.404,16.2923186 0,16.8603186 0,17.4993186 L0,32.2203186 C0,33.0483186 0.672,33.7203186 1.5,33.7203186 C2.328,33.7203186 3,33.0483186 3,32.2203186 L3,18.5653186 L46.036,3.60831856 L46.036,41.6573186 L24.793,36.6543186 C24.348,36.5473186 23.877,36.6543186 23.518,36.9383186 C23.159,37.2223186 22.949,37.6563186 22.949,38.1143186 L22.949,54.9993186 L13.716,54.9993186 L13.716,30.3643186 C13.716,29.5363186 13.044,28.8643186 12.216,28.8643186 C11.388,28.8643186 10.716,29.5363186 10.716,30.3643186 L10.716,56.4993186 C10.716,57.3273186 11.388,57.9993186 12.216,57.9993186 L24.449,57.9993186 C25.277,57.9993186 25.949,57.3273186 25.949,56.4993186 L25.949,40.0083186 L47.192,45.0113186 C47.638,45.1183186 48.107,45.0113186 48.468,44.7273186 C48.826,44.4433186 49.036,44.0093186 49.036,43.5513186 L49.036,26.9393186 C51.528,26.7623186 53.5,24.7003186 53.5,22.1583186" sketch:type="MSShapeGroup"></path>
            </g>
        </g>
    </g>
</svg>