<?xml version="1.0" encoding="UTF-8" standalone="no"?>
<svg width="48px" height="59px" viewBox="0 0 48 59" version="1.1" xmlns="http://www.w3.org/2000/svg" xmlns:xlink="http://www.w3.org/1999/xlink" xmlns:sketch="http://www.bohemiancoding.com/sketch/ns">
    <!-- Generator: Sketch 3.4.1 (15681) - http://www.bohemiancoding.com/sketch -->
    <title>Feature</title>
    <desc>Created with Sketch.</desc>
    <defs></defs>
    <g id="Map" stroke="none" stroke-width="1" fill="none" fill-rule="evenodd" sketch:type="MSPage">
        <g id="Feature" sketch:type="MSArtboardGroup" transform="translate(-13.000000, -8.000000)" fill="#000000">
            <g sketch:type="MSLayerGroup" transform="translate(12.000000, 8.000000)">
                <path d="M47.498,58.968 C46.726,58.968 46.069,58.375 46.005,57.591 L45.626,53.004 C45.011,46.669 40.932,39.091 25,39.091 C9.069,39.091 4.987,46.698 4.367,53.08 L3.995,57.591 C3.927,58.418 3.19,59.018 2.377,58.963 C1.551,58.894 0.937,58.17 1.005,57.345 L1.379,52.813 C2.427,42.021 10.816,36.091 25,36.091 C39.186,36.091 47.572,42.002 48.614,52.736 L48.995,57.345 C49.064,58.17 48.449,58.894 47.623,58.963 C47.581,58.966 47.54,58.968 47.498,58.968" id="Fill-70" sketch:type="MSShapeGroup"></path>
                <path d="M24.999,31.876 C17.108,31.876 11.157,24.655 11.157,15.08 C11.157,7.431 17.496,0.968 24.999,0.968 C32.503,0.968 38.843,7.431 38.843,15.08 C38.843,24.655 32.892,31.876 24.999,31.876 L24.999,31.876 Z M24.999,3.968 C19.122,3.968 14.157,9.057 14.157,15.08 C14.157,22.945 18.818,28.876 24.999,28.876 C31.181,28.876 35.843,22.945 35.843,15.08 C35.843,9.057 30.877,3.968 24.999,3.968 L24.999,3.968 Z" id="Fill-71" sketch:type="MSShapeGroup"></path>
            </g>
        </g>
    </g>
</svg>