<?xml version="1.0" encoding="UTF-8" standalone="no"?>
<svg width="58px" height="59px" viewBox="0 0 58 59" version="1.1" xmlns="http://www.w3.org/2000/svg" xmlns:xlink="http://www.w3.org/1999/xlink" xmlns:sketch="http://www.bohemiancoding.com/sketch/ns">
    <!-- Generator: Sketch 3.4.1 (15681) - http://www.bohemiancoding.com/sketch -->
    <title>FeatureDriversLog</title>
    <desc>Created with Sketch.</desc>
    <defs></defs>
    <g id="Map" stroke="none" stroke-width="1" fill="none" fill-rule="evenodd" sketch:type="MSPage">
        <g id="FeatureDriversLog" sketch:type="MSArtboardGroup" transform="translate(-8.000000, -8.000000)" fill="#000000">
            <g sketch:type="MSLayerGroup" transform="translate(8.000000, 8.000000)">
                <path d="M29,0.968 C13.01,0.968 0,13.977 0,29.968 C0,45.958 13.01,58.968 29,58.968 C44.99,58.968 58,45.958 58,29.968 C58,13.977 44.99,0.968 29,0.968 L29,0.968 Z M29,55.968 C14.663,55.968 3,44.305 3,29.968 C3,15.631 14.663,3.968 29,3.968 C43.337,3.968 55,15.631 55,29.968 C55,44.305 43.337,55.968 29,55.968 L29,55.968 Z" id="Fill-63" sketch:type="MSShapeGroup"></path>
                <path d="M29,18.968 C29.828,18.968 30.5,18.296 30.5,17.468 L30.5,11.138 C30.5,10.31 29.828,9.638 29,9.638 C28.172,9.638 27.5,10.31 27.5,11.138 L27.5,17.468 C27.5,18.296 28.172,18.968 29,18.968" id="Fill-64" sketch:type="MSShapeGroup"></path>
                <path d="M16.561,15.407 C15.975,14.821 15.025,14.821 14.44,15.407 C13.854,15.993 13.854,16.942 14.44,17.528 L18.915,22.004 C19.208,22.297 19.592,22.443 19.976,22.443 C20.359,22.443 20.743,22.297 21.036,22.004 C21.622,21.418 21.622,20.469 21.036,19.883 L16.561,15.407" id="Fill-65" sketch:type="MSShapeGroup"></path>
                <path d="M41.439,15.407 L36.964,19.883 C36.378,20.469 36.378,21.418 36.964,22.004 C37.257,22.297 37.641,22.443 38.024,22.443 C38.408,22.443 38.792,22.297 39.085,22.004 L43.561,17.528 C44.147,16.942 44.147,15.993 43.561,15.407 C42.975,14.821 42.025,14.821 41.439,15.407" id="Fill-66" sketch:type="MSShapeGroup"></path>
                <path d="M30.5,34.238 L30.5,25.03 C30.5,24.202 29.828,23.53 29,23.53 C28.172,23.53 27.5,24.202 27.5,25.03 L27.5,34.238 C23.809,34.942 21.01,38.189 21.01,42.082 C21.01,46.488 24.594,50.073 29,50.073 C33.406,50.073 36.99,46.488 36.99,42.082 C36.99,38.189 34.191,34.942 30.5,34.238 L30.5,34.238 Z M29,47.073 C26.248,47.073 24.01,44.834 24.01,42.082 C24.01,39.33 26.248,37.092 29,37.092 C31.752,37.092 33.99,39.33 33.99,42.082 C33.99,44.834 31.752,47.073 29,47.073 L29,47.073 Z" id="Fill-67" sketch:type="MSShapeGroup"></path>
            </g>
        </g>
    </g>
</svg>