<?xml version="1.0" encoding="UTF-8" standalone="no"?>
<svg width="58px" height="59px" viewBox="0 0 58 59" version="1.1" xmlns="http://www.w3.org/2000/svg" xmlns:xlink="http://www.w3.org/1999/xlink" xmlns:sketch="http://www.bohemiancoding.com/sketch/ns">
    <!-- Generator: Sketch 3.4.1 (15681) - http://www.bohemiancoding.com/sketch -->
    <title>FeatureTireService</title>
    <desc>Created with Sketch.</desc>
    <defs></defs>
    <g id="Map" stroke="none" stroke-width="1" fill="none" fill-rule="evenodd" sketch:type="MSPage">
        <g id="FeatureTireService" sketch:type="MSArtboardGroup" transform="translate(-8.000000, -8.000000)" fill="#000000">
            <g sketch:type="MSLayerGroup" transform="translate(8.000000, 8.000000)">
                <path d="M29,0.185 C13.01,0.185 0,13.194 0,29.185 C0,45.175 13.01,58.185 29,58.185 C44.99,58.185 58,45.175 58,29.185 C58,13.194 44.99,0.185 29,0.185 L29,0.185 Z M29,55.185 C14.663,55.185 3,43.522 3,29.185 C3,14.848 14.663,3.185 29,3.185 C43.337,3.185 55,14.848 55,29.185 C55,43.522 43.337,55.185 29,55.185 L29,55.185 Z" id="Fill-92" sketch:type="MSShapeGroup"></path>
                <path d="M29,9.396 C18.089,9.396 9.212,18.273 9.212,29.185 C9.212,40.096 18.089,48.973 29,48.973 C39.911,48.973 48.788,40.096 48.788,29.185 C48.788,18.273 39.911,9.396 29,9.396 L29,9.396 Z M45.712,27.685 L35.896,27.685 C35.714,26.849 35.382,26.07 34.933,25.373 L41.875,18.43 C44.013,20.985 45.4,24.181 45.712,27.685 L45.712,27.685 Z M29,33.244 C26.762,33.244 24.94,31.423 24.94,29.185 C24.94,26.946 26.762,25.125 29,25.125 C31.238,25.125 33.06,26.946 33.06,29.185 C33.06,31.423 31.238,33.244 29,33.244 L29,33.244 Z M32.812,23.252 C32.115,22.802 31.336,22.471 30.5,22.289 L30.5,12.472 C34.003,12.785 37.2,14.172 39.754,16.309 L32.812,23.252 L32.812,23.252 Z M27.5,22.289 C26.664,22.471 25.885,22.802 25.188,23.252 L18.246,16.309 C20.8,14.172 23.997,12.785 27.5,12.472 L27.5,22.289 L27.5,22.289 Z M25.188,35.117 C25.885,35.567 26.664,35.898 27.5,36.08 L27.5,45.897 C23.997,45.584 20.8,44.197 18.246,42.06 L25.188,35.117 L25.188,35.117 Z M30.5,36.08 C31.336,35.898 32.115,35.567 32.812,35.117 L39.754,42.06 C37.2,44.197 34.003,45.584 30.5,45.897 L30.5,36.08 L30.5,36.08 Z M16.125,18.43 L23.067,25.373 C22.618,26.07 22.286,26.849 22.105,27.685 L12.288,27.685 C12.6,24.181 13.987,20.985 16.125,18.43 L16.125,18.43 Z M12.288,30.685 L22.105,30.685 C22.286,31.52 22.618,32.299 23.067,32.996 L16.125,39.939 C13.987,37.385 12.6,34.188 12.288,30.685 L12.288,30.685 Z M41.875,39.939 L34.933,32.996 C35.382,32.299 35.714,31.52 35.896,30.685 L45.712,30.685 C45.4,34.188 44.013,37.385 41.875,39.939 L41.875,39.939 Z" id="Fill-93" sketch:type="MSShapeGroup"></path>
            </g>
        </g>
    </g>
</svg>