<?xml version="1.0" encoding="UTF-8" standalone="no"?>
<svg width="50px" height="58px" viewBox="0 0 50 58" version="1.1" xmlns="http://www.w3.org/2000/svg" xmlns:xlink="http://www.w3.org/1999/xlink" xmlns:sketch="http://www.bohemiancoding.com/sketch/ns">
    <!-- Generator: Sketch 3.4.1 (15681) - http://www.bohemiancoding.com/sketch -->
    <title>FeatureBakery</title>
    <desc>Created with Sketch.</desc>
    <defs></defs>
    <g id="Map" stroke="none" stroke-width="1" fill="none" fill-rule="evenodd" sketch:type="MSPage">
        <g id="FeatureBakery" sketch:type="MSArtboardGroup" transform="translate(-12.000000, -9.000000)" fill="#000000">
            <g sketch:type="MSLayerGroup" transform="translate(12.000000, 8.000000)">
                <path d="M44.3,39.37 C43.514,39.104 42.664,39.526 42.399,40.313 C42.399,40.313 38.295,52.656 37.96,53.288 C36.782,55.508 35.718,55.963 34.481,55.963 L16.08,55.963 C14.844,55.963 13.779,55.508 12.602,53.289 C12.267,52.656 8.162,40.313 8.162,40.313 C7.898,39.526 7.046,39.105 6.262,39.37 C5.477,39.635 5.055,40.487 5.32,41.274 C5.32,41.274 9.511,53.864 9.953,54.698 C10.925,56.531 12.617,58.968 16.08,58.968 L34.481,58.968 C37.944,58.968 39.637,56.531 40.609,54.698 C41.051,53.864 45.241,41.274 45.241,41.274 C45.507,40.487 45.085,39.635 44.3,39.37" id="Fill-85" sketch:type="MSShapeGroup"></path>
                <path d="M42.063,17.149 C42.37,14.087 41.431,11.037 39.311,8.256 C36.217,4.198 30.856,1.279 25.97,0.994 C22.399,0.781 18.51,1.89 15.164,4.036 C10.038,7.323 7.404,12.153 7.934,17.15 C5.462,18.316 0,21.644 0,28.3 C0,36.055 6.551,37.64 8.306,37.64 C10.222,37.64 11.823,37.003 13.004,36.448 C13.943,36.006 15.006,35.506 17.087,35.499 C19.117,35.513 20.104,35.992 21.152,36.503 C22.209,37.021 23.206,37.509 25.273,37.525 L25.417,37.526 C27.378,37.526 28.414,37.036 29.415,36.563 C30.45,36.075 31.429,35.614 33.495,35.614 C35.527,35.628 36.513,36.109 37.56,36.62 C38.618,37.137 39.617,37.627 41.685,37.64 L41.694,37.64 C43.449,37.64 50,36.055 50,28.3 C50,21.641 44.533,18.312 42.063,17.149 L42.063,17.149 Z M41.649,34.634 C40.306,34.618 39.764,34.354 38.871,33.917 C37.694,33.343 36.229,32.627 33.515,32.609 L33.406,32.609 C30.758,32.609 29.306,33.294 28.137,33.844 C27.244,34.266 26.706,34.52 25.417,34.52 L25.301,34.519 C23.911,34.51 23.369,34.244 22.459,33.797 C21.282,33.224 19.817,32.511 17.092,32.494 C14.542,32.502 13.1,33.082 11.729,33.727 C10.774,34.176 9.621,34.635 8.393,34.638 C7.841,34.6 3,34.104 3,28.3 C3,22.044 9.798,19.601 10.084,19.501 C10.801,19.255 11.222,18.512 11.066,17.769 C10.19,13.613 12.326,9.425 16.781,6.567 C19.35,4.92 22.39,3.974 25.122,3.974 C25.348,3.974 25.573,3.98 25.795,3.993 C29.859,4.231 34.332,6.678 36.927,10.08 C38.224,11.781 39.624,14.496 38.935,17.769 C38.778,18.512 39.199,19.255 39.916,19.501 C39.987,19.525 47,22.004 47,28.3 C47,33.981 42.363,34.576 41.649,34.634 L41.649,34.634 Z" id="Fill-86" sketch:type="MSShapeGroup"></path>
            </g>
        </g>
    </g>
</svg>