<?xml version="1.0" encoding="UTF-8" standalone="no"?>
<svg width="50px" height="59px" viewBox="0 0 50 59" version="1.1" xmlns="http://www.w3.org/2000/svg" xmlns:xlink="http://www.w3.org/1999/xlink" xmlns:sketch="http://www.bohemiancoding.com/sketch/ns">
    <!-- Generator: Sketch 3.4.1 (15681) - http://www.bohemiancoding.com/sketch -->
    <title>FeatureTruckDiesel</title>
    <desc>Created with Sketch.</desc>
    <defs></defs>
    <g id="Map" stroke="none" stroke-width="1" fill="none" fill-rule="evenodd" sketch:type="MSPage">
        <g id="FeatureTruckDiesel" sketch:type="MSArtboardGroup" transform="translate(-12.000000, -8.000000)" fill="#000000">
            <g sketch:type="MSLayerGroup" transform="translate(12.000000, 8.000000)">
                <path d="M39.272,34.996 C36.536,34.996 34.312,37.229 34.312,39.974 C34.312,42.718 36.536,44.951 39.272,44.951 C42.006,44.951 44.231,42.718 44.231,39.974 C44.231,37.229 42.006,34.996 39.272,34.996 L39.272,34.996 Z M39.272,41.951 C38.191,41.951 37.312,41.064 37.312,39.974 C37.312,38.883 38.191,37.996 39.272,37.996 C40.352,37.996 41.231,38.883 41.231,39.974 C41.231,41.064 40.352,41.951 39.272,41.951 L39.272,41.951 Z" id="Fill-131" sketch:type="MSShapeGroup"></path>
                <path d="M10.729,34.996 C7.994,34.996 5.77,37.229 5.77,39.974 C5.77,42.718 7.994,44.951 10.729,44.951 C13.464,44.951 15.689,42.718 15.689,39.974 C15.689,37.229 13.464,34.996 10.729,34.996 L10.729,34.996 Z M10.729,41.951 C9.649,41.951 8.77,41.064 8.77,39.974 C8.77,38.883 9.649,37.996 10.729,37.996 C11.81,37.996 12.689,38.883 12.689,39.974 C12.689,41.064 11.81,41.951 10.729,41.951 L10.729,41.951 Z" id="Fill-132" sketch:type="MSShapeGroup"></path>
                <path d="M45.728,0.968 L4.273,0.968 C1.917,0.968 0,2.891 0,5.255 L0,47.968 C0,50.293 1.857,52.181 4.158,52.243 L4.158,56.012 C4.158,57.642 5.481,58.968 7.107,58.968 L14.351,58.968 C15.977,58.968 17.299,57.642 17.299,56.012 L17.299,52.255 L32.701,52.255 L32.701,56.012 C32.701,57.642 34.024,58.968 35.65,58.968 L42.893,58.968 C44.519,58.968 45.842,57.642 45.842,56.012 L45.842,52.243 C48.143,52.181 50,50.293 50,47.968 L50,5.255 C50,2.891 48.083,0.968 45.728,0.968 L45.728,0.968 Z M4.273,3.968 L45.728,3.968 C46.429,3.968 47,4.545 47,5.255 L47,17.139 L44.785,10.617 C44.152,9.047 42.652,8.032 40.964,8.032 L9.328,8.032 C7.673,8.032 6.184,9.021 5.504,10.63 L3,17.638 L3,5.255 C3,4.545 3.571,3.968 4.273,3.968 L4.273,3.968 Z M45.522,22.118 L4.584,22.118 L8.297,11.721 C8.475,11.303 8.879,11.032 9.328,11.032 L40.964,11.032 C41.422,11.032 41.83,11.31 41.974,11.661 L45.522,22.118 L45.522,22.118 Z M14.299,55.968 L7.158,56.012 L7.158,52.255 L14.299,52.255 L14.299,55.968 L14.299,55.968 Z M42.842,55.968 L35.701,56.012 L35.701,52.255 L42.842,52.255 L42.842,55.968 L42.842,55.968 Z M47,47.968 C47,48.678 46.429,49.255 45.728,49.255 L4.273,49.255 C3.571,49.255 3,48.678 3,47.968 L3,26.405 C3,25.695 3.571,25.118 4.273,25.118 L45.728,25.118 C46.429,25.118 47,25.695 47,26.405 L47,47.968 L47,47.968 Z" id="Fill-133" sketch:type="MSShapeGroup"></path>
                <path d="M30.083,40.855 L19.917,40.855 C19.089,40.855 18.417,41.527 18.417,42.355 C18.417,43.183 19.089,43.855 19.917,43.855 L30.083,43.855 C30.911,43.855 31.583,43.183 31.583,42.355 C31.583,41.527 30.911,40.855 30.083,40.855" id="Fill-134" sketch:type="MSShapeGroup"></path>
                <path d="M30.083,36.092 L19.917,36.092 C19.089,36.092 18.417,36.764 18.417,37.592 C18.417,38.42 19.089,39.092 19.917,39.092 L30.083,39.092 C30.911,39.092 31.583,38.42 31.583,37.592 C31.583,36.764 30.911,36.092 30.083,36.092" id="Fill-135" sketch:type="MSShapeGroup"></path>
            </g>
        </g>
    </g>
</svg>