<?xml version="1.0" encoding="UTF-8" standalone="no"?>
<svg width="54px" height="58px" viewBox="0 0 54 58" version="1.1" xmlns="http://www.w3.org/2000/svg" xmlns:xlink="http://www.w3.org/1999/xlink" xmlns:sketch="http://www.bohemiancoding.com/sketch/ns">
    <!-- Generator: Sketch 3.4.1 (15681) - http://www.bohemiancoding.com/sketch -->
    <title>Feature24HourOpen</title>
    <desc>Created with Sketch.</desc>
    <defs></defs>
    <g id="Map" stroke="none" stroke-width="1" fill="none" fill-rule="evenodd" sketch:type="MSPage">
        <g id="Feature24HourOpen" sketch:type="MSArtboardGroup" transform="translate(-10.000000, -9.000000)" fill="#000000">
            <g sketch:type="MSLayerGroup" transform="translate(10.000000, 8.000000)">
                <path d="M16.964,31.89 C16.674,32.158 16.355,32.404 16.005,32.626 C15.656,32.848 15.326,33.066 15.016,33.281 C14.411,33.698 13.837,34.109 13.292,34.512 C12.747,34.916 12.273,35.356 11.87,35.834 C11.466,36.311 11.147,36.852 10.911,37.458 C10.676,38.063 10.558,38.776 10.558,39.596 L20.928,39.596 L20.928,37.135 L14.25,37.135 C14.6,36.65 15.003,36.227 15.461,35.864 C15.917,35.5 16.388,35.161 16.872,34.845 C17.357,34.529 17.837,34.209 18.315,33.886 C18.792,33.564 19.219,33.204 19.596,32.807 C19.973,32.411 20.275,31.957 20.504,31.445 C20.733,30.935 20.847,30.323 20.847,29.61 C20.847,28.924 20.716,28.305 20.454,27.754 C20.191,27.203 19.838,26.738 19.394,26.362 C18.951,25.985 18.436,25.696 17.851,25.494 C17.266,25.292 16.651,25.191 16.005,25.191 C15.157,25.191 14.408,25.336 13.755,25.625 C13.103,25.915 12.562,26.318 12.131,26.836 C11.701,27.354 11.379,27.959 11.164,28.651 C10.948,29.344 10.854,30.094 10.88,30.901 L13.625,30.901 C13.625,30.524 13.662,30.144 13.735,29.761 C13.809,29.378 13.934,29.028 14.109,28.712 C14.283,28.396 14.515,28.141 14.804,27.945 C15.094,27.75 15.447,27.653 15.863,27.653 C16.482,27.653 16.99,27.844 17.386,28.228 C17.784,28.611 17.982,29.145 17.982,29.832 C17.982,30.262 17.885,30.645 17.69,30.982 C17.495,31.318 17.252,31.62 16.964,31.89" id="Fill-43" sketch:type="MSShapeGroup"></path>
                <path d="M30.37,39.596 L30.37,36.328 L32.246,36.328 L32.246,33.967 L30.37,33.967 L30.37,25.474 L27.808,25.474 L21.675,33.705 L21.675,36.328 L27.646,36.328 L27.646,39.596 L30.37,39.596 L30.37,39.596 Z M23.934,33.967 L27.585,29.065 L27.646,29.065 L27.646,33.967 L23.934,33.967 L23.934,33.967 Z" id="Fill-44" sketch:type="MSShapeGroup"></path>
                <path d="M36.523,34.129 C36.523,33.066 36.696,32.303 37.046,31.839 C37.396,31.375 37.961,31.143 38.741,31.143 C39.427,31.143 39.905,31.355 40.174,31.778 C40.442,32.202 40.577,32.845 40.577,33.705 L40.577,39.596 L43.442,39.596 L43.442,33.181 C43.442,32.535 43.385,31.947 43.27,31.415 C43.156,30.884 42.957,30.434 42.675,30.063 C42.393,29.694 42.006,29.405 41.515,29.196 C41.024,28.987 40.396,28.884 39.629,28.884 C39.091,28.884 38.54,29.021 37.975,29.297 C37.41,29.573 36.945,30.013 36.583,30.618 L36.523,30.618 L36.523,25.191 L33.658,25.191 L33.658,39.596 L36.523,39.596 L36.523,34.129" id="Fill-45" sketch:type="MSShapeGroup"></path>
                <path d="M41.477,10.105 C40.784,9.652 39.855,9.85 39.402,10.544 C38.95,11.238 39.147,12.168 39.841,12.619 C47.162,17.384 51.24,25.744 50.484,34.438 C49.358,47.388 37.896,56.998 24.955,55.878 C18.683,55.331 12.998,52.375 8.948,47.554 C4.9,42.731 2.97,36.621 3.516,30.349 C4.063,24.076 7.019,18.392 11.84,14.342 C16.185,10.693 21.576,8.773 27.19,8.826 L24.902,11.113 C24.317,11.699 24.317,12.648 24.902,13.234 C25.195,13.527 25.579,13.674 25.963,13.674 C26.347,13.674 26.731,13.527 27.024,13.234 L31.877,8.382 C32.463,7.796 32.463,6.847 31.877,6.261 L27.024,1.407 C26.438,0.821 25.488,0.821 24.902,1.407 C24.317,1.993 24.317,2.942 24.902,3.528 L27.202,5.828 C20.878,5.771 14.806,7.934 9.911,12.045 C4.476,16.609 1.143,23.018 0.527,30.089 C-0.089,37.159 2.086,44.047 6.651,49.482 C11.216,54.918 17.624,58.251 24.695,58.866 C25.476,58.935 26.251,58.968 27.02,58.968 C40.639,58.968 52.27,48.516 53.473,34.698 C54.325,24.897 49.73,15.475 41.477,10.105" id="Fill-46" sketch:type="MSShapeGroup"></path>
            </g>
        </g>
    </g>
</svg>