<?xml version="1.0" encoding="UTF-8" standalone="no"?>
<svg width="56px" height="59px" viewBox="0 0 56 59" version="1.1" xmlns="http://www.w3.org/2000/svg" xmlns:xlink="http://www.w3.org/1999/xlink" xmlns:sketch="http://www.bohemiancoding.com/sketch/ns">
    <!-- Generator: Sketch 3.4.1 (15681) - http://www.bohemiancoding.com/sketch -->
    <title>FeatureBurger</title>
    <desc>Created with Sketch.</desc>
    <defs></defs>
    <g id="Map" stroke="none" stroke-width="1" fill="none" fill-rule="evenodd" sketch:type="MSPage">
        <g id="FeatureBurger" sketch:type="MSArtboardGroup" transform="translate(-9.000000, -8.000000)" fill="#000000">
            <g sketch:type="MSLayerGroup" transform="translate(9.000000, 8.000000)">
                <path d="M53.858,46.937 L2.142,46.937 C1.308,46.937 0.631,47.609 0.631,48.437 C0.631,50.287 1.127,52.11 2.064,53.71 C3.967,56.953 7.483,58.968 11.24,58.968 L44.761,58.968 C50.61,58.968 55.369,54.244 55.369,48.437 C55.369,47.609 54.692,46.937 53.858,46.937 L53.858,46.937 Z M44.761,55.968 L11.24,55.968 C8.555,55.968 6.04,54.524 4.676,52.201 C4.263,51.496 3.97,50.731 3.807,49.937 L52.195,49.937 C51.493,53.374 48.426,55.968 44.761,55.968 L44.761,55.968 Z" id="Fill-72" sketch:type="MSShapeGroup"></path>
                <path d="M54.292,31.537 C54.154,31.496 54.01,31.467 53.858,31.467 C52.192,31.467 51.455,30.94 50.434,30.21 C49.298,29.397 47.885,28.387 45.244,28.387 C42.601,28.387 41.187,29.397 40.051,30.21 C39.031,30.94 38.293,31.467 36.626,31.467 C34.959,31.467 34.221,30.94 33.199,30.209 C32.062,29.397 30.649,28.387 28.006,28.387 C25.363,28.387 23.95,29.397 22.813,30.21 C21.793,30.94 21.055,31.467 19.389,31.467 C17.72,31.467 16.981,30.94 15.959,30.209 C14.823,29.397 13.408,28.387 10.765,28.387 C8.122,28.387 6.707,29.397 5.571,30.209 C4.549,30.94 3.811,31.467 2.142,31.467 C1.99,31.467 1.847,31.496 1.708,31.537 C1.019,31.677 0.5,32.282 0.5,33.007 L0.5,39.727 C0.5,41.319 1.806,42.615 3.409,42.615 L52.591,42.615 C54.195,42.615 55.5,41.319 55.5,39.727 L55.5,33.007 C55.5,32.282 54.981,31.677 54.292,31.537 L54.292,31.537 Z M3.522,39.615 L3.522,34.355 C5.305,34.077 6.417,33.3 7.336,32.644 C8.358,31.914 9.097,31.387 10.765,31.387 C12.434,31.387 13.172,31.914 14.194,32.644 C15.33,33.456 16.745,34.467 19.389,34.467 C22.03,34.467 23.444,33.456 24.58,32.644 C25.6,31.914 26.338,31.387 28.006,31.387 C29.674,31.387 30.411,31.914 31.434,32.644 C32.57,33.456 33.984,34.467 36.626,34.467 C39.268,34.467 40.682,33.456 41.818,32.644 C42.838,31.914 43.576,31.387 45.244,31.387 C46.909,31.387 47.647,31.914 48.667,32.644 C49.585,33.3 50.696,34.077 52.478,34.354 L52.478,39.615 L3.522,39.615 L3.522,39.615 Z" id="Fill-73" sketch:type="MSShapeGroup"></path>
                <path d="M2.142,24.06 L53.858,24.06 C53.865,24.062 53.873,24.06 53.878,24.06 C54.713,24.06 55.389,23.389 55.389,22.56 C55.389,22.474 55.382,22.389 55.367,22.306 C55.348,20.629 55.131,18.96 54.723,17.341 C52.289,7.7 43.609,0.968 33.616,0.968 L22.384,0.968 C12.391,0.968 3.711,7.7 1.277,17.341 C0.848,19.042 0.631,20.798 0.631,22.56 C0.631,23.389 1.308,24.06 2.142,24.06 L2.142,24.06 Z M4.209,18.069 C6.305,9.767 13.779,3.968 22.384,3.968 L33.616,3.968 C42.221,3.968 49.695,9.767 51.791,18.069 C52.038,19.049 52.203,20.05 52.286,21.06 L3.714,21.06 C3.797,20.05 3.962,19.049 4.209,18.069 L4.209,18.069 Z" id="Fill-74" sketch:type="MSShapeGroup"></path>
                <path d="M18.07,8.073 C17.174,8.073 16.448,8.794 16.448,9.683 C16.448,10.572 17.174,11.293 18.07,11.293 C18.966,11.293 19.692,10.572 19.692,9.683 C19.692,8.794 18.966,8.073 18.07,8.073" id="Fill-75" sketch:type="MSShapeGroup"></path>
                <path d="M27.894,8.073 C26.999,8.073 26.272,8.794 26.272,9.683 C26.272,10.572 26.999,11.293 27.894,11.293 C28.79,11.293 29.517,10.572 29.517,9.683 C29.517,8.794 28.79,8.073 27.894,8.073" id="Fill-76" sketch:type="MSShapeGroup"></path>
                <path d="M37.824,8.073 C36.928,8.073 36.202,8.794 36.202,9.683 C36.202,10.572 36.928,11.293 37.824,11.293 C38.72,11.293 39.446,10.572 39.446,9.683 C39.446,8.794 38.72,8.073 37.824,8.073" id="Fill-77" sketch:type="MSShapeGroup"></path>
                <path d="M13.105,13.735 C12.209,13.735 11.483,14.456 11.483,15.345 C11.483,16.235 12.209,16.956 13.105,16.956 C14.001,16.956 14.727,16.235 14.727,15.345 C14.727,14.456 14.001,13.735 13.105,13.735" id="Fill-78" sketch:type="MSShapeGroup"></path>
                <path d="M23.035,13.735 C22.139,13.735 21.413,14.456 21.413,15.345 C21.413,16.235 22.139,16.956 23.035,16.956 C23.931,16.956 24.657,16.235 24.657,15.345 C24.657,14.456 23.931,13.735 23.035,13.735" id="Fill-79" sketch:type="MSShapeGroup"></path>
                <path d="M32.754,13.735 C31.858,13.735 31.132,14.456 31.132,15.345 C31.132,16.235 31.858,16.956 32.754,16.956 C33.65,16.956 34.376,16.235 34.376,15.345 C34.376,14.456 33.65,13.735 32.754,13.735" id="Fill-80" sketch:type="MSShapeGroup"></path>
                <path d="M42.895,13.735 C41.999,13.735 41.273,14.456 41.273,15.345 C41.273,16.235 41.999,16.956 42.895,16.956 C43.791,16.956 44.517,16.235 44.517,15.345 C44.517,14.456 43.791,13.735 42.895,13.735" id="Fill-81" sketch:type="MSShapeGroup"></path>
            </g>
        </g>
    </g>
</svg>