<?xml version="1.0" encoding="UTF-8" standalone="no"?>
<svg width="58px" height="59px" viewBox="0 0 58 59" version="1.1" xmlns="http://www.w3.org/2000/svg" xmlns:xlink="http://www.w3.org/1999/xlink" xmlns:sketch="http://www.bohemiancoding.com/sketch/ns">
    <!-- Generator: Sketch 3.4.1 (15681) - http://www.bohemiancoding.com/sketch -->
    <title>FeatureOpeningHours</title>
    <desc>Created with Sketch.</desc>
    <defs></defs>
    <g id="Map" stroke="none" stroke-width="1" fill="none" fill-rule="evenodd" sketch:type="MSPage">
        <g id="FeatureOpeningHours" sketch:type="MSArtboardGroup" transform="translate(-8.000000, -8.000000)" fill="#000000">
            <g sketch:type="MSLayerGroup" transform="translate(8.000000, 8.000000)">
                <path d="M29,58.968 C13.01,58.968 0,45.958 0,29.968 C0,13.977 13.01,0.968 29,0.968 C44.99,0.968 58,13.977 58,29.968 C58,45.958 44.99,58.968 29,58.968 L29,58.968 Z M29,3.968 C14.663,3.968 3,15.631 3,29.968 C3,44.305 14.663,55.968 29,55.968 C43.337,55.968 55,44.305 55,29.968 C55,15.631 43.337,3.968 29,3.968 L29,3.968 Z" id="Fill-68" sketch:type="MSShapeGroup"></path>
                <path d="M38.661,37.242 C38.399,37.242 38.134,37.174 37.893,37.029 L28.231,31.255 C27.777,30.984 27.5,30.495 27.5,29.968 L27.5,13.509 C27.5,12.681 28.172,12.009 29,12.009 C29.828,12.009 30.5,12.681 30.5,13.509 L30.5,29.117 L39.432,34.455 C40.143,34.88 40.375,35.801 39.949,36.512 C39.669,36.981 39.171,37.242 38.661,37.242" id="Fill-69" sketch:type="MSShapeGroup"></path>
            </g>
        </g>
    </g>
</svg>