<?xml version="1.0" encoding="UTF-8" standalone="no"?>
<svg width="58px" height="59px" viewBox="0 0 58 59" version="1.1" xmlns="http://www.w3.org/2000/svg" xmlns:xlink="http://www.w3.org/1999/xlink" xmlns:sketch="http://www.bohemiancoding.com/sketch/ns">
    <!-- Generator: Sketch 3.4.1 (15681) - http://www.bohemiancoding.com/sketch -->
    <title>FeatureAdBlue</title>
    <desc>Created with Sketch.</desc>
    <defs></defs>
    <g id="Map" stroke="none" stroke-width="1" fill="none" fill-rule="evenodd" sketch:type="MSPage">
        <g id="FeatureAdBlue" sketch:type="MSArtboardGroup" transform="translate(-8.000000, -8.000000)" fill="#000000">
            <g sketch:type="MSLayerGroup" transform="translate(8.000000, 8.000000)">
                <path d="M29,0.968 C13.01,0.968 0,13.978 0,29.968 C0,45.958 13.01,58.968 29,58.968 C44.99,58.968 58,45.958 58,29.968 C58,13.978 44.99,0.968 29,0.968 L29,0.968 Z M29,55.968 C14.663,55.968 3,44.305 3,29.968 C3,15.631 14.663,3.968 29,3.968 C43.337,3.968 55,15.631 55,29.968 C55,44.305 43.337,55.968 29,55.968 L29,55.968 Z" id="Fill-26" sketch:type="MSShapeGroup"></path>
                <path d="M25.399,17.17 L23.013,17.17 L19.012,27.752 L21.353,27.752 L22.183,25.396 L26.14,25.396 L26.94,27.752 L29.356,27.752 L25.399,17.17 L25.399,17.17 Z M22.791,23.662 L24.169,19.779 L24.199,19.779 L25.533,23.662 L22.791,23.662 L22.791,23.662 Z" id="Fill-27" sketch:type="MSShapeGroup"></path>
                <path d="M37.522,27.752 L37.522,17.17 L35.417,17.17 L35.417,21.024 L35.388,21.024 C35.15,20.648 34.827,20.364 34.417,20.172 C34.007,19.979 33.574,19.883 33.12,19.883 C32.557,19.883 32.063,19.994 31.638,20.216 C31.213,20.438 30.86,20.733 30.578,21.098 C30.297,21.463 30.084,21.886 29.941,22.365 C29.798,22.844 29.726,23.341 29.726,23.855 C29.726,24.388 29.798,24.902 29.941,25.396 C30.084,25.89 30.297,26.327 30.578,26.707 C30.86,27.088 31.218,27.389 31.653,27.612 C32.087,27.834 32.591,27.945 33.165,27.945 C33.669,27.945 34.121,27.853 34.52,27.671 C34.921,27.488 35.245,27.189 35.491,26.774 L35.521,26.774 L35.521,27.752 L37.522,27.752 L37.522,27.752 Z M35.402,24.818 C35.344,25.114 35.245,25.379 35.106,25.611 C34.968,25.843 34.782,26.028 34.55,26.166 C34.318,26.305 34.029,26.374 33.683,26.374 C33.357,26.374 33.078,26.302 32.846,26.159 C32.614,26.016 32.421,25.828 32.268,25.596 C32.115,25.364 32.003,25.099 31.934,24.803 C31.865,24.506 31.83,24.21 31.83,23.914 C31.83,23.598 31.863,23.294 31.927,23.002 C31.991,22.711 32.095,22.452 32.238,22.224 C32.381,21.997 32.572,21.815 32.809,21.676 C33.046,21.538 33.337,21.468 33.683,21.468 C34.029,21.468 34.315,21.538 34.543,21.676 C34.77,21.815 34.955,21.995 35.099,22.217 C35.242,22.439 35.344,22.696 35.402,22.987 C35.462,23.279 35.491,23.583 35.491,23.899 C35.491,24.215 35.462,24.521 35.402,24.818 L35.402,24.818 Z" id="Fill-28" sketch:type="MSShapeGroup"></path>
                <path d="M20.872,36.823 C21.346,36.595 21.704,36.303 21.947,35.948 C22.188,35.592 22.309,35.148 22.309,34.614 C22.309,34.12 22.228,33.705 22.065,33.369 C21.902,33.034 21.672,32.764 21.376,32.562 C21.079,32.359 20.724,32.213 20.309,32.125 C19.894,32.035 19.434,31.991 18.93,31.991 L13.951,31.991 L13.951,42.573 L19.078,42.573 C19.553,42.573 20.015,42.513 20.464,42.395 C20.914,42.276 21.314,42.094 21.665,41.846 C22.016,41.599 22.295,41.281 22.502,40.89 C22.71,40.5 22.813,40.039 22.813,39.505 C22.813,38.843 22.653,38.277 22.332,37.808 C22.011,37.339 21.524,37.01 20.872,36.823 L20.872,36.823 Z M16.278,33.799 L18.456,33.799 C18.664,33.799 18.864,33.817 19.057,33.851 C19.249,33.885 19.419,33.947 19.568,34.036 C19.716,34.125 19.835,34.249 19.923,34.407 C20.012,34.564 20.057,34.767 20.057,35.014 C20.057,35.458 19.923,35.78 19.656,35.978 C19.39,36.175 19.049,36.274 18.634,36.274 L16.278,36.274 L16.278,33.799 L16.278,33.799 Z M20.346,40.053 C20.252,40.231 20.126,40.372 19.968,40.476 C19.81,40.579 19.627,40.653 19.419,40.698 C19.212,40.742 18.994,40.764 18.768,40.764 L16.278,40.764 L16.278,37.859 L18.812,37.859 C19.315,37.859 19.721,37.976 20.027,38.208 C20.333,38.44 20.487,38.828 20.487,39.371 C20.487,39.648 20.44,39.875 20.346,40.053 L20.346,40.053 Z" id="Fill-29" sketch:type="MSShapeGroup"></path>
                <path d="M24.221,31.991 L26.326,31.991 L26.326,42.573 L24.221,42.573 L24.221,31.991 Z" id="Fill-30" sketch:type="MSShapeGroup"></path>
                <path d="M33.069,38.927 C33.069,39.707 32.94,40.268 32.684,40.609 C32.426,40.95 32.012,41.12 31.438,41.12 C30.934,41.12 30.584,40.965 30.387,40.653 C30.188,40.342 30.09,39.87 30.09,39.238 L30.09,34.911 L27.986,34.911 L27.986,39.623 C27.986,40.098 28.027,40.53 28.111,40.92 C28.195,41.31 28.341,41.642 28.548,41.913 C28.756,42.185 29.04,42.395 29.401,42.543 C29.762,42.691 30.223,42.765 30.786,42.765 C31.231,42.765 31.666,42.666 32.091,42.469 C32.516,42.271 32.861,41.95 33.128,41.506 L33.173,41.506 L33.173,42.573 L35.173,42.573 L35.173,34.911 L33.069,34.911 L33.069,38.927" id="Fill-31" sketch:type="MSShapeGroup"></path>
                <path d="M43.888,37.549 C43.75,37.005 43.525,36.521 43.214,36.096 C42.902,35.672 42.505,35.333 42.02,35.081 C41.537,34.829 40.969,34.703 40.316,34.703 C39.734,34.703 39.202,34.807 38.723,35.014 C38.244,35.221 37.831,35.506 37.486,35.866 C37.14,36.227 36.873,36.655 36.685,37.148 C36.498,37.642 36.404,38.176 36.404,38.749 C36.404,39.342 36.495,39.885 36.678,40.379 C36.861,40.873 37.12,41.298 37.456,41.654 C37.792,42.01 38.202,42.284 38.686,42.476 C39.17,42.669 39.714,42.765 40.316,42.765 C41.186,42.765 41.927,42.568 42.539,42.172 C43.152,41.777 43.607,41.12 43.903,40.201 L42.05,40.201 C41.981,40.439 41.794,40.664 41.487,40.876 C41.181,41.088 40.815,41.194 40.391,41.194 C39.798,41.194 39.343,41.041 39.027,40.735 C38.711,40.428 38.538,39.935 38.508,39.253 L44.036,39.253 C44.076,38.66 44.027,38.092 43.888,37.549 L43.888,37.549 Z M38.508,37.919 C38.518,37.771 38.55,37.603 38.604,37.415 C38.659,37.228 38.753,37.049 38.886,36.881 C39.02,36.714 39.197,36.573 39.42,36.459 C39.642,36.346 39.921,36.289 40.257,36.289 C40.77,36.289 41.154,36.427 41.406,36.704 C41.658,36.98 41.833,37.385 41.932,37.919 L38.508,37.919 L38.508,37.919 Z" id="Fill-32" sketch:type="MSShapeGroup"></path>
            </g>
        </g>
    </g>
</svg>