<?xml version="1.0" encoding="UTF-8" standalone="no"?>
<svg width="42px" height="58px" viewBox="0 0 42 58" version="1.1" xmlns="http://www.w3.org/2000/svg" xmlns:xlink="http://www.w3.org/1999/xlink" xmlns:sketch="http://www.bohemiancoding.com/sketch/ns">
    <!-- Generator: Sketch 3.4.1 (15681) - http://www.bohemiancoding.com/sketch -->
    <title>FeatureToiletWomen</title>
    <desc>Created with Sketch.</desc>
    <defs></defs>
    <g id="Map" stroke="none" stroke-width="1" fill="none" fill-rule="evenodd" sketch:type="MSPage">
        <g id="FeatureToiletWomen" sketch:type="MSArtboardGroup" transform="translate(-16.000000, -8.000000)" fill="#000000">
            <g sketch:type="MSLayerGroup" transform="translate(16.000000, 8.000000)">
                <path d="M1.5,29.445 C4.16,29.445 6.389,28.503 8.123,26.645 C12.521,21.932 12.078,12.812 12.024,11.92 C12.05,7.08 16.149,3 21,3 C25.866,3 29.977,7.106 29.98,11.881 C29.956,12.288 29.463,21.887 34.018,26.709 C35.733,28.524 37.913,29.445 40.5,29.445 C41.328,29.445 42,28.773 42,27.945 C42,27.116 41.328,26.445 40.5,26.445 C38.748,26.445 37.343,25.859 36.202,24.653 C32.534,20.775 32.97,12.138 32.977,11.967 C32.977,5.48 27.492,0 21,0 C14.508,0 9.024,5.48 9.024,11.967 C9.024,12.001 9.024,12.036 9.027,12.07 C9.193,14.455 8.957,21.354 5.93,24.598 C4.77,25.841 3.32,26.445 1.5,26.445 C0.672,26.445 0,27.116 0,27.945 C0,28.773 0.672,29.445 1.5,29.445" id="Fill-6" sketch:type="MSShapeGroup"></path>
                <path d="M37.654,39.873 C37.339,38.636 36.935,37.569 36.418,36.612 C35.321,34.575 33.413,31.867 29.534,31.867 L12.466,31.867 C8.587,31.867 6.679,34.575 5.582,36.612 C5.066,37.569 4.661,38.636 4.346,39.873 L0.193,56.129 C-0.013,56.931 0.472,57.748 1.275,57.953 C1.398,57.985 1.524,58 1.647,58 C2.315,58 2.926,57.549 3.099,56.871 L7.252,40.615 C7.507,39.619 7.824,38.775 8.223,38.035 C9.451,35.755 10.641,34.867 12.466,34.867 L29.534,34.867 C31.359,34.867 32.549,35.755 33.777,38.036 C34.176,38.775 34.493,39.619 34.748,40.615 L38.901,56.871 C39.074,57.549 39.685,58 40.354,58 C40.477,58 40.602,57.985 40.726,57.953 C41.528,57.748 42.013,56.931 41.808,56.129 L37.654,39.873" id="Fill-7" sketch:type="MSShapeGroup"></path>
            </g>
        </g>
    </g>
</svg>