<?xml version="1.0" encoding="UTF-8" standalone="no"?>
<svg width="50px" height="65px" viewBox="0 0 50 65" version="1.1" xmlns="http://www.w3.org/2000/svg" xmlns:xlink="http://www.w3.org/1999/xlink" xmlns:sketch="http://www.bohemiancoding.com/sketch/ns">
    <!-- Generator: Sketch 3.4.1 (15681) - http://www.bohemiancoding.com/sketch -->
    <title>FeatureCarWash</title>
    <desc>Created with Sketch.</desc>
    <defs></defs>
    <g id="Map" stroke="none" stroke-width="1" fill="none" fill-rule="evenodd" sketch:type="MSPage">
        <g id="FeatureCarWash" sketch:type="MSArtboardGroup" transform="translate(-12.000000, -5.000000)" fill="#000000">
            <g sketch:type="MSLayerGroup" transform="translate(12.000000, 5.000000)">
                <path d="M49.163,35.59 L41.005,20.459 C40.353,18.943 38.877,17.968 37.22,17.968 L12.977,17.968 C11.351,17.968 9.886,18.917 9.22,20.395 L0.698,35.715 C0.646,35.808 0.606,35.905 0.576,36.004 C0.22,36.627 0,37.338 0,38.106 L0,54.015 C0,56.301 1.809,58.159 4.068,58.268 L4.068,62.018 C4.068,63.645 5.392,64.968 7.018,64.968 L14.261,64.968 C15.887,64.968 17.209,63.645 17.209,62.018 L17.209,58.288 L32.791,58.288 L32.791,62.018 C32.791,63.645 34.113,64.968 35.739,64.968 L42.982,64.968 C44.608,64.968 45.932,63.645 45.932,62.018 L45.932,58.268 C48.191,58.159 50,56.301 50,54.015 L50,38.106 C50,37.163 49.683,36.297 49.163,35.59 L49.163,35.59 Z M11.944,21.651 C12.121,21.237 12.526,20.969 12.977,20.969 L37.22,20.969 C37.679,20.969 38.087,21.243 38.259,21.669 C38.279,21.72 44.807,33.832 44.807,33.832 L5.178,33.832 C5.178,33.832 11.924,21.7 11.944,21.651 L11.944,21.651 Z M7.068,58.288 L14.209,58.288 L14.209,62.018 L7.068,62.018 L7.068,58.288 Z M35.791,58.288 L42.932,58.288 L42.932,62.018 L35.791,62.018 L35.791,58.288 Z M47,54.015 C47,54.716 46.429,55.287 45.728,55.287 L4.273,55.287 C3.571,55.287 3,54.716 3,54.015 L3,38.106 C3,37.405 3.571,36.833 4.273,36.833 L45.728,36.833 C46.078,36.833 46.396,36.976 46.626,37.206 L46.671,37.29 C46.711,37.364 46.767,37.424 46.817,37.489 C46.923,37.674 47,37.878 47,38.106 L47,54.015 L47,54.015 Z" id="Fill-107" sketch:type="MSShapeGroup"></path>
                <path d="M39.361,41.099 C36.626,41.099 34.401,43.325 34.401,46.06 C34.401,48.796 36.626,51.021 39.361,51.021 C42.096,51.021 44.32,48.796 44.32,46.06 C44.32,43.325 42.096,41.099 39.361,41.099 L39.361,41.099 Z M39.361,48.02 C38.28,48.02 37.401,47.141 37.401,46.06 C37.401,44.98 38.28,44.101 39.361,44.101 C40.441,44.101 41.32,44.98 41.32,46.06 C41.32,47.141 40.441,48.02 39.361,48.02 L39.361,48.02 Z" id="Fill-108" sketch:type="MSShapeGroup"></path>
                <path d="M10.639,41.099 C7.904,41.099 5.68,43.325 5.68,46.06 C5.68,48.796 7.904,51.021 10.639,51.021 C13.374,51.021 15.599,48.796 15.599,46.06 C15.599,43.325 13.374,41.099 10.639,41.099 L10.639,41.099 Z M10.639,48.02 C9.559,48.02 8.68,47.141 8.68,46.06 C8.68,44.98 9.559,44.101 10.639,44.101 C11.72,44.101 12.599,44.98 12.599,46.06 C12.599,47.141 11.72,48.02 10.639,48.02 L10.639,48.02 Z" id="Fill-109" sketch:type="MSShapeGroup"></path>
                <path d="M30.083,46.626 L19.917,46.626 C19.089,46.626 18.417,47.298 18.417,48.126 C18.417,48.955 19.089,49.627 19.917,49.627 L30.083,49.627 C30.911,49.627 31.583,48.955 31.583,48.126 C31.583,47.298 30.911,46.626 30.083,46.626" id="Fill-110" sketch:type="MSShapeGroup"></path>
                <path d="M30.083,42.003 L19.917,42.003 C19.089,42.003 18.417,42.675 18.417,43.504 C18.417,44.332 19.089,45.004 19.917,45.004 L30.083,45.004 C30.911,45.004 31.583,44.332 31.583,43.504 C31.583,42.675 30.911,42.003 30.083,42.003" id="Fill-111" sketch:type="MSShapeGroup"></path>
                <path d="M2.94,7.664 C3.709,7.976 4.583,7.601 4.892,6.833 C5.777,4.638 6.341,3.968 7.305,3.968 L41.02,3.968 C41.985,3.968 42.549,4.638 43.433,6.833 C43.67,7.418 44.231,7.772 44.826,7.772 C45.013,7.772 45.202,7.737 45.385,7.664 C46.154,7.354 46.526,6.48 46.217,5.712 C45.502,3.938 44.305,0.968 41.02,0.968 L7.305,0.968 C4.02,0.968 2.824,3.938 2.109,5.712 C1.8,6.48 2.172,7.354 2.94,7.664" id="Fill-112" sketch:type="MSShapeGroup"></path>
                <path d="M22.663,7.141 L22.663,12.254 C22.663,13.082 23.335,13.754 24.163,13.754 C24.991,13.754 25.663,13.082 25.663,12.254 L25.663,7.141 C25.663,6.312 24.991,5.641 24.163,5.641 C23.335,5.641 22.663,6.312 22.663,7.141" id="Fill-113" sketch:type="MSShapeGroup"></path>
                <path d="M36.654,7.074 C35.831,7.173 35.244,7.919 35.343,8.741 L35.95,13.818 C36.041,14.581 36.688,15.141 37.437,15.141 C37.497,15.141 37.557,15.138 37.617,15.13 C38.44,15.031 39.027,14.285 38.928,13.463 L38.321,8.386 C38.223,7.562 37.464,6.971 36.654,7.074" id="Fill-114" sketch:type="MSShapeGroup"></path>
                <path d="M10.005,8.386 L9.397,13.463 C9.299,14.285 9.885,15.031 10.709,15.13 C10.769,15.138 10.829,15.141 10.888,15.141 C11.637,15.141 12.285,14.581 12.376,13.818 L12.983,8.741 C13.082,7.919 12.495,7.173 11.672,7.074 C10.852,6.971 10.103,7.562 10.005,8.386" id="Fill-115" sketch:type="MSShapeGroup"></path>
            </g>
        </g>
    </g>
</svg>