<?xml version="1.0" encoding="UTF-8" standalone="no"?>
<svg width="54px" height="59px" viewBox="0 0 54 59" version="1.1" xmlns="http://www.w3.org/2000/svg" xmlns:xlink="http://www.w3.org/1999/xlink" xmlns:sketch="http://www.bohemiancoding.com/sketch/ns">
    <!-- Generator: Sketch 3.4.1 (15681) - http://www.bohemiancoding.com/sketch -->
    <title>FeatureHighSpeedPumps</title>
    <desc>Created with Sketch.</desc>
    <defs></defs>
    <g id="Map" stroke="none" stroke-width="1" fill="none" fill-rule="evenodd" sketch:type="MSPage">
        <g id="FeatureHighSpeedPumps" sketch:type="MSArtboardGroup" transform="translate(-10.000000, -8.000000)" fill="#000000">
            <g sketch:type="MSLayerGroup" transform="translate(10.000000, 8.000000)">
                <path d="M25.939,25.181 L20.899,29.085 C20.455,28.941 19.991,28.844 19.5,28.844 C16.965,28.844 14.902,30.906 14.902,33.442 C14.902,35.977 16.965,38.04 19.5,38.04 C22.035,38.04 24.097,35.977 24.097,33.442 C24.097,32.937 23.996,32.46 23.845,32.005 L27.738,26.98 C28.235,26.483 28.235,25.678 27.738,25.181 C27.241,24.684 26.436,24.684 25.939,25.181 L25.939,25.181 Z M19.5,35.04 C18.619,35.04 17.902,34.323 17.902,33.442 C17.902,32.56 18.619,31.844 19.5,31.844 C20.381,31.844 21.097,32.56 21.097,33.442 C21.097,34.323 20.381,35.04 19.5,35.04 L19.5,35.04 Z" id="Fill-1" sketch:type="MSShapeGroup"></path>
                <path d="M27.747,8.996 C27.281,8.996 26.83,9.125 26.433,9.372 L10.184,17.044 C9.119,17.546 8.554,18.7 8.811,19.85 C9.068,21.001 10.072,21.804 11.251,21.804 L27.751,21.804 C29.13,21.804 30.251,20.683 30.251,19.304 L30.251,11.497 C30.251,10.118 29.128,8.996 27.747,8.996 L27.747,8.996 Z M27.251,18.804 L13.481,18.804 L27.251,12.304 L27.251,18.804 L27.251,18.804 Z" id="Fill-2" sketch:type="MSShapeGroup"></path>
                <path d="M53.652,37.519 L46.5,28.933 L46.5,11.471 C46.5,10.897 46.174,10.375 45.659,10.123 L38.975,6.853 C38.72,3.566 35.97,0.968 32.619,0.968 L6.381,0.968 C2.862,0.968 0,3.83 0,7.348 L0,52.587 C0,56.105 2.862,58.968 6.381,58.968 L32.619,58.968 C36.137,58.968 39,56.105 39,52.587 L39,49.977 L43.5,49.977 L43.5,57.468 C43.5,58.296 44.172,58.968 45,58.968 L52.5,58.968 C53.328,58.968 54,58.296 54,57.468 L54,38.479 C54,38.129 53.877,37.789 53.652,37.519 L53.652,37.519 Z M36,52.587 C36,54.451 34.483,55.968 32.619,55.968 L6.381,55.968 C4.516,55.968 3,54.451 3,52.587 L3,7.348 C3,5.484 4.516,3.968 6.381,3.968 L32.619,3.968 C34.483,3.968 36,5.484 36,7.348 L36,52.587 L36,52.587 Z M51,55.968 L46.5,55.968 L46.5,48.477 C46.5,47.649 45.828,46.977 45,46.977 L39,46.977 L39,10.206 L43.5,12.407 L43.5,29.476 C43.5,29.827 43.623,30.167 43.847,30.436 L51,39.022 L51,55.968 L51,55.968 Z" id="Fill-3" sketch:type="MSShapeGroup"></path>
            </g>
        </g>
    </g>
</svg>