<?xml version="1.0" encoding="UTF-8" standalone="no"?>
<svg width="58px" height="58px" viewBox="0 0 58 58" version="1.1" xmlns="http://www.w3.org/2000/svg" xmlns:xlink="http://www.w3.org/1999/xlink" xmlns:sketch="http://www.bohemiancoding.com/sketch/ns">
    <!-- Generator: Sketch 3.4.1 (15681) - http://www.bohemiancoding.com/sketch -->
    <title>FeaturePhone</title>
    <desc>Created with Sketch.</desc>
    <defs></defs>
    <g id="Map" stroke="none" stroke-width="1" fill="none" fill-rule="evenodd" sketch:type="MSPage">
        <g id="FeaturePhone" sketch:type="MSArtboardGroup" transform="translate(-8.000000, -9.000000)" fill="#000000">
            <g sketch:type="MSLayerGroup" transform="translate(7.000000, 8.000000)" id="Fill-54">
                <path d="M47.435,58.968 L47.38,58.968 C41.971,58.907 27.136,55.085 15.705,43.652 C5.052,32.995 1.074,19.242 1,12.597 C0.943,7.424 7.244,2.777 13.202,1.031 C13.928,0.817 14.739,1.164 15.041,1.856 L21.444,15.966 C21.677,16.527 21.549,17.174 21.119,17.604 C21.116,17.608 21.039,17.685 21.035,17.689 L16.598,22.041 C17.34,24.401 19.787,31.297 24.227,35.737 C28.672,40.183 35.517,42.566 37.836,43.279 L42.293,38.906 C42.725,38.484 43.439,38.291 43.995,38.522 L44.32,38.663 C45.62,39.244 47.432,40.075 49.402,40.979 L49.521,41.034 C52.232,42.28 55.606,43.83 58.103,44.924 C58.781,45.222 59.14,45.969 58.949,46.684 C57.196,52.68 52.578,58.968 47.435,58.968 L47.435,58.968 Z M12.846,4.309 C8.332,5.976 3.965,9.444 4,12.564 C4.066,18.482 7.878,31.579 17.826,41.531 C22.295,46 35.945,55.839 47.397,55.967 L47.435,57.468 L47.435,55.967 C50.549,55.967 54.006,51.591 55.652,47.121 C53.329,46.086 50.563,44.815 48.269,43.761 L48.151,43.706 C46.498,42.948 44.958,42.241 43.741,41.692 L39.312,46.036 C38.936,46.404 38.396,46.548 37.887,46.417 C37.49,46.315 28.087,43.842 22.106,37.859 C16.127,31.88 13.559,22.389 13.452,21.987 C13.315,21.466 13.467,20.909 13.853,20.531 L18.265,16.203 C17.735,15.027 17.063,13.563 16.341,11.99 L15.971,11.184 C14.94,8.935 13.793,6.437 12.846,4.309 L12.846,4.309 Z" sketch:type="MSShapeGroup"></path>
            </g>
        </g>
    </g>
</svg>