<?xml version="1.0" encoding="UTF-8" standalone="no"?>
<svg width="58px" height="52px" viewBox="0 0 58 52" version="1.1" xmlns="http://www.w3.org/2000/svg" xmlns:xlink="http://www.w3.org/1999/xlink" xmlns:sketch="http://www.bohemiancoding.com/sketch/ns">
    <!-- Generator: Sketch 3.4.1 (15681) - http://www.bohemiancoding.com/sketch -->
    <title>FeatureWasherFluidPump</title>
    <desc>Created with Sketch.</desc>
    <defs></defs>
    <g id="Map" stroke="none" stroke-width="1" fill="none" fill-rule="evenodd" sketch:type="MSPage">
        <g id="FeatureWasherFluidPump" sketch:type="MSArtboardGroup" transform="translate(-8.000000, -11.000000)" fill="#000000">
            <g sketch:type="MSLayerGroup" transform="translate(8.000000, 11.000000)">
                <path d="M56.367,24.753 C52.26,22.296 41.358,16.581 28.849,16.581 C16.346,16.581 5.637,22.294 1.613,24.75 C0.057,25.699 -0.459,27.752 0.464,29.328 L12.22,49.353 C12.955,50.607 14.49,51.261 15.905,50.924 C18.213,50.371 22.963,49.445 28.849,49.445 C34.776,49.445 39.711,50.383 42.125,50.942 C42.374,50.999 42.629,51.028 42.883,51.028 C44.068,51.028 45.18,50.392 45.782,49.366 L57.536,29.342 C58.468,27.755 57.943,25.696 56.367,24.753 L56.367,24.753 Z M54.948,27.823 L43.195,47.847 C43.129,47.959 43.01,48.028 42.883,48.028 L42.801,48.019 C40.263,47.432 35.074,46.445 28.849,46.445 C22.654,46.445 17.644,47.423 15.121,48.017 C14.991,48.017 14.874,47.949 14.808,47.835 L3.052,27.81 C2.949,27.635 3.004,27.416 3.176,27.31 C6.983,24.986 17.108,19.581 28.849,19.581 C40.609,19.581 50.934,24.998 54.826,27.327 C54.995,27.428 55.05,27.651 54.948,27.823 L54.948,27.823 Z" id="Fill-97" sketch:type="MSShapeGroup"></path>
                <path d="M35.068,4.913 C37.538,3.597 40.687,3.599 43.156,4.914 C43.381,5.034 43.623,5.091 43.861,5.091 C44.398,5.091 44.916,4.803 45.186,4.297 C45.576,3.565 45.299,2.657 44.568,2.268 C41.234,0.489 36.994,0.486 33.656,2.267 C32.926,2.656 32.65,3.565 33.039,4.296 C33.429,5.026 34.335,5.303 35.068,4.913" id="Fill-98" sketch:type="MSShapeGroup"></path>
                <path d="M47.723,12.519 C47.723,13.347 48.395,14.019 49.223,14.019 C50.051,14.019 50.723,13.347 50.723,12.519 C50.723,10.592 50.241,8.684 49.33,7.001 C48.936,6.271 48.023,6.001 47.297,6.396 C46.568,6.79 46.297,7.7 46.692,8.429 C47.366,9.675 47.723,11.089 47.723,12.519" id="Fill-99" sketch:type="MSShapeGroup"></path>
                <path d="M8.777,14.019 C9.606,14.019 10.277,13.347 10.277,12.519 C10.277,11.091 10.634,9.676 11.309,8.429 C11.703,7.699 11.432,6.789 10.703,6.396 C9.972,5.999 9.064,6.273 8.67,7.001 C7.759,8.687 7.277,10.594 7.277,12.519 C7.277,13.347 7.949,14.019 8.777,14.019" id="Fill-100" sketch:type="MSShapeGroup"></path>
                <path d="M14.846,4.913 C17.317,3.597 20.468,3.599 22.934,4.914 C23.158,5.034 23.401,5.091 23.639,5.091 C24.175,5.091 24.693,4.803 24.963,4.297 C25.354,3.566 25.077,2.657 24.346,2.268 C21.015,0.489 16.773,0.486 13.434,2.267 C12.703,2.656 12.427,3.565 12.816,4.296 C13.205,5.026 14.111,5.303 14.846,4.913" id="Fill-101" sketch:type="MSShapeGroup"></path>
                <path d="M27.5,12.519 C27.5,13.347 28.172,14.019 29,14.019 C29.828,14.019 30.5,13.347 30.5,12.519 C30.5,11.089 30.856,9.675 31.531,8.429 C31.926,7.7 31.654,6.79 30.926,6.396 C30.255,6.032 27.748,6.031 27.075,6.396 C26.347,6.789 26.075,7.699 26.47,8.429 C27.144,9.675 27.5,11.09 27.5,12.519" id="Fill-102" sketch:type="MSShapeGroup"></path>
                <path d="M29,22.468 C28.172,22.468 27.5,23.14 27.5,23.968 L27.5,28.968 C27.5,29.796 28.172,30.468 29,30.468 C29.828,30.468 30.5,29.796 30.5,28.968 L30.5,23.968 C30.5,23.14 29.828,22.468 29,22.468" id="Fill-103" sketch:type="MSShapeGroup"></path>
                <path d="M29,34.968 C28.172,34.968 27.5,35.64 27.5,36.468 L27.5,41.468 C27.5,42.296 28.172,42.968 29,42.968 C29.828,42.968 30.5,42.296 30.5,41.468 L30.5,36.468 C30.5,35.64 29.828,34.968 29,34.968" id="Fill-104" sketch:type="MSShapeGroup"></path>
            </g>
        </g>
    </g>
</svg>