<?xml version="1.0" encoding="UTF-8" standalone="no"?>
<svg width="58px" height="46px" viewBox="0 0 58 46" version="1.1" xmlns="http://www.w3.org/2000/svg" xmlns:xlink="http://www.w3.org/1999/xlink" xmlns:sketch="http://www.bohemiancoding.com/sketch/ns">
    <!-- Generator: Sketch 3.4.1 (15681) - http://www.bohemiancoding.com/sketch -->
    <title>FeatureTrailerRental Copy</title>
    <desc>Created with Sketch.</desc>
    <defs></defs>
    <g id="Map" stroke="none" stroke-width="1" fill="none" fill-rule="evenodd" sketch:type="MSPage">
        <g id="FeatureTrailerRental" sketch:type="MSArtboardGroup" transform="translate(-8.000000, -14.000000)" fill="#000000">
            <g id="FeatureTrailerRental-Copy" sketch:type="MSLayerGroup" transform="translate(8.000000, 14.000000)">
                <path d="M20.792,24.593 C15.081,24.593 10.435,29.239 10.435,34.95 C10.435,40.662 15.081,45.309 20.792,45.309 C26.504,45.309 31.151,40.662 31.151,34.95 C31.151,29.239 26.504,24.593 20.792,24.593 L20.792,24.593 Z M20.792,42.309 C16.735,42.309 13.435,39.008 13.435,34.95 C13.435,30.894 16.735,27.593 20.792,27.593 C24.85,27.593 28.151,30.894 28.151,34.95 C28.151,39.008 24.85,42.309 20.792,42.309 L20.792,42.309 Z" id="Fill-90" sketch:type="MSShapeGroup"></path>
                <path d="M56.5,29.15 L51.743,29.15 L51.743,12.993 C51.743,6.175 46.196,0.627 39.378,0.627 L4.76,0.627 C2.135,0.627 0,2.762 0,5.387 L0,31.69 C0,34.315 2.135,36.45 4.76,36.45 L6.39,36.45 C7.218,36.45 7.89,35.778 7.89,34.95 C7.89,34.122 7.218,33.45 6.39,33.45 L4.76,33.45 C3.789,33.45 3,32.661 3,31.69 L3,5.387 C3,4.416 3.789,3.627 4.76,3.627 L39.378,3.627 C44.542,3.627 48.743,7.829 48.743,12.993 L48.743,31.69 C48.743,32.661 47.954,33.45 46.984,33.45 L35,33.45 C34.172,33.45 33.5,34.122 33.5,34.95 C33.5,35.778 34.172,36.45 35,36.45 L46.984,36.45 C49.451,36.45 51.461,34.557 51.697,32.15 L56.5,32.15 C57.328,32.15 58,31.479 58,30.65 C58,29.822 57.328,29.15 56.5,29.15" id="Fill-91" sketch:type="MSShapeGroup"></path>
            </g>
        </g>
    </g>
</svg>