<?xml version="1.0" encoding="UTF-8" standalone="no"?>
<svg width="38px" height="58px" viewBox="0 0 38 58" version="1.1" xmlns="http://www.w3.org/2000/svg" xmlns:xlink="http://www.w3.org/1999/xlink" xmlns:sketch="http://www.bohemiancoding.com/sketch/ns">
    <!-- Generator: Sketch 3.4.1 (15681) - http://www.bohemiancoding.com/sketch -->
    <title>FeatureCoffee</title>
    <desc>Created with Sketch.</desc>
    <defs></defs>
    <g id="Map" stroke="none" stroke-width="1" fill="none" fill-rule="evenodd" sketch:type="MSPage">
        <g id="FeatureCoffee" sketch:type="MSArtboardGroup" transform="translate(-18.000000, -9.000000)" fill="#000000">
            <g sketch:type="MSLayerGroup" transform="translate(18.000000, 8.000000)">
                <path d="M15.282,13.596 C15.548,13.788 15.856,13.881 16.161,13.881 C16.625,13.881 17.083,13.666 17.377,13.261 C17.863,12.59 17.713,11.652 17.042,11.166 C16.122,10.5 15.993,10.31 17.397,8.276 C18.485,6.7 20.51,3.766 17.042,1.253 C16.372,0.768 15.435,0.915 14.947,1.588 C14.461,2.259 14.612,3.196 15.282,3.683 C16.202,4.349 16.331,4.539 14.928,6.572 C13.84,8.148 11.815,11.083 15.282,13.596" id="Fill-1-Copy-3" sketch:type="MSShapeGroup"></path>
                <path d="M20.958,13.596 C21.224,13.788 21.531,13.881 21.837,13.881 C22.301,13.881 22.759,13.666 23.053,13.261 C23.539,12.59 23.389,11.652 22.718,11.166 C21.798,10.5 21.669,10.31 23.072,8.276 C24.16,6.7 26.186,3.766 22.718,1.253 C22.048,0.768 21.111,0.915 20.623,1.588 C20.137,2.259 20.287,3.196 20.958,3.683 C21.878,4.349 22.007,4.539 20.604,6.572 C19.516,8.148 17.49,11.083 20.958,13.596" id="Fill-2-Copy-3" sketch:type="MSShapeGroup"></path>
                <path d="M37.86,23.592 C37.86,21.189 35.904,19.234 33.502,19.234 L32.978,19.234 L31.047,16.191 C30.587,15.468 29.801,15.035 28.944,15.035 L9.057,15.035 C8.199,15.035 7.413,15.468 6.953,16.191 L5.023,19.234 L4.498,19.234 C2.096,19.234 0.141,21.189 0.141,23.598 C0.141,25.595 1.5,27.265 3.337,27.777 L6.529,53.644 C6.904,56.679 9.49,58.968 12.543,58.968 L25.457,58.968 C28.51,58.968 31.096,56.679 31.471,53.644 L34.663,27.777 C36.5,27.265 37.86,25.594 37.86,23.592 L37.86,23.592 Z M28.494,53.275 C28.304,54.81 26.998,55.968 25.457,55.968 L12.543,55.968 C11.002,55.968 9.696,54.81 9.506,53.276 L6.381,27.954 L31.619,27.954 L28.494,53.275 L28.494,53.275 Z M33.502,24.954 L4.498,24.954 C3.75,24.954 3.141,24.346 3.141,23.592 C3.141,22.844 3.75,22.234 4.498,22.234 L5.301,22.234 C6.156,22.234 6.943,21.804 7.405,21.078 L9.336,18.035 L28.664,18.035 L30.597,21.081 C31.058,21.804 31.844,22.234 32.699,22.234 L33.502,22.234 C34.25,22.234 34.86,22.844 34.86,23.598 C34.86,24.346 34.25,24.954 33.502,24.954 L33.502,24.954 Z" id="Fill-3-Copy-2" sketch:type="MSShapeGroup"></path>
                <path d="M25.567,20.241 L20.567,20.241 C19.738,20.241 19.067,20.913 19.067,21.741 C19.067,22.569 19.738,23.241 20.567,23.241 L25.567,23.241 C26.395,23.241 27.067,22.569 27.067,21.741 C27.067,20.913 26.395,20.241 25.567,20.241" id="Fill-4-Copy" sketch:type="MSShapeGroup"></path>
            </g>
        </g>
    </g>
</svg>