<?xml version="1.0" encoding="UTF-8" standalone="no"?>
<svg width="50px" height="65px" viewBox="0 0 50 65" version="1.1" xmlns="http://www.w3.org/2000/svg" xmlns:xlink="http://www.w3.org/1999/xlink" xmlns:sketch="http://www.bohemiancoding.com/sketch/ns">
    <!-- Generator: Sketch 3.4.1 (15681) - http://www.bohemiancoding.com/sketch -->
    <title>FeatureCarRental</title>
    <desc>Created with Sketch.</desc>
    <defs></defs>
    <g id="Map" stroke="none" stroke-width="1" fill="none" fill-rule="evenodd" sketch:type="MSPage">
        <g id="FeatureCarRental" sketch:type="MSArtboardGroup" transform="translate(-12.000000, -5.000000)" fill="#000000">
            <g sketch:type="MSLayerGroup" transform="translate(12.000000, 5.000000)">
                <path d="M49.163,35.59 L41.005,20.459 C40.353,18.943 38.877,17.968 37.22,17.968 L12.977,17.968 C11.351,17.968 9.886,18.917 9.22,20.395 L0.698,35.715 C0.646,35.808 0.606,35.905 0.576,36.004 C0.22,36.627 0,37.338 0,38.106 L0,54.015 C0,56.301 1.809,58.159 4.068,58.268 L4.068,62.018 C4.068,63.645 5.392,64.968 7.018,64.968 L14.261,64.968 C15.887,64.968 17.209,63.645 17.209,62.018 L17.209,58.288 L32.791,58.288 L32.791,62.018 C32.791,63.645 34.113,64.968 35.739,64.968 L42.982,64.968 C44.608,64.968 45.932,63.645 45.932,62.018 L45.932,58.268 C48.191,58.159 50,56.301 50,54.015 L50,38.106 C50,37.163 49.683,36.297 49.163,35.59 L49.163,35.59 Z M11.944,21.651 C12.121,21.237 12.526,20.969 12.977,20.969 L37.22,20.969 C37.679,20.969 38.087,21.243 38.259,21.669 C38.279,21.72 44.807,33.832 44.807,33.832 L5.178,33.832 C5.178,33.832 11.924,21.7 11.944,21.651 L11.944,21.651 Z M7.068,58.288 L14.209,58.288 L14.209,62.018 L7.068,62.018 L7.068,58.288 Z M35.791,58.288 L42.932,58.288 L42.932,62.018 L35.791,62.018 L35.791,58.288 Z M47,54.015 C47,54.716 46.429,55.287 45.728,55.287 L4.273,55.287 C3.571,55.287 3,54.716 3,54.015 L3,38.106 C3,37.405 3.571,36.833 4.273,36.833 L45.728,36.833 C46.078,36.833 46.396,36.976 46.626,37.206 L46.671,37.29 C46.711,37.364 46.767,37.424 46.817,37.489 C46.923,37.674 47,37.878 47,38.106 L47,54.015 L47,54.015 Z" id="Fill-125" sketch:type="MSShapeGroup"></path>
                <path d="M39.361,41.099 C36.626,41.099 34.401,43.325 34.401,46.06 C34.401,48.796 36.626,51.021 39.361,51.021 C42.096,51.021 44.32,48.796 44.32,46.06 C44.32,43.325 42.096,41.099 39.361,41.099 L39.361,41.099 Z M39.361,48.02 C38.28,48.02 37.401,47.141 37.401,46.06 C37.401,44.98 38.28,44.101 39.361,44.101 C40.441,44.101 41.32,44.98 41.32,46.06 C41.32,47.141 40.441,48.02 39.361,48.02 L39.361,48.02 Z" id="Fill-126" sketch:type="MSShapeGroup"></path>
                <path d="M10.639,41.099 C7.904,41.099 5.68,43.325 5.68,46.06 C5.68,48.796 7.904,51.021 10.639,51.021 C13.374,51.021 15.599,48.796 15.599,46.06 C15.599,43.325 13.374,41.099 10.639,41.099 L10.639,41.099 Z M10.639,48.02 C9.559,48.02 8.68,47.141 8.68,46.06 C8.68,44.98 9.559,44.101 10.639,44.101 C11.72,44.101 12.599,44.98 12.599,46.06 C12.599,47.141 11.72,48.02 10.639,48.02 L10.639,48.02 Z" id="Fill-127" sketch:type="MSShapeGroup"></path>
                <path d="M30.083,46.626 L19.917,46.626 C19.089,46.626 18.417,47.298 18.417,48.126 C18.417,48.955 19.089,49.627 19.917,49.627 L30.083,49.627 C30.911,49.627 31.583,48.955 31.583,48.126 C31.583,47.298 30.911,46.626 30.083,46.626" id="Fill-128" sketch:type="MSShapeGroup"></path>
                <path d="M30.083,42.003 L19.917,42.003 C19.089,42.003 18.417,42.675 18.417,43.504 C18.417,44.332 19.089,45.004 19.917,45.004 L30.083,45.004 C30.911,45.004 31.583,44.332 31.583,43.504 C31.583,42.675 30.911,42.003 30.083,42.003" id="Fill-129" sketch:type="MSShapeGroup"></path>
                <path d="M37.833,6.468 L24.501,6.468 C23.812,3.327 21.011,0.968 17.667,0.968 C13.808,0.968 10.667,4.108 10.667,7.968 C10.667,11.827 13.808,14.968 17.667,14.968 C21.011,14.968 23.812,12.608 24.501,9.468 L28.389,9.468 L28.389,12.856 C28.389,13.685 29.061,14.356 29.889,14.356 C30.717,14.356 31.389,13.685 31.389,12.856 L31.389,9.468 L34.5,9.468 L34.5,11.635 C34.5,12.463 35.172,13.135 36,13.135 C36.828,13.135 37.5,12.463 37.5,11.635 L37.5,9.468 L37.833,9.468 C38.661,9.468 39.333,8.796 39.333,7.968 C39.333,7.14 38.661,6.468 37.833,6.468 L37.833,6.468 Z M17.667,11.968 C15.461,11.968 13.667,10.174 13.667,7.968 C13.667,5.762 15.461,3.968 17.667,3.968 C19.873,3.968 21.667,5.762 21.667,7.968 C21.667,10.174 19.873,11.968 17.667,11.968 L17.667,11.968 Z" id="Fill-130" sketch:type="MSShapeGroup"></path>
            </g>
        </g>
    </g>
</svg>