<?xml version="1.0" encoding="UTF-8" standalone="no"?>
<svg width="58px" height="58px" viewBox="0 0 58 58" version="1.1" xmlns="http://www.w3.org/2000/svg" xmlns:xlink="http://www.w3.org/1999/xlink" xmlns:sketch="http://www.bohemiancoding.com/sketch/ns">
    <!-- Generator: Sketch 3.4.1 (15681) - http://www.bohemiancoding.com/sketch -->
    <title>FeatureHome</title>
    <desc>Created with Sketch.</desc>
    <defs></defs>
    <g id="Map" stroke="none" stroke-width="1" fill="none" fill-rule="evenodd" sketch:type="MSPage">
        <g id="FeatureHome" sketch:type="MSArtboardGroup" transform="translate(-8.000000, -9.000000)" fill="#000000">
            <g sketch:type="MSLayerGroup" transform="translate(8.000000, 8.000000)">
                <path d="M57.058,28.273 L30.059,1.404 C29.475,0.822 28.527,0.822 27.943,1.404 L0.943,28.273 C0.417,28.796 0.352,29.623 0.789,30.222 L5.188,36.244 C5.445,36.598 5.845,36.82 6.28,36.854 C6.721,36.89 7.146,36.731 7.456,36.423 L10.28,33.613 L10.28,57.468 C10.28,58.296 10.952,58.968 11.78,58.968 L19.314,58.968 C20.142,58.968 20.814,58.296 20.814,57.468 L20.814,30.9 L37.187,30.9 L37.187,57.468 C37.187,58.296 37.858,58.968 38.687,58.968 L46.22,58.968 C47.048,58.968 47.72,58.296 47.72,57.468 L47.72,33.613 L50.544,36.423 C50.854,36.731 51.272,36.889 51.72,36.854 C52.155,36.82 52.555,36.598 52.813,36.244 L57.211,30.222 C57.648,29.623 57.583,28.796 57.058,28.273 L57.058,28.273 Z M51.421,33.063 L47.277,28.941 C46.848,28.514 46.202,28.385 45.644,28.62 C45.084,28.852 44.72,29.398 44.72,30.005 L44.72,55.968 L40.187,55.968 L40.187,29.4 C40.187,28.572 39.515,27.9 38.687,27.9 L19.314,27.9 C18.485,27.9 17.814,28.572 17.814,29.4 L17.814,55.968 L13.28,55.968 L13.28,30.005 C13.28,29.398 12.916,28.852 12.356,28.62 C11.796,28.385 11.151,28.514 10.723,28.941 L6.579,33.063 L3.971,29.492 L29.001,4.584 L54.029,29.492 L51.421,33.063 L51.421,33.063 Z" id="Fill-59" sketch:type="MSShapeGroup"></path>
                <path d="M33.305,33.298 L24.695,33.298 C23.867,33.298 23.195,33.97 23.195,34.798 C23.195,35.626 23.867,36.298 24.695,36.298 L33.305,36.298 C34.133,36.298 34.805,35.626 34.805,34.798 C34.805,33.97 34.133,33.298 33.305,33.298" id="Fill-60" sketch:type="MSShapeGroup"></path>
            </g>
        </g>
    </g>
</svg>