<?xml version="1.0" encoding="UTF-8" standalone="no"?>
<svg width="58px" height="49px" viewBox="0 0 58 49" version="1.1" xmlns="http://www.w3.org/2000/svg" xmlns:xlink="http://www.w3.org/1999/xlink" xmlns:sketch="http://www.bohemiancoding.com/sketch/ns">
    <!-- Generator: Sketch 3.4.1 (15681) - http://www.bohemiancoding.com/sketch -->
    <title>FeatureRoutexAtlas Copy</title>
    <desc>Created with Sketch.</desc>
    <defs></defs>
    <g id="Map" stroke="none" stroke-width="1" fill="none" fill-rule="evenodd" sketch:type="MSPage">
        <g id="FeatureRoutexAtlas" sketch:type="MSArtboardGroup" transform="translate(-8.000000, -13.000000)" fill="#000000">
            <g id="FeatureRoutexAtlas-Copy" sketch:type="MSLayerGroup" transform="translate(8.000000, 13.000000)">
                <path d="M57.94,47.044 C55.376,38.335 48.157,31.472 43.903,28.038 C47.199,27.165 51.615,24.572 54.378,17.24 C56.096,12.53 55.946,8.682 53.932,5.803 C50.587,1.022 43.352,0.968 43.046,0.968 L13.118,0.968 C12.435,0.968 11.837,1.431 11.666,2.093 L0.048,47.093 C-0.068,47.542 0.03,48.02 0.315,48.387 C0.599,48.753 1.036,48.968 1.5,48.968 L20.37,48.968 C21.055,48.968 21.652,48.504 21.823,47.841 L26.338,30.26 C28.031,31.477 30.45,33.738 30.45,36.722 C30.45,41.817 27.926,46.725 27.9,46.773 C27.657,47.238 27.676,47.797 27.947,48.245 C28.22,48.693 28.705,48.968 29.23,48.968 L56.5,48.968 C56.973,48.968 57.418,48.745 57.701,48.366 C57.984,47.987 58.072,47.498 57.94,47.044 L57.94,47.044 Z M31.532,45.968 C32.373,43.825 33.45,40.367 33.45,36.722 C33.45,30.317 26.362,26.717 26.061,26.566 C25.656,26.364 25.181,26.355 24.769,26.545 C24.358,26.733 24.053,27.098 23.94,27.536 L19.207,45.968 L3.437,45.968 L14.28,3.968 L43.046,3.968 C43.106,3.968 49.026,4.018 51.477,7.526 C52.894,9.556 52.922,12.478 51.566,16.197 C48.417,24.551 42.975,25.453 40.78,25.453 C40.354,25.453 40.097,25.416 40.096,25.416 C39.405,25.309 38.713,25.692 38.456,26.353 C38.199,27.013 38.44,27.764 39.032,28.151 C39.151,28.23 50.325,35.643 54.399,45.968 L31.532,45.968 L31.532,45.968 Z" id="Fill-141" sketch:type="MSShapeGroup"></path>
                <path d="M32.396,7.485 C31.347,7.485 30.374,7.562 30.113,7.585 C29.048,7.6 28.937,7.986 28.182,10.614 L25.168,21.117 C25.039,21.569 25.129,22.057 25.412,22.433 C25.696,22.81 26.14,23.03 26.61,23.03 C26.95,23.03 27.303,23.04 27.663,23.05 C28.067,23.061 28.478,23.072 28.89,23.072 C30.92,23.072 33.211,22.813 34.812,20.898 C36.004,19.473 36.775,17.427 37.168,14.643 C37.391,13.066 37.729,10.685 36.346,8.66 C35.769,7.814 34.661,7.485 32.396,7.485 L32.396,7.485 Z M34.197,14.223 C33.89,16.405 33.321,18.004 32.51,18.975 C31.858,19.754 30.81,20.072 28.89,20.072 C28.79,20.072 28.69,20.071 28.589,20.07 C29.472,16.99 30.764,12.487 31.332,10.512 C31.652,10.497 32.021,10.485 32.396,10.485 C33.314,10.485 33.793,10.553 34.019,10.602 C34.52,11.559 34.398,12.812 34.197,14.223 L34.197,14.223 Z" id="Fill-142" sketch:type="MSShapeGroup"></path>
            </g>
        </g>
    </g>
</svg>