<?xml version="1.0" encoding="UTF-8" standalone="no"?>
<svg width="58px" height="39px" viewBox="0 0 58 39" version="1.1" xmlns="http://www.w3.org/2000/svg" xmlns:xlink="http://www.w3.org/1999/xlink" xmlns:sketch="http://www.bohemiancoding.com/sketch/ns">
    <!-- Generator: Sketch 3.4.1 (15681) - http://www.bohemiancoding.com/sketch -->
    <title>FeatureSandwich</title>
    <desc>Created with Sketch.</desc>
    <defs></defs>
    <g id="Map" stroke="none" stroke-width="1" fill="none" fill-rule="evenodd" sketch:type="MSPage">
        <g id="FeatureSandwich" sketch:type="MSArtboardGroup" transform="translate(-9.000000, -18.000000)" fill="#333439">
            <g sketch:type="MSLayerGroup" transform="translate(8.000000, 18.000000)">
                <path d="M57.509,20.551 L2.491,20.551 C1.668,20.551 1,21.218 1,22.041 C1,22.864 1.668,23.531 2.491,23.531 L57.509,23.531 C58.332,23.531 59,22.864 59,22.041 C59,21.218 58.332,20.551 57.509,20.551" id="Fill-1" sketch:type="MSShapeGroup"></path>
                <path d="M57.579,29.063 C57.472,29.039 57.362,29.024 57.248,29.024 C55.462,29.024 54.634,28.431 53.586,27.681 C52.399,26.832 50.923,25.776 48.17,25.776 C45.416,25.776 43.94,26.832 42.753,27.68 C41.705,28.431 40.876,29.024 39.089,29.024 C37.302,29.024 36.474,28.431 35.424,27.68 C34.238,26.832 32.761,25.776 30.006,25.776 C27.252,25.776 25.775,26.832 24.589,27.68 C23.541,28.431 22.712,29.024 20.925,29.024 C19.137,29.024 18.308,28.431 17.258,27.68 C16.071,26.832 14.594,25.776 11.838,25.776 C9.083,25.776 7.606,26.832 6.419,27.68 C5.369,28.431 4.54,29.024 2.752,29.024 C2.638,29.024 2.528,29.039 2.421,29.063 C1.63,29.104 1,29.749 1,30.545 L1,33.938 C1,36.279 2.798,38.185 5.007,38.185 L54.992,38.185 C57.202,38.185 59,36.279 59,33.938 L59,30.545 C59,29.749 58.37,29.104 57.579,29.063 L57.579,29.063 Z M54.992,35.204 L5.007,35.204 C4.461,35.204 4,34.624 4,33.938 L4,31.916 C5.974,31.654 7.18,30.808 8.171,30.1 C9.221,29.349 10.05,28.756 11.838,28.756 C13.627,28.756 14.456,29.349 15.506,30.1 C16.693,30.948 18.17,32.004 20.925,32.004 C23.68,32.004 25.156,30.948 26.342,30.099 C27.391,29.349 28.22,28.756 30.006,28.756 C31.793,28.756 32.622,29.349 33.671,30.1 C34.858,30.948 36.335,32.004 39.089,32.004 C41.844,32.004 43.32,30.948 44.506,30.099 C45.555,29.349 46.384,28.756 48.17,28.756 C49.956,28.756 50.784,29.349 51.833,30.099 C52.823,30.808 54.028,31.654 56,31.916 L56,33.938 C56,34.624 55.539,35.204 54.992,35.204 L54.992,35.204 Z" id="Fill-2" sketch:type="MSShapeGroup"></path>
                <path d="M4.236,17.895 L55.764,17.895 C56.695,17.895 57.581,17.495 58.193,16.798 C58.815,16.091 59.098,15.149 58.969,14.212 C58.889,13.631 58.776,13.05 58.633,12.484 C56.807,5.242 50.292,0.185 42.792,0.185 L17.208,0.185 C9.707,0.185 3.193,5.242 1.366,12.484 C1.224,13.05 1.11,13.631 1.03,14.212 C0.902,15.149 1.185,16.091 1.806,16.798 C2.419,17.495 3.305,17.895 4.236,17.895 L4.236,17.895 Z M4.277,13.207 C5.721,7.481 10.756,3.439 16.634,3.189 L13.205,7.881 C12.718,8.546 12.867,9.478 13.537,9.962 C13.803,10.154 14.112,10.246 14.417,10.246 C14.881,10.246 15.339,10.033 15.632,9.631 L20.103,3.514 C20.183,3.404 20.24,3.286 20.286,3.165 L29.718,3.165 L26.271,7.881 C25.784,8.546 25.933,9.478 26.604,9.962 C26.87,10.154 27.178,10.246 27.483,10.246 C27.948,10.246 28.405,10.033 28.699,9.631 L33.169,3.514 C33.25,3.404 33.307,3.286 33.353,3.165 L42.784,3.165 L39.337,7.881 C38.851,8.546 39,9.478 39.67,9.962 C39.936,10.154 40.245,10.246 40.55,10.246 C41.014,10.246 41.472,10.033 41.765,9.631 L46.174,3.598 C50.797,4.801 54.515,8.419 55.723,13.207 C55.839,13.669 55.932,14.142 55.997,14.616 C56.012,14.728 55.964,14.803 55.933,14.838 C55.866,14.915 55.789,14.915 55.764,14.915 L4.236,14.915 C4.211,14.915 4.134,14.915 4.066,14.838 C4.036,14.803 3.987,14.728 4.003,14.616 C4.068,14.142 4.16,13.669 4.277,13.207 L4.277,13.207 Z" id="Fill-3" sketch:type="MSShapeGroup"></path>
            </g>
        </g>
    </g>
</svg>