<?xml version="1.0" encoding="UTF-8" standalone="no"?>
<svg width="58px" height="28px" viewBox="0 0 58 28" version="1.1" xmlns="http://www.w3.org/2000/svg" xmlns:xlink="http://www.w3.org/1999/xlink" xmlns:sketch="http://www.bohemiancoding.com/sketch/ns">
    <!-- Generator: Sketch 3.4.1 (15681) - http://www.bohemiancoding.com/sketch -->
    <title>FeatureToilet</title>
    <desc>Created with Sketch.</desc>
    <defs></defs>
    <g id="Map" stroke="none" stroke-width="1" fill="none" fill-rule="evenodd" sketch:type="MSPage">
        <g id="FeatureToilet" sketch:type="MSArtboardGroup" transform="translate(-8.000000, -23.000000)" fill="#000000">
            <g sketch:type="MSLayerGroup" transform="translate(7.000000, 23.000000)">
                <path d="M27.106,27.451 L21.888,27.451 C21.358,27.451 20.895,27.081 20.766,26.552 L17.818,14.4 L14.918,26.547 C14.791,27.078 14.328,27.451 13.795,27.451 L8.478,27.451 C7.953,27.451 7.494,27.089 7.36,26.569 L1.038,2.072 C0.947,1.716 1.021,1.337 1.24,1.045 C1.459,0.754 1.797,0.583 2.156,0.583 L7.406,0.583 C7.944,0.583 8.411,0.963 8.532,1.5 L11.27,13.577 L14.28,1.475 C14.41,0.95 14.872,0.583 15.4,0.583 L20.317,0.583 C20.848,0.583 21.311,0.954 21.439,1.483 L24.407,13.766 L27.252,1.495 C27.376,0.96 27.841,0.583 28.377,0.583 L33.528,0.583 C33.887,0.583 34.226,0.754 34.445,1.047 C34.664,1.34 34.737,1.721 34.644,2.077 L28.222,26.573 C28.086,27.091 27.628,27.451 27.106,27.451 L27.106,27.451 Z M22.792,25.079 L26.22,25.079 L32.019,2.955 L29.29,2.955 L25.588,18.923 C25.465,19.457 24.999,19.835 24.464,19.835 C23.932,19.835 23.403,19.463 23.275,18.935 L19.412,2.955 L16.298,2.955 L12.373,18.736 C12.243,19.261 11.781,19.629 11.253,19.629 C10.716,19.629 10.182,19.249 10.06,18.711 L6.488,2.955 L3.658,2.955 L9.367,25.079 L12.888,25.079 L16.652,9.309 C16.778,8.778 17.242,8.405 17.775,8.405 C18.305,8.405 18.835,8.776 18.964,9.305 L22.792,25.079 L22.792,25.079 Z" id="Fill-20" sketch:type="MSShapeGroup"></path>
                <path d="M47.342,28 C45.362,28 43.546,27.638 41.948,26.923 C40.341,26.206 38.964,25.201 37.854,23.936 C36.754,22.683 35.9,21.193 35.317,19.508 C34.74,17.847 34.447,16.033 34.447,14.12 C34.447,12.163 34.739,10.317 35.316,8.632 C35.897,6.928 36.749,5.417 37.848,4.14 C38.956,2.851 40.334,1.827 41.941,1.096 C43.544,0.368 45.361,0 47.342,0 C48.772,0 50.146,0.215 51.427,0.641 C52.723,1.071 53.9,1.708 54.928,2.534 C55.97,3.371 56.839,4.418 57.514,5.648 C58.159,6.826 58.581,8.178 58.768,9.669 C58.798,9.775 58.814,9.887 58.814,10.003 C58.814,10.657 58.297,11.189 57.658,11.189 L57.643,11.189 L52.559,11.189 C51.986,11.189 51.499,10.758 51.415,10.176 C51.35,9.718 51.206,9.31 50.976,8.931 C50.73,8.525 50.429,8.178 50.06,7.87 C49.696,7.569 49.274,7.328 48.807,7.156 C48.347,6.987 47.853,6.901 47.342,6.901 C46.365,6.901 45.54,7.087 44.891,7.455 C44.225,7.834 43.7,8.327 43.288,8.963 C42.853,9.631 42.531,10.408 42.329,11.273 C42.117,12.186 42.01,13.144 42.01,14.12 C42.01,15.047 42.117,15.962 42.327,16.838 C42.527,17.67 42.849,18.425 43.283,19.082 C43.697,19.71 44.223,20.198 44.891,20.578 C45.539,20.947 46.364,21.133 47.342,21.133 C48.621,21.133 49.574,20.765 50.255,20.007 C50.997,19.18 51.441,18.093 51.613,16.682 C51.685,16.09 52.177,15.644 52.76,15.644 L57.844,15.644 C58.168,15.644 58.479,15.784 58.697,16.03 C58.916,16.276 59.024,16.604 58.996,16.936 C58.85,18.599 58.467,20.127 57.856,21.48 C57.238,22.85 56.407,24.036 55.386,25.007 C54.362,25.981 53.15,26.733 51.785,27.243 C50.435,27.745 48.94,28 47.342,28 L47.342,28 Z M47.342,2.372 C45.686,2.372 44.183,2.672 42.877,3.265 C41.578,3.856 40.468,4.679 39.581,5.71 C38.681,6.755 37.98,8.002 37.498,9.417 C37.008,10.849 36.759,12.431 36.759,14.12 C36.759,15.761 37.007,17.307 37.495,18.714 C37.977,20.105 38.676,21.328 39.573,22.349 C40.459,23.361 41.569,24.167 42.871,24.749 C44.177,25.333 45.682,25.628 47.342,25.628 C48.67,25.628 49.899,25.421 50.995,25.013 C52.069,24.612 53.017,24.026 53.814,23.267 C54.613,22.508 55.267,21.571 55.758,20.483 C56.097,19.731 56.352,18.905 56.518,18.016 L53.73,18.016 C53.413,19.446 52.818,20.652 51.956,21.614 C50.83,22.868 49.277,23.505 47.342,23.505 C45.966,23.505 44.765,23.219 43.772,22.653 C42.791,22.097 41.982,21.343 41.368,20.411 C40.781,19.522 40.349,18.511 40.083,17.406 C39.827,16.344 39.698,15.239 39.698,14.12 C39.698,12.959 39.826,11.816 40.081,10.723 C40.346,9.583 40.778,8.548 41.364,7.646 C41.977,6.703 42.787,5.94 43.772,5.38 C44.768,4.815 45.969,4.529 47.342,4.529 C48.12,4.529 48.876,4.662 49.589,4.924 C50.3,5.187 50.947,5.557 51.514,6.027 C52.08,6.497 52.558,7.052 52.938,7.677 C53.157,8.037 53.332,8.418 53.465,8.817 L56.264,8.817 C56.086,8.086 55.83,7.415 55.498,6.81 C54.974,5.855 54.303,5.045 53.502,4.401 C52.689,3.747 51.751,3.241 50.715,2.897 C49.664,2.548 48.53,2.372 47.342,2.372 L47.342,2.372 Z" id="Fill-21" sketch:type="MSShapeGroup"></path>
            </g>
        </g>
    </g>
</svg>