<?xml version="1.0" encoding="UTF-8" standalone="no"?>
<svg width="50px" height="73px" viewBox="0 0 50 73" version="1.1" xmlns="http://www.w3.org/2000/svg" xmlns:xlink="http://www.w3.org/1999/xlink" xmlns:sketch="http://www.bohemiancoding.com/sketch/ns">
    <!-- Generator: Sketch 3.4.1 (15681) - http://www.bohemiancoding.com/sketch -->
    <title>FeatureTruckWash</title>
    <desc>Created with Sketch.</desc>
    <defs></defs>
    <g id="Map" stroke="none" stroke-width="1" fill="none" fill-rule="evenodd" sketch:type="MSPage">
        <g id="FeatureTruckWash" sketch:type="MSArtboardGroup" transform="translate(-12.000000, -1.000000)" fill="#000000">
            <g sketch:type="MSLayerGroup" transform="translate(12.000000, 1.000000)">
                <path d="M39.272,48.996 C36.536,48.996 34.312,51.23 34.312,53.974 C34.312,56.718 36.536,58.951 39.272,58.951 C42.006,58.951 44.231,56.718 44.231,53.974 C44.231,51.23 42.006,48.996 39.272,48.996 L39.272,48.996 Z M39.272,55.951 C38.19,55.951 37.312,55.064 37.312,53.974 C37.312,52.883 38.19,51.996 39.272,51.996 C40.352,51.996 41.231,52.883 41.231,53.974 C41.231,55.064 40.352,55.951 39.272,55.951 L39.272,55.951 Z" id="Fill-116" sketch:type="MSShapeGroup"></path>
                <path d="M10.729,48.996 C7.994,48.996 5.77,51.23 5.77,53.974 C5.77,56.718 7.994,58.951 10.729,58.951 C13.464,58.951 15.689,56.718 15.689,53.974 C15.689,51.23 13.464,48.996 10.729,48.996 L10.729,48.996 Z M10.729,55.951 C9.649,55.951 8.77,55.064 8.77,53.974 C8.77,52.883 9.649,51.996 10.729,51.996 C11.81,51.996 12.689,52.883 12.689,53.974 C12.689,55.064 11.81,55.951 10.729,55.951 L10.729,55.951 Z" id="Fill-117" sketch:type="MSShapeGroup"></path>
                <path d="M45.728,17.968 L4.273,17.968 C1.917,17.968 0,19.891 0,22.255 L0,61.968 C0,64.293 1.857,66.181 4.158,66.243 L4.158,70.012 C4.158,71.642 5.481,72.968 7.108,72.968 L14.351,72.968 C15.977,72.968 17.299,71.642 17.299,70.012 L17.299,66.255 L32.701,66.255 L32.701,70.012 C32.701,71.642 34.024,72.968 35.65,72.968 L42.893,72.968 C44.519,72.968 45.842,71.642 45.842,70.012 L45.842,66.243 C48.144,66.181 50,64.293 50,61.968 L50,22.255 C50,19.891 48.083,17.968 45.728,17.968 L45.728,17.968 Z M4.273,20.968 L45.728,20.968 C46.429,20.968 47,21.545 47,22.255 L47,34.139 L44.785,27.617 C44.152,26.047 42.652,25.032 40.964,25.032 L9.328,25.032 C7.673,25.032 6.184,26.021 5.504,27.63 L3,34.638 L3,22.255 C3,21.545 3.571,20.968 4.273,20.968 L4.273,20.968 Z M45.522,39.118 L4.584,39.118 L8.297,28.721 C8.475,28.303 8.879,28.032 9.328,28.032 L40.964,28.032 C41.422,28.032 41.83,28.31 41.974,28.661 L45.522,39.118 L45.522,39.118 Z M7.158,66.255 L14.299,66.255 L14.299,70.012 L7.158,70.012 L7.158,66.255 Z M35.701,66.255 L42.842,66.255 L42.842,70.012 L35.701,70.012 L35.701,66.255 Z M47,61.968 C47,62.678 46.429,63.255 45.728,63.255 L4.273,63.255 C3.571,63.255 3,62.678 3,61.968 L3,43.405 C3,42.695 3.571,42.118 4.273,42.118 L45.728,42.118 C46.429,42.118 47,42.695 47,43.405 L47,61.968 L47,61.968 Z" id="Fill-118" sketch:type="MSShapeGroup"></path>
                <path d="M30.083,54.968 L19.917,54.968 C19.089,54.968 18.417,55.64 18.417,56.468 C18.417,57.296 19.089,57.968 19.917,57.968 L30.083,57.968 C30.911,57.968 31.583,57.296 31.583,56.468 C31.583,55.64 30.911,54.968 30.083,54.968" id="Fill-119" sketch:type="MSShapeGroup"></path>
                <path d="M30.083,50.092 L19.917,50.092 C19.089,50.092 18.417,50.764 18.417,51.592 C18.417,52.42 19.089,53.092 19.917,53.092 L30.083,53.092 C30.911,53.092 31.583,52.42 31.583,51.592 C31.583,50.764 30.911,50.092 30.083,50.092" id="Fill-120" sketch:type="MSShapeGroup"></path>
                <path d="M3.615,7.664 C4.383,7.976 5.257,7.601 5.567,6.833 C6.452,4.638 7.015,3.968 7.98,3.968 L41.695,3.968 C42.66,3.968 43.223,4.638 44.108,6.833 C44.344,7.418 44.906,7.772 45.5,7.772 C45.687,7.772 45.876,7.737 46.06,7.664 C46.829,7.355 47.201,6.48 46.891,5.712 C46.176,3.937 44.98,0.968 41.695,0.968 L7.98,0.968 C4.695,0.968 3.499,3.937 2.784,5.712 C2.474,6.48 2.846,7.355 3.615,7.664" id="Fill-121" sketch:type="MSShapeGroup"></path>
                <path d="M23.337,7.141 L23.337,12.254 C23.337,13.082 24.009,13.754 24.837,13.754 C25.665,13.754 26.337,13.082 26.337,12.254 L26.337,7.141 C26.337,6.312 25.665,5.641 24.837,5.641 C24.009,5.641 23.337,6.312 23.337,7.141" id="Fill-122" sketch:type="MSShapeGroup"></path>
                <path d="M37.329,7.074 C36.505,7.173 35.918,7.919 36.017,8.741 L36.625,13.818 C36.715,14.581 37.363,15.141 38.112,15.141 C38.171,15.141 38.232,15.138 38.291,15.13 C39.115,15.031 39.702,14.285 39.603,13.463 L38.995,8.386 C38.898,7.563 38.138,6.971 37.329,7.074" id="Fill-123" sketch:type="MSShapeGroup"></path>
                <path d="M10.679,8.386 L10.072,13.463 C9.973,14.285 10.56,15.031 11.383,15.13 C11.444,15.138 11.503,15.141 11.563,15.141 C12.312,15.141 12.959,14.581 13.05,13.818 L13.658,8.741 C13.756,7.919 13.169,7.173 12.346,7.074 C11.527,6.971 10.778,7.563 10.679,8.386" id="Fill-124" sketch:type="MSShapeGroup"></path>
            </g>
        </g>
    </g>
</svg>