<?xml version="1.0" encoding="UTF-8" standalone="no"?>
<svg width="58px" height="42px" viewBox="0 0 58 42" version="1.1" xmlns="http://www.w3.org/2000/svg" xmlns:xlink="http://www.w3.org/1999/xlink" xmlns:sketch="http://www.bohemiancoding.com/sketch/ns">
    <!-- Generator: Sketch 3.4.1 (15681) - http://www.bohemiancoding.com/sketch -->
    <title>FeatureLaundry</title>
    <desc>Created with Sketch.</desc>
    <defs></defs>
    <g id="Map" stroke="none" stroke-width="1" fill="none" fill-rule="evenodd" sketch:type="MSPage">
        <g id="FeatureLaundry" sketch:type="MSArtboardGroup" transform="translate(-8.000000, -16.000000)" fill="#000000">
            <g sketch:type="MSLayerGroup" transform="translate(7.000000, 16.000000)" id="Fill-14">
                <path d="M57.84,0.04 C57.031,-0.149 56.228,0.355 56.039,1.161 L53.48,12.156 C52.573,11.987 52.001,11.577 51.278,11.056 C50.194,10.276 48.847,9.305 46.323,9.305 C43.8,9.305 42.451,10.276 41.367,11.056 C40.412,11.745 39.721,12.242 38.166,12.242 C36.609,12.242 35.919,11.745 34.962,11.056 C33.879,10.275 32.529,9.305 30.006,9.305 C27.482,9.305 26.134,10.276 25.05,11.056 C24.094,11.745 23.403,12.242 21.848,12.242 C20.291,12.242 19.6,11.745 18.643,11.056 C17.559,10.275 16.209,9.305 13.685,9.305 C11.16,9.305 9.811,10.275 8.727,11.056 C8.003,11.577 7.429,11.987 6.52,12.157 L3.961,1.161 C3.773,0.354 2.967,-0.149 2.16,0.04 C1.354,0.228 0.852,1.034 1.039,1.84 L7.869,31.189 C7.881,31.237 7.895,31.286 7.91,31.333 C10.096,37.735 12.802,42 18.905,42 L41.095,42 C47.198,42 49.904,37.735 52.09,31.333 C52.106,31.286 52.119,31.237 52.131,31.189 L58.961,1.84 C59.148,1.034 58.647,0.228 57.84,0.04 L57.84,0.04 Z M49.227,30.435 C47.031,36.837 44.974,39 41.095,39 L18.905,39 C15.026,39 12.969,36.837 10.773,30.435 L7.2,15.079 C8.7,14.77 9.664,14.077 10.479,13.491 C11.436,12.802 12.127,12.305 13.685,12.305 C15.242,12.305 15.934,12.802 16.891,13.491 C17.975,14.271 19.323,15.242 21.848,15.242 C24.371,15.242 25.72,14.271 26.804,13.491 C27.76,12.802 28.45,12.305 30.006,12.305 C31.563,12.305 32.253,12.802 33.21,13.491 C34.293,14.271 35.643,15.242 38.166,15.242 C40.689,15.242 42.037,14.271 43.121,13.491 C44.077,12.802 44.768,12.305 46.323,12.305 C47.879,12.305 48.569,12.802 49.524,13.491 C50.339,14.077 51.302,14.77 52.8,15.079 L49.227,30.435 L49.227,30.435 Z" sketch:type="MSShapeGroup"></path>
            </g>
        </g>
    </g>
</svg>