<?xml version="1.0" encoding="UTF-8" standalone="no"?>
<svg width="54px" height="59px" viewBox="0 0 54 59" version="1.1" xmlns="http://www.w3.org/2000/svg" xmlns:xlink="http://www.w3.org/1999/xlink" xmlns:sketch="http://www.bohemiancoding.com/sketch/ns">
    <!-- Generator: Sketch 3.4.1 (15681) - http://www.bohemiancoding.com/sketch -->
    <title>FeatureFuel</title>
    <desc>Created with Sketch.</desc>
    <defs></defs>
    <g id="Map" stroke="none" stroke-width="1" fill="none" fill-rule="evenodd" sketch:type="MSPage">
        <g id="FeatureFuel" sketch:type="MSArtboardGroup" transform="translate(-10.000000, -8.000000)" fill="#000000">
            <g sketch:type="MSLayerGroup" transform="translate(10.000000, 8.000000)">
                <path d="M28.5,9.188 L10.5,9.188 C9.672,9.188 9,9.859 9,10.688 L9,27.193 C9,28.021 9.672,28.693 10.5,28.693 L28.5,28.693 C29.328,28.693 30,28.021 30,27.193 L30,10.688 C30,9.859 29.328,9.188 28.5,9.188 L28.5,9.188 Z M12,12.188 L27,12.188 L27,25.694 L12,25.694 L12,12.188 Z" id="Fill-1" sketch:type="MSShapeGroup"></path>
                <path d="M28.5,31.19 L10.5,31.19 C9.672,31.19 9,31.861 9,32.69 C9,33.518 9.672,34.19 10.5,34.19 L28.5,34.19 C29.328,34.19 30,33.518 30,32.69 C30,31.861 29.328,31.19 28.5,31.19" id="Fill-2" sketch:type="MSShapeGroup"></path>
                <path d="M53.652,36.736 L46.5,28.15 L46.5,10.688 C46.5,10.114 46.174,9.592 45.659,9.34 L38.975,6.07 C38.721,2.783 35.971,0.185 32.619,0.185 L6.381,0.185 C2.862,0.185 0,3.047 0,6.565 L0,51.804 C0,55.322 2.862,58.185 6.381,58.185 L32.619,58.185 C36.138,58.185 39,55.322 39,51.804 L39,49.194 L43.5,49.194 L43.5,56.685 C43.5,57.513 44.172,58.185 45,58.185 L52.5,58.185 C53.328,58.185 54,57.513 54,56.685 L54,37.696 C54,37.346 53.877,37.006 53.652,36.736 L53.652,36.736 Z M36,51.804 C36,53.668 34.483,55.185 32.619,55.185 L6.381,55.185 C4.517,55.185 3,53.668 3,51.804 L3,6.565 C3,4.701 4.517,3.185 6.381,3.185 L32.619,3.185 C34.483,3.185 36,4.701 36,6.565 L36,51.804 L36,51.804 Z M51,55.185 L46.5,55.185 L46.5,47.694 C46.5,46.866 45.828,46.194 45,46.194 L39,46.194 L39,9.422 L43.5,11.624 L43.5,28.693 C43.5,29.044 43.623,29.384 43.848,29.653 L51,38.239 L51,55.185 L51,55.185 Z" id="Fill-3" sketch:type="MSShapeGroup"></path>
            </g>
        </g>
    </g>
</svg>