<?xml version="1.0" encoding="UTF-8" standalone="no"?>
<svg width="30px" height="64px" viewBox="0 0 30 64" version="1.1" xmlns="http://www.w3.org/2000/svg" xmlns:xlink="http://www.w3.org/1999/xlink" xmlns:sketch="http://www.bohemiancoding.com/sketch/ns">
    <!-- Generator: Sketch 3.4.1 (15681) - http://www.bohemiancoding.com/sketch -->
    <title>Imported Layers</title>
    <desc>Created with Sketch.</desc>
    <defs></defs>
    <g id="Map" stroke="none" stroke-width="1" fill="none" fill-rule="evenodd" sketch:type="MSPage">
        <g id="FeatureHotDog" sketch:type="MSArtboardGroup" transform="translate(-22.000000, -5.000000)" fill="#000000">
            <g id="Imported-Layers" sketch:type="MSLayerGroup" transform="translate(22.000000, 5.000000)">
                <path d="M17.47,10 C17.47,9.172 16.798,8.5 15.97,8.5 C15.142,8.5 14.47,9.172 14.47,10 C14.47,11.134 14.165,11.612 13.704,12.336 C13.154,13.2 12.47,14.275 12.47,16.283 C12.47,18.29 13.154,19.365 13.704,20.23 C14.165,20.953 14.47,21.432 14.47,22.565 C14.47,23.7 14.165,24.179 13.704,24.902 C13.154,25.767 12.47,26.843 12.47,28.851 C12.47,30.858 13.154,31.933 13.704,32.797 C14.165,33.521 14.47,33.999 14.47,35.132 C14.47,36.267 14.165,36.745 13.704,37.469 C13.154,38.334 12.47,39.409 12.47,41.418 C12.47,43.427 13.154,44.504 13.704,45.368 C14.165,46.094 14.47,46.572 14.47,47.709 C14.47,48.846 14.165,49.324 13.704,50.05 C13.154,50.914 12.47,51.991 12.47,54 C12.47,54.828 13.142,55.5 13.97,55.5 C14.798,55.5 15.47,54.828 15.47,54 C15.47,52.863 15.775,52.385 16.236,51.659 C16.785,50.795 17.47,49.718 17.47,47.709 C17.47,45.7 16.785,44.623 16.236,43.759 C15.775,43.033 15.47,42.555 15.47,41.418 C15.47,40.283 15.775,39.804 16.236,39.08 C16.785,38.216 17.47,37.14 17.47,35.132 C17.47,33.124 16.785,32.05 16.236,31.185 C15.775,30.462 15.47,29.983 15.47,28.851 C15.47,27.716 15.775,27.237 16.236,26.514 C16.785,25.649 17.47,24.573 17.47,22.565 C17.47,20.558 16.785,19.482 16.236,18.618 C15.775,17.894 15.47,17.416 15.47,16.283 C15.47,15.149 15.775,14.671 16.236,13.947 C16.785,13.083 17.47,12.008 17.47,10" id="Fill-1" sketch:type="MSShapeGroup"></path>
                <path d="M22.884,10.585 L22.884,7 C22.884,3.14 19.743,0 15.884,0 L13.925,0 L13.925,0.006 C10.127,0.077 7.056,3.185 7.056,7 L7.056,10.58 C3.393,11.104 0.556,14.456 0.556,18.508 L0.556,45.487 C0.556,49.539 3.393,52.89 7.056,53.415 L7.056,57 C7.056,60.86 10.197,64 14.056,64 L16.015,64 L16.015,63.994 C19.813,63.923 22.884,60.815 22.884,57 L22.884,53.42 C26.547,52.896 29.384,49.544 29.384,45.492 L29.384,18.513 C29.384,14.461 26.547,11.11 22.884,10.585 L22.884,10.585 Z M7.056,50.36 C5.056,49.851 3.556,47.864 3.556,45.487 L3.556,18.508 C3.556,16.13 5.056,14.143 7.056,13.634 L7.056,50.36 L7.056,50.36 Z M19.884,57 C19.884,59.206 18.09,61 15.884,61 L14.056,61 C11.85,61 10.056,59.206 10.056,57 L10.056,7 C10.056,4.794 11.85,3 14.056,3 L15.884,3 C18.09,3 19.884,4.794 19.884,7 L19.884,57 L19.884,57 Z M26.384,45.492 C26.384,47.87 24.884,49.857 22.884,50.365 L22.884,13.64 C24.884,14.149 26.384,16.136 26.384,18.513 L26.384,45.492 L26.384,45.492 Z" id="Fill-2" sketch:type="MSShapeGroup"></path>
            </g>
        </g>
    </g>
</svg>