<?xml version="1.0" encoding="UTF-8" standalone="no"?>
<svg width="28px" height="59px" viewBox="0 0 28 59" version="1.1" xmlns="http://www.w3.org/2000/svg" xmlns:xlink="http://www.w3.org/1999/xlink" xmlns:sketch="http://www.bohemiancoding.com/sketch/ns">
    <!-- Generator: Sketch 3.4.1 (15681) - http://www.bohemiancoding.com/sketch -->
    <title>FeatureFood</title>
    <desc>Created with Sketch.</desc>
    <defs></defs>
    <g id="Map" stroke="none" stroke-width="1" fill="none" fill-rule="evenodd" sketch:type="MSPage">
        <g id="FeatureFood" sketch:type="MSArtboardGroup" transform="translate(-23.000000, -8.000000)" fill="#000000">
            <g sketch:type="MSLayerGroup" transform="translate(23.000000, 8.000000)">
                <path d="M16.5,7.5 C16.5,6.672 15.828,6 15,6 C14.172,6 13.5,6.672 13.5,7.5 C13.5,8.634 13.195,9.112 12.734,9.836 C12.185,10.7 11.5,11.775 11.5,13.783 C11.5,15.79 12.185,16.865 12.734,17.729 C13.195,18.453 13.5,18.932 13.5,20.065 C13.5,21.2 13.195,21.679 12.734,22.402 C12.185,23.267 11.5,24.343 11.5,26.351 C11.5,28.358 12.185,29.433 12.734,30.297 C13.195,31.02 13.5,31.499 13.5,32.632 C13.5,33.767 13.195,34.245 12.734,34.969 C12.185,35.834 11.5,36.909 11.5,38.918 C11.5,40.927 12.185,42.004 12.734,42.868 C13.195,43.594 13.5,44.072 13.5,45.209 C13.5,46.346 13.195,46.824 12.734,47.55 C12.185,48.414 11.5,49.491 11.5,51.5 C11.5,52.328 12.172,53 13,53 C13.828,53 14.5,52.328 14.5,51.5 C14.5,50.363 14.805,49.885 15.266,49.159 C15.815,48.295 16.5,47.218 16.5,45.209 C16.5,43.2 15.815,42.123 15.266,41.259 C14.805,40.533 14.5,40.055 14.5,38.918 C14.5,37.783 14.805,37.304 15.266,36.58 C15.815,35.716 16.5,34.64 16.5,32.632 C16.5,30.624 15.815,29.55 15.266,28.685 C14.805,27.962 14.5,27.483 14.5,26.351 C14.5,25.216 14.805,24.737 15.266,24.014 C15.815,23.149 16.5,22.073 16.5,20.065 C16.5,18.058 15.815,16.982 15.266,16.118 C14.805,15.394 14.5,14.916 14.5,13.783 C14.5,12.649 14.805,12.171 15.266,11.447 C15.815,10.583 16.5,9.508 16.5,7.5" id="Fill-1-Copy-2" sketch:type="MSShapeGroup"></path>
                <path d="M21,10.086 L21,7.5 C21,3.641 17.859,0.5 14,0.5 C10.141,0.5 7,3.641 7,7.5 L7,10.086 C3.337,10.61 0.5,13.961 0.5,18.014 L0.5,41.992 C0.5,46.044 3.337,49.395 7,49.92 L7,51.5 C7,55.359 10.141,58.5 14,58.5 C17.859,58.5 21,55.359 21,51.5 L21,49.92 C24.664,49.395 27.5,46.044 27.5,41.992 L27.5,18.014 C27.5,13.961 24.664,10.61 21,10.086 L21,10.086 Z M3.5,41.992 L3.5,18.014 C3.5,15.636 5,13.649 7,13.14 L7,46.865 C5,46.357 3.5,44.37 3.5,41.992 L3.5,41.992 Z M18,51.5 C18,53.706 16.206,55.5 14,55.5 C11.794,55.5 10,53.706 10,51.5 L10,7.5 C10,5.294 11.794,3.5 14,3.5 C16.206,3.5 18,5.294 18,7.5 L18,51.5 L18,51.5 Z M24.5,41.992 C24.5,44.37 23,46.357 21,46.865 L21,13.14 C23,13.649 24.5,15.636 24.5,18.014 L24.5,41.992 L24.5,41.992 Z" id="Fill-2-Copy-2" sketch:type="MSShapeGroup"></path>
            </g>
        </g>
    </g>
</svg>