<?xml version="1.0" encoding="UTF-8" standalone="no"?>
<svg width="58px" height="40px" viewBox="0 0 58 40" version="1.1" xmlns="http://www.w3.org/2000/svg" xmlns:xlink="http://www.w3.org/1999/xlink" xmlns:sketch="http://www.bohemiancoding.com/sketch/ns">
    <!-- Generator: Sketch 3.4.1 (15681) - http://www.bohemiancoding.com/sketch -->
    <title>FeatureCardPayment</title>
    <desc>Created with Sketch.</desc>
    <defs></defs>
    <g id="Map" stroke="none" stroke-width="1" fill="none" fill-rule="evenodd" sketch:type="MSPage">
        <g id="FeatureCardPayment" sketch:type="MSArtboardGroup" transform="translate(-8.000000, -17.000000)" fill="#000000">
            <g sketch:type="MSLayerGroup" transform="translate(8.000000, 17.000000)">
                <path d="M53.256,0.5 L4.744,0.5 C2.128,0.5 0,2.632 0,5.252 L0,34.748 C0,37.368 2.128,39.5 4.744,39.5 L53.256,39.5 C55.872,39.5 58,37.368 58,34.748 L58,5.252 C58,2.632 55.872,0.5 53.256,0.5 L53.256,0.5 Z M3,5.252 C3,4.286 3.782,3.5 4.744,3.5 L53.256,3.5 C54.218,3.5 55,4.286 55,5.252 L55,17.326 C55,18.288 54.214,19.07 53.248,19.07 L4.744,19.074 C3.782,19.074 3,18.288 3,17.322 L3,5.252 L3,5.252 Z M55,34.748 C55,35.714 54.218,36.5 53.256,36.5 L4.744,36.5 C3.782,36.5 3,35.714 3,34.748 L3,29.872 C3,28.91 3.786,28.128 4.752,28.128 L53.256,28.124 C54.218,28.124 55,28.91 55,29.876 L55,34.748 L55,34.748 Z" id="Fill-22" sketch:type="MSShapeGroup"></path>
                <path d="M8.227,12.863 L25.529,12.863 C26.358,12.863 27.029,12.191 27.029,11.363 C27.029,10.535 26.358,9.863 25.529,9.863 L8.227,9.863 C7.398,9.863 6.727,10.535 6.727,11.363 C6.727,12.191 7.398,12.863 8.227,12.863" id="Fill-23" sketch:type="MSShapeGroup"></path>
            </g>
        </g>
    </g>
</svg>