<?xml version="1.0" encoding="UTF-8" standalone="no"?>
<svg width="45px" height="59px" viewBox="0 0 45 59" version="1.1" xmlns="http://www.w3.org/2000/svg" xmlns:xlink="http://www.w3.org/1999/xlink" xmlns:sketch="http://www.bohemiancoding.com/sketch/ns">
    <!-- Generator: Sketch 3.4.1 (15681) - http://www.bohemiancoding.com/sketch -->
    <title>FeatureTruckParking</title>
    <desc>Created with Sketch.</desc>
    <defs></defs>
    <g id="Map" stroke="none" stroke-width="1" fill="none" fill-rule="evenodd" sketch:type="MSPage">
        <g id="FeatureTruckParking" sketch:type="MSArtboardGroup" transform="translate(-14.000000, -7.000000)" fill="#000000">
            <g sketch:type="MSLayerGroup" transform="translate(14.000000, 7.000000)">
                <path d="M31.045,12.68 C29.33,11.225 26.964,10.487 24.013,10.487 L17.257,10.487 C14.501,10.487 12.26,12.749 12.26,15.53 L12.26,24.703 C12.26,27.484 14.501,29.746 17.257,29.746 L24.013,29.746 C26.987,29.746 29.368,28.945 31.09,27.365 C32.849,25.751 33.74,23.263 33.74,19.968 C33.74,16.649 32.834,14.197 31.045,12.68 L31.045,12.68 Z M29.018,25.107 C27.879,26.151 26.195,26.682 24.013,26.682 L17.257,26.682 C16.191,26.682 15.324,25.794 15.324,24.703 L15.324,15.53 C15.324,14.439 16.191,13.552 17.257,13.552 L24.013,13.552 C26.218,13.552 27.916,14.045 29.063,15.018 C30.133,15.926 30.676,17.591 30.676,19.968 C30.676,22.368 30.117,24.098 29.018,25.107 L29.018,25.107 Z" id="Fill-105" sketch:type="MSShapeGroup"></path>
                <path d="M39.702,5.576 C36.236,2.496 31.568,0.936 25.83,0.936 L5.986,0.936 C3.231,0.936 0.989,3.197 0.989,5.979 L0.989,53.957 C0.989,56.738 3.231,59 5.986,59 L10.326,59 C13.082,59 15.324,56.738 15.324,53.957 L15.324,41.202 C15.324,40.111 16.191,39.224 17.257,39.224 L25.094,39.224 C31.342,39.224 36.256,37.746 39.698,34.833 C43.224,31.854 45.011,26.828 45.011,19.894 C45.011,13.517 43.225,8.699 39.702,5.576 L39.702,5.576 Z M37.719,32.492 C34.845,34.925 30.597,36.159 25.094,36.159 L17.257,36.159 C14.501,36.159 12.26,38.421 12.26,41.202 L12.26,53.957 C12.26,55.048 11.393,55.936 10.326,55.936 L5.986,55.936 C4.921,55.936 4.054,55.048 4.054,53.957 L4.054,5.979 C4.054,4.888 4.921,4 5.986,4 L25.83,4 C30.796,4 34.778,5.302 37.668,7.868 C40.507,10.386 41.946,14.432 41.946,19.894 C41.946,25.884 40.524,30.122 37.719,32.492 L37.719,32.492 Z" id="Fill-106" sketch:type="MSShapeGroup"></path>
            </g>
        </g>
    </g>
</svg>